<?xml version="1.0" encoding="UTF-8"?> <svg xmlns="http://www.w3.org/2000/svg" width="111" height="109" viewBox="0 0 111 109" fill="none"> <path d="M36.5566 79L23.0566 65.1932M23.0566 65.1932C23.0566 65.1932 14.5566 59 14.5566 56.5C14.5566 54 14.0566 38.4 14.0566 36C14.0566 33 12.0566 30 8.05663 30C4.85663 30 3.38968 34.3333 3.05621 36.5C2.88955 47 3.05676 65 4.05621 69C5.05566 73 31.0557 94 32.0562 106L50.5566 106.5C51.0566 96.6667 51.3566 76 48.5566 72C45.0566 67 34.9557 58.7 30.5557 57.5C26.1557 56.3 23.0566 61.7955 23.0566 65.1932Z" stroke="#274E9D" stroke-width="4.5" stroke-linecap="round" stroke-linejoin="round"></path> <path d="M74.3828 79L87.8828 65.1932M87.8828 65.1932C87.8828 65.1932 96.3828 59 96.3828 56.5C96.3828 54 96.8828 38.4 96.8828 36C96.8828 33 98.8828 30 102.883 30C106.083 30 107.55 34.3333 107.883 36.5C108.05 47 107.883 65 106.883 69C105.884 73 79.8838 94 78.8832 106L60.3828 106.5C59.8828 96.6667 59.5828 76 62.3828 72C65.8828 67 75.9838 58.7 80.3838 57.5C84.7838 56.3 87.8828 61.7955 87.8828 65.1932Z" stroke="#274E9D" stroke-width="4.5" stroke-linecap="round" stroke-linejoin="round"></path> <path d="M73.0557 45.5C65.0557 47.1 45.389 46.1667 36.5557 45.5C38.2223 39.5 44.3557 27.5 55.5557 27.5C66.7557 27.5 71.889 39.5 73.0557 45.5Z" stroke="#274E9D" stroke-width="4.5" stroke-linecap="round" stroke-linejoin="round"></path> <circle cx="55.5557" cy="11.5" r="9.25" stroke="#274E9D" stroke-width="4.5"></circle> </svg> 