<?xml version="1.0" encoding="UTF-8"?> <svg xmlns="http://www.w3.org/2000/svg" width="458" height="422" viewBox="0 0 458 422" fill="none"> <mask id="mask0_252_83" style="mask-type:alpha" maskUnits="userSpaceOnUse" x="0" y="0" width="458" height="422"> <rect width="458" height="422" fill="#D9D9D9"></rect> </mask> <g mask="url(#mask0_252_83)"> <path d="M130.5 129.612C138.97 151.56 125.53 176.092 108.523 192.314C100.03 200.424 90.4903 207.51 83.0456 216.579C75.6008 225.647 70.2513 237.368 72.1905 248.932C73.684 257.845 79.2786 265.599 83.7143 273.553C88.1499 281.508 91.5603 291.089 88.3505 299.623C85.7872 306.419 79.613 311.009 74.6647 316.335C54.604 337.814 55.3396 372.463 68.2453 398.777C71.3505 405.646 75.7643 411.845 81.2401 417.026C93.3211 427.788 110.551 430.061 126.666 431.398C172.449 435.186 218.455 435.231 264.394 435.253C283.764 435.253 303.468 435.253 321.968 429.549C345.822 422.103 365.945 405.858 378.25 384.116C387.322 367.962 391.2 346.749 380.768 331.419C373.502 320.724 359.883 313.594 357.743 300.893C355.603 288.193 366.035 277.185 369.534 264.841C373.034 252.497 369.334 239.016 362.848 227.987C356.361 216.957 346.977 207.933 338.218 198.441C325.86 185.154 314.351 171.104 303.758 156.373C295.132 144.363 286.907 131.261 285.614 116.533C249.95 114.795 214.287 114.357 178.624 115.218" fill="#BCB099"></path> <path d="M126.6 197.706C117.684 208.535 108.367 219.698 103.932 233.067C101.496 240.595 100.653 248.547 101.455 256.418C102.257 264.289 104.686 271.907 108.59 278.79C111.265 283.447 114.675 287.881 115.611 293.184C116.926 300.827 112.736 308.313 107.988 314.485C100.321 324.445 90.6915 333.135 85.119 344.41C80.754 353.682 79.3056 364.061 80.9652 374.173C82.6247 384.286 87.3141 393.658 94.4138 401.05" stroke="#D8CDB6" stroke-width="2.30616" stroke-linecap="round" stroke-linejoin="round"></path> <path d="M134.647 218.384C128.406 228.009 122.633 238.192 120.002 249.355C117.372 260.519 118.264 272.952 124.46 282.533C128.428 288.549 134.446 293.474 136.318 300.359C136.991 303.234 137.164 306.204 136.831 309.138C136.13 317.651 133.525 325.898 129.208 333.269C126.979 336.923 124.505 340.332 122.521 344.053C117.225 354.206 115.483 365.839 117.573 377.097C119.681 388.301 124.4 398.851 131.348 407.891" stroke="#D8CDB6" stroke-width="2.30616" stroke-linecap="round" stroke-linejoin="round"></path> <path d="M313.7 204.88C320.522 210.726 326.674 217.31 332.044 224.511C340.113 235.384 346.555 248.731 344.237 262.1C343.211 268.005 340.536 273.509 338.553 279.168C335.78 287.09 334.349 295.419 334.318 303.812C334.131 309.384 335.118 314.934 337.215 320.1C338.865 323.754 341.294 326.985 343.278 330.461C347.789 338.838 349.6 348.404 348.463 357.849C347.326 367.294 343.296 376.157 336.926 383.225" stroke="#D8CDB6" stroke-width="2.30616" stroke-linecap="round" stroke-linejoin="round"></path> <path d="M310.31 260.83C314.88 266.713 313.832 275.224 311.09 282.154C308.349 289.084 304.136 295.523 302.865 302.876C301.822 309.146 302.997 315.583 306.187 321.08C308.661 325.314 312.272 328.834 314.501 333.224C316.594 337.996 317.694 343.143 317.733 348.353C318.424 360.631 317.421 373.309 312.272 384.472C307.123 395.636 297.293 405.15 285.234 407.623" stroke="#D8CDB6" stroke-width="2.30616" stroke-linecap="round" stroke-linejoin="round"></path> <path d="M360.284 325.024C366.14 335.242 368.955 346.92 368.398 358.682C367.841 370.445 363.936 381.805 357.141 391.424" stroke="#D8CDB6" stroke-width="2.30616" stroke-linecap="round" stroke-linejoin="round"></path> <path d="M345.997 221.325C350.584 228.109 353.446 235.911 354.333 244.052C354.511 245.812 354.623 247.573 354.846 249.333" stroke="#D8CDB6" stroke-width="2.30616" stroke-linecap="round" stroke-linejoin="round"></path> <path d="M293.416 336.366C296.369 344.046 297.736 352.244 297.433 360.466C297.13 368.688 295.165 376.763 291.655 384.205" stroke="#D8CDB6" stroke-width="2.30616" stroke-linecap="round" stroke-linejoin="round"></path> <path d="M158.051 321.771C151.391 331.216 147.454 342.307 146.668 353.835C145.882 365.363 148.277 376.886 153.593 387.146" stroke="#D8CDB6" stroke-width="2.30616" stroke-linecap="round" stroke-linejoin="round"></path> <path d="M101.368 368.207C102.031 385.983 108.801 402.987 120.537 416.358" stroke="#D8CDB6" stroke-width="2.30616" stroke-linecap="round" stroke-linejoin="round"></path> <path d="M319.873 241.401C319.107 243.414 318.015 245.289 316.641 246.949C314.124 250.268 310.935 253.019 307.283 255.023C303.63 257.027 299.596 258.239 295.444 258.58C295.176 245.456 291.298 220.367 303.379 212.456C317.132 203.455 323.997 230.059 319.873 241.401Z" fill="#EFDAD5"></path> <path d="M310.289 241.267C309.802 242.508 309.125 243.665 308.282 244.698C306.72 246.755 304.741 248.459 302.475 249.699C300.209 250.939 297.707 251.688 295.132 251.895C294.976 243.785 292.568 228.232 300.058 223.33C308.572 217.759 312.83 234.226 310.289 241.267Z" fill="#EACDC5"></path> <path d="M114.92 241.4C115.695 243.437 116.786 245.339 118.152 247.038C120.673 250.357 123.866 253.109 127.522 255.113C131.178 257.117 135.216 258.328 139.371 258.669C139.639 245.545 143.517 220.455 131.436 212.545C117.684 203.454 110.818 230.059 114.92 241.4Z" fill="#EFDAD5"></path> <path d="M124.617 241.267C125.103 242.508 125.78 243.665 126.623 244.698C128.185 246.755 130.164 248.459 132.43 249.699C134.696 250.939 137.199 251.688 139.774 251.895C139.93 243.785 142.337 228.232 134.848 223.33C126.244 217.759 121.987 234.226 124.617 241.267Z" fill="#EACDC5"></path> <path d="M187.696 387.681C205.735 388.831 223.847 387.557 241.548 383.893C239.765 362.191 240.099 340.354 240.433 318.585C226.725 319.61 196.79 305.216 187.451 318.585C183.171 324.69 188.253 387.726 187.696 387.681Z" fill="#EFDAD5"></path> <path d="M133.844 239.529C140.175 275.715 144.098 289.418 173.297 316.981C180.229 323.532 201.961 334.806 212.46 334.227C238.405 332.957 267.56 311.232 279.329 293.54C291.098 275.848 296.982 256.017 301.084 236.187C306.834 208.401 309.063 179.635 301.529 152.139C298.899 142.469 294.842 132.776 287.108 125.223C279.373 117.669 267.694 112.589 256.125 108.89C235.969 102.641 214.948 99.6328 193.848 99.9775C178.892 100.178 154.485 111.698 143.563 121.769C133.644 130.905 131.682 147.148 131.526 159.024C131.303 179.68 130.278 219.052 133.844 239.529Z" fill="#F7E5DF"></path> <path d="M250.62 227.876C253.833 227.876 256.437 225.272 256.437 222.06C256.437 218.848 253.833 216.244 250.62 216.244C247.407 216.244 244.802 218.848 244.802 222.06C244.802 225.272 247.407 227.876 250.62 227.876Z" fill="#486266"></path> <path d="M179.114 222.06C179.114 223.21 178.773 224.335 178.134 225.291C177.495 226.247 176.586 226.993 175.523 227.433C174.46 227.873 173.29 227.988 172.162 227.764C171.033 227.539 169.997 226.986 169.183 226.172C168.369 225.359 167.815 224.323 167.591 223.195C167.366 222.066 167.482 220.897 167.922 219.834C168.362 218.772 169.108 217.864 170.065 217.224C171.021 216.585 172.146 216.244 173.297 216.244C174.84 216.244 176.319 216.857 177.41 217.948C178.501 219.038 179.114 220.518 179.114 222.06Z" fill="#486266"></path> <path d="M197.637 262.346C197.102 265.866 196.857 270.033 199.487 272.439C201.716 274.534 205.305 274.356 208.403 274.066C207.645 266.089 206.82 234.159 205.394 226.851C201.293 238.125 199.398 250.625 197.637 262.346Z" fill="#EACDC5"></path> <path d="M185.466 295.453C207.065 271.723 235.328 295.297 236.576 299.018" stroke="#DDB3A8" stroke-width="2.13973" stroke-linecap="round" stroke-linejoin="round"></path> <path d="M264.64 267.515C275.596 267.515 284.478 258.637 284.478 247.684C284.478 236.732 275.596 227.853 264.64 227.853C253.684 227.853 244.802 236.732 244.802 247.684C244.802 258.637 253.684 267.515 264.64 267.515Z" fill="#EFD5CE"></path> <path d="M159.276 267.515C170.232 267.515 179.114 258.637 179.114 247.684C179.114 236.732 170.232 227.853 159.276 227.853C148.32 227.853 139.438 236.732 139.438 247.684C139.438 258.637 148.32 267.515 159.276 267.515Z" fill="#EFD5CE"></path> <path d="M238.405 196.926C242.012 195.26 245.999 194.587 249.953 194.979C253.908 195.371 257.685 196.812 260.895 199.154" stroke="#CCBBA3" stroke-width="2.13973" stroke-linecap="round" stroke-linejoin="round"></path> <path d="M184.531 196.926C180.924 195.26 176.937 194.587 172.983 194.979C169.028 195.371 165.251 196.812 162.041 199.154" stroke="#CCBBA3" stroke-width="2.13973" stroke-linecap="round" stroke-linejoin="round"></path> <path d="M252.246 126.493C250.196 141.645 241.793 150.713 230.202 160.673C219.585 169.432 206.831 175.214 193.246 177.429C181.878 179.479 170.198 179.657 158.986 182.264C147.775 184.871 136.518 190.843 131.214 201.093C119.289 206.93 112.29 180.192 113.471 150.736C114.327 133.296 120.555 116.548 131.303 102.785C137.722 93.6495 151.965 85.1378 160.279 77.6956C164.972 73.1057 170.504 69.4597 176.573 66.9558C182.449 65.1848 188.557 64.2986 194.694 64.3265C207.622 63.7026 221.442 63.2792 232.587 69.9192C236.255 72.2282 239.611 74.999 242.573 78.1635C245.388 80.9544 247.837 84.0916 249.861 87.4997C256.392 99.1085 254.453 113.413 252.313 126.56" fill="#C9BDA3"></path> <path d="M265.777 167.893C272.909 175.001 281.157 180.928 288.512 187.947C295.868 194.965 302.421 203.076 304.917 212.835C311.857 197.991 315.6 181.855 315.903 165.473C316.206 149.091 313.064 132.827 306.678 117.736C303.734 110.702 299.898 104.075 295.266 98.017C289.965 91.4349 283.793 85.6031 276.922 80.6817C267.404 73.7297 256.081 67.8696 244.379 69.1619C240.144 69.6299 235.641 71.3901 233.68 75.1335C232.785 77.1676 232.351 79.3741 232.409 81.5952C232.217 88.1578 232.914 94.7163 234.482 101.092C235.953 107.086 239.363 112.656 240.456 118.672C242.309 130.2 246.39 141.257 252.47 151.226C256.249 157.275 260.714 162.868 265.777 167.893Z" fill="#C9BDA3"></path> <path d="M240.166 103.52C240.84 114.29 238.084 124.997 232.293 134.103C226.503 143.21 217.976 150.25 207.935 154.212C193.135 159.671 176.529 157.844 161.506 162.59C153.369 165.503 145.627 169.418 138.458 174.243C132.551 177.942 126.087 182.599 125.307 189.506C125.697 178.515 129.533 167.924 136.272 159.232C143.012 150.539 152.315 144.184 162.865 141.065C168.326 139.573 174.01 138.993 179.56 137.768C193.38 134.715 205.951 127.674 218.099 120.366C222.966 117.658 227.5 114.39 231.606 110.628C235.735 106.833 238.513 101.795 239.519 96.2788" stroke="#D8CDB6" stroke-width="2.30616" stroke-linecap="round" stroke-linejoin="round"></path> <path d="M231.763 79.4113C229.728 86.1659 225.116 91.8487 218.924 95.2314C212.783 98.5387 206.295 101.154 199.577 103.03C179.672 109.581 159.856 118.182 144.789 132.732C129.721 147.282 120.159 168.851 124.304 189.372" stroke="#D8CDB6" stroke-width="2.30616" stroke-linecap="round" stroke-linejoin="round"></path> <path d="M135.07 186.476C137.087 183.584 139.547 181.027 142.359 178.9C150.718 172.795 161.729 172.037 172.093 171.948C182.458 171.859 193.269 172.104 202.519 167.492" stroke="#D8CDB6" stroke-width="2.30616" stroke-linecap="round" stroke-linejoin="round"></path> <path d="M203.32 76.292C179.354 80.416 157.997 93.8588 143.918 113.681" stroke="#D8CDB6" stroke-width="2.30616" stroke-linecap="round" stroke-linejoin="round"></path> <path d="M133.131 116.199C123.59 130.512 118.318 147.243 117.93 164.439" stroke="#D8CDB6" stroke-width="2.30616" stroke-linecap="round" stroke-linejoin="round"></path> <path d="M243.175 83.3776C248.212 99.8661 253.956 116.117 260.405 132.13C262.854 138.753 265.976 145.107 269.722 151.092C274.209 157.103 279 162.882 284.076 168.405C291.441 177.235 297.492 187.081 302.042 197.639C300.838 190.798 305.029 184.27 306.611 177.585C307.303 174.373 307.595 171.088 307.48 167.804C307.124 147.327 298.409 128.008 289.872 109.381" stroke="#D8CDB6" stroke-width="2.30616" stroke-linecap="round" stroke-linejoin="round"></path> <path d="M251.778 83.3998C257.907 101.537 270.033 123.953 279.105 140.798C285.68 152.986 296.535 178.922 299.634 192.403" stroke="#D8CDB6" stroke-width="2.30616" stroke-linecap="round" stroke-linejoin="round"></path> <path d="M265.442 92.2904C271.817 109.715 283.987 124.844 288.267 142.893" stroke="#D8CDB6" stroke-width="2.30616" stroke-linecap="round" stroke-linejoin="round"></path> <path d="M117.639 377.164C141.266 371.014 147.173 373.087 171.58 373.399C209.473 373.889 247.365 371.972 285.257 374.268C293.983 374.547 302.649 375.81 311.091 378.033C326.961 382.712 340.491 393.229 352.171 404.95C359.058 411.879 365.768 419.945 366.838 429.638C320.787 444.946 271.572 447.307 223.047 448.689C171.246 450.182 123.323 448.845 61.2242 435.988C60.3995 435.832 62.8513 391.469 117.639 377.164Z" fill="#61C4EB"></path> <path d="M183.817 395.614C191.997 404.076 201.138 411.554 211.055 417.895C213.639 419.813 216.655 421.068 219.837 421.55C225.788 421.995 230.826 417.45 234.949 413.149C246.272 401.362 257.239 388.439 262.99 373.287C232.542 372.552 202.05 373.688 171.602 373.287H166.654C167.679 380.729 179.203 390.845 183.817 395.614Z" fill="#EFDAD5"></path> </g> </svg> 