<?xml version="1.0" encoding="UTF-8"?> <svg xmlns="http://www.w3.org/2000/svg" width="452" height="374" viewBox="0 0 452 374" fill="none"> <mask id="mask0_255_192" style="mask-type:alpha" maskUnits="userSpaceOnUse" x="0" y="0" width="452" height="374"> <rect width="452" height="374" fill="#D9D9D9"></rect> </mask> <g mask="url(#mask0_255_192)"> <path d="M330.245 129.45C333.569 139.162 343.221 147.859 340.375 157.731C337.768 166.786 325.827 170.548 323.08 179.623C321.269 185.594 323.996 191.783 327.2 197.038C333.708 207.705 342.943 219.169 339.48 231.19C336.475 241.599 325.309 246.953 315.458 251.47C305.606 255.988 294.72 262.576 293.466 273.363C292.292 283.533 300.531 292.648 300.929 302.898C301.447 315.894 288.868 326.223 276.091 328.671C263.314 331.119 250.218 327.915 237.341 326.263C224.465 324.611 210.195 324.81 199.905 332.771C197.776 334.423 195.706 336.871 196.263 339.518C190.248 343.43 183.518 346.113 176.46 347.411C169.403 348.709 162.159 348.597 155.145 347.081C149.175 345.767 143.502 343.439 137.611 341.866C124.237 338.264 109.848 338.483 97.0704 333.169C84.2932 327.855 73.1877 313.725 78.1036 300.768C79.4171 297.265 81.7855 294.22 82.8602 290.618C85.0693 283.254 81.3676 275.333 76.2925 269.542C71.2174 263.75 64.7691 259.272 59.8731 253.341C55.6541 248.084 52.6741 241.943 51.1546 235.376C49.6351 228.809 49.6152 221.984 51.0962 215.407C52.6571 208.851 55.526 202.678 59.5307 197.257C63.5354 191.837 68.5935 187.281 74.4017 183.862C77.4468 182.071 80.9098 180.34 82.3626 177.076C83.2553 174.155 83.1996 171.027 82.2035 168.14C80.0142 158.606 77.805 148.715 79.7555 139.122C81.7059 129.529 89.0299 120.275 98.782 119.399C102.762 119.041 106.743 120.096 110.723 120.096C114.704 120.096 119.242 118.663 120.953 115.02C121.721 112.804 122.026 110.453 121.849 108.114C122.147 91.098 133.432 75.5344 148.219 67.2153C163.007 58.8961 180.759 57.2641 197.557 59.4733C214.354 61.6824 230.435 67.4342 246.297 73.4049" fill="#BF5936"></path> <path d="M328.415 205.476C327.73 207.275 326.755 208.949 325.529 210.432C323.281 213.397 320.434 215.854 317.173 217.644C313.911 219.434 310.309 220.517 306.602 220.821C306.363 209.099 302.9 186.689 313.687 179.623C325.967 171.583 332.097 195.346 328.415 205.476Z" fill="#E5C7C1"></path> <path d="M319.856 205.357C319.422 206.465 318.817 207.499 318.065 208.422C316.67 210.259 314.903 211.781 312.88 212.889C310.856 213.997 308.622 214.665 306.323 214.85C306.183 207.606 304.034 193.714 310.721 189.336C318.324 184.36 322.125 199.068 319.856 205.357Z" fill="#D6B6B2"></path> <path d="M145.413 205.476C146.113 207.268 147.086 208.939 148.299 210.432C150.551 213.397 153.401 215.855 156.666 217.645C159.93 219.435 163.535 220.517 167.246 220.821C167.465 209.099 170.948 186.689 160.161 179.623C147.881 171.583 141.751 195.346 145.413 205.476Z" fill="#E5C7C1"></path> <path d="M153.991 205.357C154.425 206.465 155.029 207.499 155.782 208.422C157.177 210.259 158.944 211.781 160.967 212.889C162.991 213.997 165.225 214.665 167.524 214.85C167.663 207.606 169.813 193.714 163.126 189.336C155.523 184.36 151.722 199.068 153.991 205.357Z" fill="#D6B6B2"></path> <path d="M210.394 336.135C226.501 337.161 242.673 336.023 258.478 332.751C256.886 313.366 257.184 293.862 257.483 274.418C245.243 275.333 218.514 262.476 210.175 274.418C206.354 279.871 210.892 336.174 210.394 336.135Z" fill="#E2B2AF"></path> <path d="M162.31 203.805C167.963 236.126 171.466 248.366 197.537 272.985C203.727 278.836 223.132 288.907 232.506 288.389C255.672 287.255 281.704 267.85 292.213 252.048C302.721 236.245 307.975 218.532 311.637 200.819C316.772 176.001 318.762 150.307 312.035 125.748C309.687 117.11 306.064 108.453 299.158 101.706C292.252 94.9592 281.923 90.4215 271.634 87.1575C253.637 81.5758 234.867 78.8887 216.027 79.1966C202.672 79.3757 180.879 89.6652 171.127 98.661C162.271 106.821 160.519 121.33 160.38 131.938C160.022 150.347 159.126 185.514 162.31 203.805Z" fill="#EFBFB9"></path> <path d="M266.578 193.396C269.447 193.396 271.772 191.07 271.772 188.201C271.772 185.332 269.447 183.007 266.578 183.007C263.709 183.007 261.383 185.332 261.383 188.201C261.383 191.07 263.709 193.396 266.578 193.396Z" fill="#738452"></path> <path d="M202.732 188.201C202.732 189.228 202.427 190.233 201.856 191.087C201.286 191.941 200.474 192.607 199.525 193C198.576 193.393 197.532 193.496 196.524 193.296C195.516 193.095 194.591 192.601 193.864 191.874C193.138 191.148 192.643 190.222 192.443 189.214C192.242 188.207 192.345 187.162 192.738 186.213C193.131 185.264 193.797 184.453 194.651 183.882C195.506 183.311 196.51 183.007 197.537 183.007C198.915 183.007 200.236 183.554 201.21 184.528C202.184 185.502 202.732 186.823 202.732 188.201Z" fill="#738452"></path> <path d="M219.21 224.184C218.733 227.329 218.514 231.051 220.862 233.2C222.853 235.071 226.057 234.912 228.823 234.653C228.147 227.528 227.41 199.008 226.136 192.48C222.534 202.551 220.842 213.716 219.21 224.184Z" fill="#E8AAA6"></path> <path d="M206.592 244.465C225.878 265.661 251.114 244.604 252.228 241.28" stroke="#C99085" stroke-width="0.9" stroke-linecap="round" stroke-linejoin="round"></path> <path d="M279.096 228.801C288.879 228.801 296.809 220.871 296.809 211.088C296.809 201.306 288.879 193.375 279.096 193.375C269.314 193.375 261.383 201.306 261.383 211.088C261.383 220.871 269.314 228.801 279.096 228.801Z" fill="#E8AAA6"></path> <path d="M185.018 228.801C194.801 228.801 202.731 220.871 202.731 211.088C202.731 201.306 194.801 193.375 185.018 193.375C175.236 193.375 167.305 201.306 167.305 211.088C167.305 220.871 175.236 228.801 185.018 228.801Z" fill="#E8AAA6"></path> <path d="M255.671 165.751C258.892 164.263 262.452 163.663 265.983 164.013C269.514 164.362 272.887 165.65 275.753 167.742" stroke="#C66A54" stroke-linecap="round" stroke-linejoin="round"></path> <path d="M207.568 165.751C204.347 164.263 200.787 163.663 197.257 164.013C193.726 164.362 190.353 165.65 187.487 167.742" stroke="#C66A54" stroke-linecap="round" stroke-linejoin="round"></path> <path d="M147.841 326.741C168.938 321.248 174.212 323.099 196.005 323.377C229.839 323.815 263.673 322.104 297.506 324.153C305.297 324.403 313.035 325.532 320.573 327.517C334.743 331.696 346.824 341.09 357.253 351.559C363.403 357.748 369.393 364.953 370.349 373.611C329.23 387.283 285.286 389.393 241.959 390.627C195.706 391.96 152.916 390.766 97.4688 379.283C96.7324 379.143 98.9217 339.518 147.841 326.741Z" fill="#E76B15"></path> <path d="M206.931 343.22C214.234 350.779 222.397 357.458 231.251 363.122C233.559 364.835 236.251 365.956 239.093 366.386C244.407 366.784 248.885 362.724 252.586 358.883C262.697 348.355 272.489 336.811 277.623 323.278C250.437 322.621 223.211 323.636 196.024 323.278H191.606C192.521 329.925 202.811 338.961 206.931 343.22Z" fill="#E2B2AF"></path> <path d="M193.656 280.169C198.453 287.115 203.329 294.24 205.598 302.36C207.866 310.481 207.25 319.954 201.816 326.422C197.06 332.055 189.636 334.503 183.128 337.986C180.546 339.168 178.342 341.041 176.759 343.399C174.132 348.096 176.401 354.086 179.605 358.405C182.81 362.724 187.009 366.545 188.701 371.66C189.548 374.569 189.665 377.643 189.04 380.607C188.415 383.572 187.068 386.337 185.118 388.657C181.137 393.27 175.754 396.45 169.793 397.712C162.907 399.364 154.648 399.563 150.508 405.335C146.05 411.544 149.334 420.281 153.613 426.65C147.065 426.849 140.139 425.217 135.422 420.679C130.706 416.142 128.974 408.201 132.696 402.767C135.442 398.787 140.995 395.662 140.119 390.826C139.735 389.543 139.065 388.363 138.158 387.377C137.251 386.391 136.132 385.624 134.885 385.134C126.924 380.954 117.49 380.616 108.554 379.163C99.6181 377.71 90.1248 374.506 85.3284 366.824C83.3688 363.565 82.4091 359.802 82.5683 356.002C82.7275 352.202 83.9986 348.533 86.2239 345.449C89.6073 340.911 95.0805 337.786 96.8916 332.413C98.7027 327.039 96.0358 320.87 94.2048 315.277C92.7097 310.659 91.8004 305.872 91.498 301.027C91.0992 296.002 91.6736 290.947 93.1897 286.14C98.0061 272.029 113.291 263.472 128.178 262.576C143.065 261.68 157.593 267.014 171.107 273.323" fill="#BF5936"></path> <path d="M198.215 280.169C203.19 287.115 208.166 294.24 210.693 302.36C213.221 310.481 212.425 319.954 206.713 326.422C201.757 332.055 194.035 334.503 187.248 337.986C184.588 339.145 182.301 341.019 180.641 343.399C177.894 348.096 180.263 354.086 183.606 358.405C186.95 362.724 191.308 366.545 193.08 371.66C193.952 374.578 194.066 377.669 193.412 380.643C192.757 383.617 191.355 386.375 189.338 388.657C185.133 393.297 179.554 396.47 173.416 397.712C166.232 399.364 157.634 399.563 153.315 405.335C148.678 411.544 152.121 420.281 156.559 426.65C149.733 426.849 142.628 425.217 137.632 420.679C132.637 416.142 130.905 408.201 134.786 402.767C137.652 398.787 143.424 395.662 142.528 390.826C142.03 388.179 139.543 386.348 137.055 385.134C128.716 380.954 118.944 380.616 109.669 379.163C100.395 377.71 90.4836 374.506 85.4881 366.824C83.4507 363.59 82.4469 359.812 82.6105 355.994C82.7741 352.175 84.0972 348.497 86.4036 345.449C89.9462 340.911 95.6383 337.786 97.5091 332.413C99.3799 327.039 96.6334 320.87 94.7228 315.277C93.1608 310.671 92.2106 305.88 91.8967 301.027C91.4877 295.996 92.0899 290.935 93.668 286.14C98.6834 272.029 114.585 263.472 130.069 262.576C145.553 261.68 160.719 267.014 174.77 273.323" fill="#BF5936"></path> <path d="M189.358 283.812C187.845 295.753 183.208 307.535 174.73 316.053C171.167 319.636 166.948 322.621 163.923 326.681C161.419 330.131 159.861 334.176 159.403 338.415C158.946 342.653 159.605 346.937 161.315 350.842C165.097 359.221 173.854 366.187 172.779 375.322C172.083 381.293 167.326 385.771 162.828 389.731L153.036 398.429" stroke="#C66A54" stroke-linecap="round" stroke-linejoin="round"></path> <path d="M199.886 294.101C200.559 301.639 199.282 309.224 196.176 316.125C193.071 323.026 188.241 329.012 182.153 333.508" stroke="#C66A54" stroke-linecap="round" stroke-linejoin="round"></path> <path d="M292.57 260.267C289.272 263.337 286.678 267.085 284.967 271.253C282.181 279.831 287.097 289.484 284.35 298.082C282.635 302.758 279.322 306.677 274.996 309.147C270.696 311.573 266.127 313.49 261.383 314.859" stroke="#C66A54" stroke-width="0.79" stroke-linecap="round" stroke-linejoin="round"></path> <path d="M292.352 296.091C292.706 299.293 292.422 302.533 291.516 305.624C291.053 307.169 290.199 308.567 289.039 309.686C287.878 310.805 286.449 311.606 284.889 312.013" stroke="#C66A54" stroke-linecap="round" stroke-linejoin="round"></path> <path d="M100.454 147.342C95.1397 149.014 89.0894 151.322 87.5171 156.756C85.4274 163.821 92.6917 170.289 93.4878 177.633C94.2839 184.977 88.7511 190.928 82.9396 195.088C77.1282 199.247 70.441 202.571 66.4606 208.482C64.2699 211.841 63.1035 215.766 63.1035 219.776C63.1035 223.787 64.2699 227.711 66.4606 231.071" stroke="#C66A54" stroke-linecap="round" stroke-linejoin="round"></path> <path d="M105.768 171.981C106.902 174.395 107.342 177.077 107.039 179.726C106.737 182.376 105.705 184.89 104.057 186.987C102.285 189.176 99.8572 190.808 98.0859 192.958C95.7425 196.629 94.5696 200.925 94.7224 205.277C94.4762 207.05 94.8791 208.853 95.8568 210.352" stroke="#C66A54" stroke-linecap="round" stroke-linejoin="round"></path> <path d="M158.529 247.291C152.558 253.5 143.244 258.217 142.926 266.795C142.547 277.045 155.524 282.538 159.066 292.17C159.922 294.963 160.166 297.907 159.782 300.802C159.397 303.698 158.393 306.476 156.837 308.948C153.7 313.868 149.866 318.306 145.453 322.123L134.606 332.453C129.83 337.01 124.914 341.767 122.406 347.877C119.899 353.987 120.416 361.808 125.531 366.127C129.512 369.451 135.064 369.809 139.98 371.381C144.896 372.954 149.931 377.252 148.916 382.308" stroke="#C66A54" stroke-linecap="round" stroke-linejoin="round"></path> <path d="M171.008 264.825C170.033 264.228 168.898 265.283 168.301 266.258C166.033 269.92 164.659 274.637 166.59 278.498C167.995 280.658 169.63 282.66 171.466 284.469C173.279 286.771 174.41 289.536 174.73 292.449C175.051 295.362 174.547 298.306 173.277 300.948" stroke="#C66A54" stroke-linecap="round" stroke-linejoin="round"></path> <path d="M98.8412 284.667L90.8803 296.31C88.9544 298.85 87.3749 301.634 86.1834 304.59C85.5326 306.199 85.3666 307.963 85.7058 309.665C86.1563 311.198 87.0245 312.577 88.2134 313.645C90.8193 315.799 93.5873 317.748 96.4928 319.477C97.9389 320.354 99.1969 321.51 100.194 322.876C101.192 324.242 101.909 325.793 102.304 327.437" stroke="#C66A54" stroke-linecap="round" stroke-linejoin="round"></path> <path d="M104.912 354.843C103.975 356.886 103.553 359.128 103.685 361.371C103.816 363.615 104.496 365.793 105.665 367.712C106.834 369.632 108.457 371.236 110.39 372.382C112.323 373.528 114.509 374.183 116.754 374.287" stroke="#C66A54" stroke-linecap="round" stroke-linejoin="round"></path> <path d="M151.544 231.747C146.25 231.866 142.07 236.145 138.727 240.265C136.438 242.882 134.51 245.794 132.995 248.923C131.476 252.087 131.082 255.675 131.88 259.093C132.06 259.69 132.557 260.426 133.134 260.167" stroke="#C66A54" stroke-linecap="round" stroke-linejoin="round"></path> <path d="M244.566 125.748C239.849 125.748 234.615 126.962 232.246 131.102C229.52 136.057 232.565 142.466 230.674 147.8C229.162 152.118 224.703 154.785 220.126 155.561C215.566 156.029 210.962 155.848 206.453 155.024C199.169 154.168 191.546 153.949 184.799 156.775C178.053 159.602 172.36 166.11 172.559 173.434C172.818 183.086 182.69 191.127 181.177 200.66C180.421 205.397 176.918 209.258 173.216 212.183C162.429 220.562 148.557 223.766 136.775 230.633C124.993 237.499 114.704 251.072 119.062 263.989C123.64 277.522 141.253 282.379 147.702 295.136C149.52 298.859 150.282 303.01 149.907 307.136C149.531 311.262 148.032 315.207 145.572 318.541C140.079 325.805 129.65 330.88 129.929 339.996C130.208 349.111 143.025 353.828 151.543 349.947C150.985 355.241 143.801 356.256 138.507 355.798C128.337 354.942 117.629 353.808 109.33 347.956C101.031 342.105 96.6324 329.388 102.902 321.347C104.753 318.979 107.36 317.208 108.872 314.6C112.853 307.873 107.599 299.256 101.13 294.957C94.6621 290.658 86.741 288.528 81.1285 283.155C74.0831 276.468 72.0531 266.158 71.0182 256.506C69.7644 244.763 69.9833 231.489 78.2029 223.01C83.9149 217.039 92.2937 214.83 99.9362 211.805C107.579 208.78 115.54 203.844 117.629 195.883C119.241 189.654 116.853 183.186 114.564 177.175C109.051 162.647 103.877 147.322 105.867 131.858C107.857 116.394 119.221 101.149 134.705 99.8351C141.293 99.2779 149.214 100.731 153.394 95.6357C154.892 93.4448 155.891 90.9513 156.319 88.3316C158.894 78.0016 162.717 68.0234 167.703 58.6176C170.184 53.3088 173.822 48.6232 178.351 44.9049C188.422 37.5013 202.612 39.5313 214.175 44.0889C217.431 45.6576 220.931 46.6604 224.524 47.0543C228.505 47.2136 232.485 45.5816 236.466 44.6064C244.318 42.8193 252.531 43.5203 259.967 46.6123C267.403 49.7043 273.692 55.0338 277.962 61.8616C285.923 74.9971 283.534 92.2524 277.464 105.647C275.128 110.312 271.989 114.529 268.19 118.105C260.507 126.086 255.034 125.887 244.566 125.748Z" fill="#CE673E"></path> <path d="M275.913 103.835C273.251 108.852 272.431 114.643 273.594 120.202C274.757 125.761 277.831 130.737 282.282 134.266C285.028 136.256 288.252 137.888 290.103 140.814C294.382 147.859 287.178 156.994 289.247 164.955C290.84 171.085 297.208 174.429 301.447 179.106C304.742 182.893 306.769 187.616 307.243 192.612C307.718 197.609 306.617 202.629 304.094 206.969C299.835 213.955 291.675 219.428 291.695 227.607C291.695 233.101 295.676 237.797 299.855 241.3C304.035 244.803 308.931 247.709 312.155 252.167C315.379 256.625 316.394 263.332 312.613 267.312C310.224 269.86 306.363 270.815 304.433 273.721C301.507 278.179 304.91 284.249 309.289 287.274C310.625 288.065 311.855 289.021 312.951 290.12C313.837 291.176 314.382 292.475 314.513 293.847C314.645 295.219 314.357 296.598 313.687 297.803C312.973 298.981 311.922 299.919 310.67 300.494C309.417 301.068 308.021 301.254 306.662 301.027C311.359 300.609 316.394 300.072 319.897 296.927C323.4 293.782 323.877 287.075 319.718 284.986C318.464 284.329 316.971 284.19 315.737 283.453C312.732 281.602 312.971 276.846 315.22 274.119C317.469 271.392 320.952 270.139 324.156 268.606C330.127 265.82 336.356 261.083 336.754 254.456C337.132 248.286 332.196 242.932 326.664 240.226C323.26 238.574 319.399 237.499 316.951 234.633C313.17 230.254 314.304 223.368 317.29 218.413C322.007 210.571 330.266 205.655 336.475 198.948C342.685 192.241 346.705 181.454 341.152 174.17C336.575 168.199 327.022 166.766 323.997 159.84C322.007 155.183 323.778 149.71 326.584 145.471C329.39 141.232 333.152 137.629 335.52 133.151C340.854 123.2 336.774 108.512 326.146 104.472C323.479 103.457 320.474 103.039 318.305 101.188C313.23 96.8895 316.056 88.7495 315.319 82.122C314.284 72.6287 305.468 66.0808 297.009 61.6824C292.594 59.1193 287.719 57.449 282.66 56.7666C280.129 56.448 277.558 56.7288 275.155 57.5861C272.753 58.4435 270.585 59.8534 268.828 61.7023C264.549 66.7376 264.847 74.1213 265.603 80.709C266.041 85.3396 266.492 89.9834 266.957 94.6406" fill="#CE673E"></path> <path d="M266.28 82.6992C266.817 87.7345 267.275 93.1877 264.608 97.4866C260.13 104.711 249.841 104.731 241.362 104.114C232.884 103.497 222.435 104.114 218.654 111.697C214.673 119.757 220.644 131.778 213.519 137.351C208.922 140.973 202.294 138.744 196.443 138.485C189.398 138.207 182.651 141.073 176.302 144.137C170.896 146.466 165.897 149.644 161.495 153.551C159.306 155.523 157.542 157.92 156.311 160.596C155.079 163.271 154.405 166.17 154.33 169.115C154.589 178.389 162.43 188.161 157.375 195.943C155.636 198.269 153.326 200.106 150.668 201.277C141.473 206.053 131.223 208.82 122.805 214.79C104.594 227.627 99.2205 255.491 111.341 274.179C115.68 280.886 121.79 286.279 126.288 292.887C130.785 299.494 133.552 308.192 130.268 315.456C128.282 318.98 125.78 322.187 122.844 324.969C120.138 327.975 117.63 331.497 117.391 335.518C117.152 339.538 120.138 343.996 124.178 343.916" stroke="#DB765A" stroke-miterlimit="10"></path> <path d="M253.045 71.6338C257.304 77.286 252.747 85.9634 246.239 88.7298C239.731 91.4962 232.307 90.3817 225.262 89.924C219.039 89.2395 212.742 90.0164 206.872 92.1928C201.16 94.6408 196.224 99.7358 195.468 105.925C194.652 112.453 198.334 119.618 195.149 125.37C191.965 131.122 184.124 131.739 177.536 131.918C165.907 132.218 154.314 133.349 142.846 135.301C136.876 136.336 130.208 137.968 126.765 143.043C123.322 148.118 124.298 155.243 126.865 160.955C129.432 166.667 133.353 171.663 135.582 177.474C137.811 183.285 137.99 190.59 133.592 195.068C131.701 197.058 129.154 198.232 127.422 200.302C125.691 202.372 125.253 206.014 127.522 207.467" stroke="#DB765A" stroke-miterlimit="10"></path> <path d="M227.391 60.7273C227.511 62.2484 227.246 63.7753 226.62 65.1668C225.994 66.5583 225.027 67.7694 223.809 68.6882C221.335 70.5035 218.518 71.7968 215.529 72.4895C210.809 73.8204 205.991 74.7786 201.12 75.3554C196.324 75.9127 191.308 76.1316 187.049 78.4005C184.288 79.9442 182.036 82.259 180.57 85.0619C179.103 87.8648 178.484 91.0343 178.79 94.183C179.228 98.1634 181.098 101.845 180.78 105.746C180.183 111.717 174.411 115.956 168.6 117.349C162.788 118.742 156.659 118.086 150.688 118.563C143.787 119.087 137.087 121.126 131.064 124.534C127.561 126.524 123.979 130.903 126.467 134.067" stroke="#DB765A" stroke-miterlimit="10"></path> <path d="M91.5782 243.37C89.588 253.142 87.8764 263.89 92.7724 272.567C96.3747 278.916 102.883 282.916 108.396 287.693C113.909 292.469 118.864 299.296 117.491 306.461C116.604 309.433 115.493 312.334 114.167 315.138C113.132 318.064 112.874 321.606 114.844 323.994" stroke="#DB765A" stroke-miterlimit="10"></path> <path d="M297.127 79.4551C302.501 81.7239 303.854 88.63 304.033 94.4614C304.213 100.293 304.292 106.98 308.75 110.741C312.731 114.045 318.701 113.866 322.543 117.11C326.861 120.693 327.299 127.36 325.468 132.674C323.637 137.988 320.035 142.486 317.328 147.401C314.621 152.317 312.751 158.268 314.741 163.522C318.005 172.12 330.324 175.961 330.882 185.136C331.18 189.952 327.936 194.192 324.672 197.734C319.119 203.705 312.91 209.476 309.328 216.86C305.745 224.244 305.526 234.056 311.318 239.847C314.263 242.793 318.701 244.723 319.836 248.764" stroke="#DB765A" stroke-miterlimit="10"></path> <path d="M289.227 104.134C288.556 106.262 288.399 108.519 288.769 110.719C289.139 112.919 290.026 115.001 291.356 116.792C294.879 121.469 301.128 123.698 304.014 128.733C307.537 134.903 304.83 142.665 302.482 149.292C300.133 155.92 298.501 164.378 303.556 169.433C305.785 171.682 308.91 172.777 311.517 174.688C313.109 176.009 314.418 177.638 315.365 179.478C316.311 181.318 316.875 183.33 317.024 185.394C317.173 187.457 316.903 189.53 316.23 191.486C315.557 193.443 314.496 195.243 313.109 196.779" stroke="#DB765A" stroke-miterlimit="10"></path> </g> </svg> 