<?xml version="1.0" encoding="UTF-8"?> <svg xmlns="http://www.w3.org/2000/svg" width="78" height="105" viewBox="0 0 78 105" fill="none"> <path d="M76.7735 71.044L76.6723 70.9215C76.3711 70.5459 75.8499 70.1702 73.924 68.8577C73.1864 68.3537 72.0146 67.5569 71.5711 67.215C71.5534 66.7577 71.7005 65.85 71.7687 65.4324L71.8405 64.9855C72.1005 63.2577 70.4381 58.836 69.4805 57.3088C69.2817 56.9927 67.4887 54.2545 63.9405 51.5723C63.9028 46.1333 60.3675 43.3216 57.711 42.2798C57.1087 38.9443 55.4487 36.4406 53.6804 35.0522C54.2969 33.2311 54.4534 31.2769 54.1075 29.3332C54.0204 28.8432 53.8922 28.3672 53.7475 27.8994C53.7381 27.8364 53.7345 27.7745 53.7192 27.7115C52.5839 23.3155 55.2663 18.8262 59.6981 17.7027C61.3263 17.2897 63.0169 17.5288 64.464 18.3782C65.9111 19.2275 66.9358 20.5844 67.3523 22.199C67.9923 24.6817 66.477 27.218 63.9722 27.8539C63.0899 28.0767 62.1746 27.9472 61.3922 27.4887C60.611 27.029 60.0557 26.2964 59.831 25.4214C59.6734 24.8112 59.7652 24.1765 60.0887 23.6352C60.4122 23.0927 60.931 22.7089 61.5452 22.5514C62.4687 22.318 63.0264 21.3859 62.7899 20.47C62.5558 19.5554 61.6205 19 60.691 19.2357C59.1816 19.6172 57.9146 20.561 57.1204 21.8887C56.3263 23.2164 56.1016 24.7739 56.4875 26.2684C56.9404 28.0289 58.0581 29.5071 59.6346 30.4334C60.7063 31.0634 61.904 31.3854 63.1181 31.3854C63.6887 31.3854 64.264 31.3131 64.8311 31.1696C69.1781 30.0671 71.8111 25.6605 70.697 21.3497C70.0523 18.8483 68.464 16.7483 66.224 15.4323C65.484 14.9972 64.7005 14.6763 63.8946 14.45C65.2275 12.7805 65.904 10.6012 65.5864 8.33081C65.2264 5.77463 63.8864 3.50896 61.8075 1.95379C59.731 0.398616 57.1722 -0.26172 54.591 0.0941142C50.1051 0.714783 46.5663 3.79013 45.1474 7.75798C44.6616 7.27614 44.138 6.82814 43.5627 6.42914C41.431 4.94863 38.8427 4.38046 36.2827 4.82846C33.8274 5.2578 31.6815 6.57847 30.1932 8.54781C28.9403 5.9158 26.785 3.86479 24.0532 2.75296C21.6461 1.77295 18.9991 1.78112 16.5979 2.77629C14.1967 3.77146 12.3296 5.63463 11.3402 8.02164C10.5143 10.0155 10.5214 12.21 11.359 14.1992C12.1979 16.1883 13.7661 17.7353 15.7767 18.5532C16.6179 18.895 17.4991 19.0654 18.3814 19.0654C18.4108 19.0654 18.4402 19.0572 18.4708 19.056C18.4261 19.1027 18.3767 19.1435 18.332 19.1902C17.492 20.0909 16.8908 21.149 16.5367 22.2865C15.5991 21.4839 14.5332 20.8189 13.3555 20.3347C10.9531 19.3465 8.30372 19.3465 5.899 20.3335C3.49428 21.3217 1.62133 23.1779 0.624856 25.5602C-0.208089 27.5529 -0.20809 29.7474 0.623679 31.7389C1.45545 33.7304 3.01899 35.2821 5.02723 36.1081C5.39429 36.2586 5.77194 36.3624 6.15194 36.4476C2.80604 39.2453 1.66604 44.0449 3.68958 48.1085C5.10841 50.9528 7.99901 52.6025 11.0002 52.6025C12.2096 52.6025 13.4379 52.3353 14.5932 51.7683C16.2355 50.9645 17.4626 49.5726 18.0497 47.853C18.6367 46.1321 18.5132 44.2888 17.7026 42.6624C17.0132 41.2764 15.8202 40.2416 14.3449 39.7458C12.8696 39.2499 11.2884 39.3549 9.89079 40.0386C9.03666 40.4574 8.68608 41.4841 9.10843 42.3311C9.53079 43.1793 10.5649 43.5269 11.4202 43.1081C11.9896 42.8293 12.6355 42.7873 13.2367 42.9879C13.839 43.1898 14.3249 43.6121 14.6073 44.1791C15.0096 44.9853 15.072 45.9023 14.779 46.7563C14.4861 47.6103 13.8779 48.301 13.0626 48.7C10.7449 49.8351 7.92725 48.8901 6.78253 46.5929C5.24606 43.5083 6.52606 39.7598 9.63667 38.2349C11.6226 37.2607 13.872 37.1126 15.9708 37.8184C18.0697 38.5231 19.7661 39.9966 20.7473 41.9671C20.8261 42.1258 20.932 42.2599 21.0497 42.3824C21.045 42.9518 21.0826 43.5293 21.1838 44.1103C21.8697 48.0303 25.3179 50.8046 29.2015 50.8046C29.6615 50.8046 30.1262 50.765 30.5944 50.6845C31.538 50.5223 32.4027 50.1735 33.1591 49.6846C33.185 51.3845 33.3662 53.2266 33.7638 55.0198C32.2897 57.3975 29.1544 63.365 30.5615 69.0945C30.5615 69.0969 30.5615 69.0992 30.5615 69.0992C32.2391 79.6086 38.6098 85.5049 40.7039 87.4428C40.8039 87.5349 40.8921 87.6154 40.9662 87.6843C41.0204 88.0238 41.0439 88.6584 40.7945 89.4191L40.7286 89.6233C39.3898 93.8408 35.5815 97.9533 29.4074 101.845C28.6026 102.352 28.365 103.41 28.8768 104.207C29.2062 104.72 29.7638 105 30.3356 105C30.6521 105 30.9732 104.915 31.2603 104.733C41.6274 98.1995 43.4298 92.5166 44.0216 90.6499L44.078 90.4784C44.6498 88.7296 44.4863 87.1418 44.1392 86.2364C43.9639 85.7768 43.6792 85.5154 43.0592 84.9414C41.3062 83.3174 36.2156 78.6006 34.3286 70.386C44.7945 69.3489 57.2534 64.3007 62.7946 55.0385C65.2711 57.121 66.4911 59.0215 66.5499 59.1148C67.3746 60.4332 68.437 63.8013 68.4252 64.4803L68.3617 64.8887C68.1123 66.4252 67.8299 68.1694 68.7734 69.2882C69.1523 69.7397 69.9946 70.3324 71.9711 71.6787C72.7276 72.1944 73.7499 72.892 74.0393 73.1335L74.1099 73.2187C74.4088 73.5792 74.5335 73.7612 74.5488 73.9549C74.5064 74.005 74.437 74.0692 74.4229 74.0797C74.3017 74.1287 73.8417 74.2711 73.4358 74.3854C72.7758 74.5686 72.2876 75.1216 72.1935 75.7936L72.037 76.8914C71.9699 77.3604 72.104 77.8294 72.3923 78.1899C71.9123 78.4804 71.3299 78.8199 70.8111 79.1092C70.1287 79.4919 69.7923 80.2829 69.9923 81.0342C70.1911 81.7867 70.8782 82.3106 71.6617 82.3106C72.2464 82.3106 72.8923 82.3351 73.2535 82.3619C72.7887 83.1249 72.3429 84.8306 72.6499 85.9786C72.784 86.4756 72.9993 87.3156 73.0676 87.5863C73.0582 87.6399 72.9664 87.9771 72.2546 88.2443C71.6146 88.4858 70.4111 88.6666 69.2464 88.8416C66.5299 89.2511 63.7228 89.6734 62.2028 91.2683C60.5122 93.0416 53.7898 99.3171 53.7216 99.3801C53.0275 100.03 52.9934 101.111 53.6475 101.8C53.9875 102.159 54.4451 102.339 54.904 102.339C55.3287 102.339 55.7546 102.185 56.0863 101.874C56.3663 101.613 62.9522 95.466 64.7111 93.6203C65.4158 92.8806 68.0334 92.4863 69.7652 92.2261C71.1699 92.015 72.497 91.8155 73.4793 91.4456C76.3217 90.3746 76.6699 88.0238 76.457 86.9306C76.4511 86.8991 76.4429 86.8676 76.4358 86.8373C76.4358 86.8373 76.1488 85.7091 75.9994 85.1666C75.9758 84.9414 76.1135 84.3196 76.1782 84.1749C76.6217 83.5123 76.7511 82.8356 76.7817 82.6431C76.7888 82.5952 76.7947 82.5462 76.7982 82.4984C76.8535 81.6572 76.7052 80.6282 75.8911 79.8746C75.9899 79.7544 76.0417 79.6552 76.0958 79.5514C76.5123 78.7487 76.4982 77.8341 76.0817 77.0746C76.7923 76.6674 77.7923 75.7772 77.9794 74.3912C78.15 72.6995 77.2194 71.5807 76.7735 71.044ZM54.3475 43.0649C49.5675 48.3558 40.7227 51.8406 36.905 53.1636C36.5286 50.8583 36.5403 48.5471 36.7168 46.7796C43.698 45.5849 49.1686 41.9181 52.1098 38.2478C53.0428 39.2196 53.9863 40.8459 54.3475 43.0649ZM39.5945 36.3461C40.6286 36.6681 41.7321 36.7451 42.831 36.5526C44.6357 36.2364 46.2074 35.2436 47.258 33.7561C48.1498 32.4914 48.4933 30.9584 48.2227 29.4371C47.9522 27.9146 47.1004 26.5904 45.8251 25.7049C45.0439 25.1624 43.9686 25.3525 43.4215 26.1249C42.8745 26.8995 43.0639 27.9659 43.8451 28.5084C44.3651 28.8701 44.7121 29.4102 44.8227 30.0309C44.9333 30.6516 44.7933 31.2769 44.4286 31.7937C43.9086 32.5334 43.1274 33.0269 42.2321 33.1821C41.3368 33.3372 40.4321 33.1401 39.6839 32.6232C38.6592 31.9116 37.9745 30.8464 37.7568 29.6237C37.5392 28.3999 37.8156 27.1679 38.5345 26.1494C39.498 24.7844 40.9415 23.8732 42.5968 23.5839C44.2463 23.2957 45.9192 23.6609 47.298 24.6187C49.1122 25.8787 50.3228 27.7629 50.7063 29.9271C51.091 32.0912 50.6028 34.2741 49.331 36.0754C49.251 36.1897 49.191 36.3111 49.1416 36.4359C47.6286 38.2139 45.3369 40.0211 42.4639 41.3966C41.9521 39.4821 40.9674 37.7566 39.5945 36.3461ZM34.8591 31.9046C35.145 32.5906 35.518 33.2334 35.9803 33.8132C35.405 33.5519 34.8097 33.3489 34.2039 33.1844C34.4544 32.7691 34.6662 32.3397 34.8591 31.9046ZM55.0663 3.48446C56.731 3.25229 58.384 3.68046 59.7263 4.6838C61.0675 5.6883 61.9334 7.15131 62.1663 8.80098C62.5216 11.3397 60.7287 13.6928 58.1699 14.0463C57.271 14.17 56.3746 13.939 55.6475 13.3965C54.9216 12.8528 54.4522 12.0618 54.3275 11.1682C54.2404 10.5452 54.4016 9.92448 54.7863 9.42165C55.1687 8.91765 55.7275 8.59331 56.3557 8.50698C57.3004 8.37748 57.9581 7.51181 57.8275 6.57614C57.6969 5.64047 56.8169 4.9883 55.8804 5.11663C54.3369 5.33013 52.971 6.1258 52.0322 7.35897C51.0934 8.59214 50.6945 10.1123 50.9098 11.6407C51.1628 13.4397 52.1063 15.0333 53.5687 16.1288C53.8228 16.319 54.0922 16.48 54.3663 16.6317C52.4298 18.1938 51.0392 20.3277 50.4039 22.7089C50.0486 22.3927 49.6792 22.0882 49.2816 21.8117C48.7157 21.4185 48.1157 21.0942 47.4933 20.8317C48.4886 18.6944 48.8133 16.3143 48.3933 13.9472C48.2922 13.3767 48.1369 12.826 47.9569 12.2847C47.6063 7.98198 50.6992 4.0888 55.0663 3.48446ZM32.8191 10.7657C33.7827 9.40065 35.225 8.48948 36.8803 8.20014C38.5356 7.90964 40.2062 8.27714 41.5827 9.23498C42.9486 10.1823 43.971 11.4843 44.558 12.9928C44.5674 13.0768 44.5686 13.1585 44.5804 13.2425C44.6168 13.505 44.7169 13.7418 44.8557 13.9472C44.9063 14.1443 44.9569 14.3415 44.9921 14.5445C45.3345 16.466 44.9839 18.4015 44.011 20.0722C43.3451 20.0512 42.671 20.0955 42.0004 20.2122C39.4345 20.6602 37.2003 22.0719 35.7086 24.1859C35.645 24.2769 35.5909 24.3725 35.5321 24.4647C35.238 23.256 34.7391 22.0917 34.0556 21.0125C35.038 21.2902 36.078 21.3532 37.1156 21.17C38.9203 20.8539 40.4933 19.861 41.5427 18.3747C43.3863 15.7637 42.7439 12.1517 40.1098 10.3223C39.3286 9.77865 38.2521 9.96765 37.7062 10.7412C37.1592 11.5147 37.3486 12.5822 38.1286 13.1247C39.2039 13.8713 39.4651 15.3448 38.7133 16.4112C38.1921 17.1497 37.4121 17.6432 36.5156 17.7983C35.6203 17.9558 34.7156 17.7575 33.9709 17.2395C31.8533 15.7695 31.3368 12.8645 32.8191 10.7657ZM21.5438 7.30064C20.6614 6.94247 19.6544 7.36014 19.2908 8.23398C18.9285 9.10898 19.3497 10.1077 20.232 10.4682C21.445 10.9617 22.0261 12.3418 21.5285 13.547C21.1838 14.38 20.532 15.0298 19.692 15.3775C18.8532 15.7263 17.9273 15.7287 17.0849 15.3857C15.9273 14.9155 15.0249 14.0242 14.5414 12.8797C14.0579 11.734 14.0543 10.4705 14.5308 9.32248C15.1685 7.78014 16.3743 6.57614 17.9249 5.93447C19.4744 5.2928 21.185 5.28697 22.7391 5.92047C24.7885 6.75464 26.3873 8.32964 27.2403 10.3573C28.0438 12.266 28.0874 14.3555 27.3885 16.291C26.2462 16.067 25.0744 16.0448 23.9285 16.2268C24.2379 15.7987 24.5144 15.3448 24.7203 14.8455C25.9426 11.8962 24.5167 8.51165 21.5438 7.30064ZM13.0532 33.9707C13.4202 33.4994 13.7485 32.9966 13.9849 32.4319C15.2155 29.4861 13.8014 26.0957 10.832 24.8742C9.95196 24.5137 8.94137 24.9279 8.57666 25.7994C8.21196 26.6732 8.6296 27.6742 9.50961 28.0371C10.7214 28.5352 11.299 29.9177 10.7955 31.1206C10.4484 31.9536 9.79314 32.6022 8.95314 32.9464C8.11195 33.2917 7.18724 33.2917 6.34724 32.9464C5.19076 32.4716 4.28958 31.5779 3.81076 30.4311C3.33193 29.2842 3.33193 28.0207 3.81193 26.8727C4.45429 25.3339 5.66488 24.1345 7.21783 23.4964C8.7696 22.8594 10.479 22.8594 12.0332 23.4975C14.079 24.3387 15.6732 25.9195 16.5202 27.9484C17.3673 29.9784 17.3661 32.2149 16.5179 34.2437C16.4955 34.2951 16.4861 34.3487 16.4696 34.4012C15.3438 34.0897 14.1967 33.9462 13.0532 33.9707ZM22.1708 37.9748C21.4226 37.1184 20.5544 36.3787 19.5873 35.7732C19.6297 35.7032 19.6732 35.6332 19.705 35.5562C20.2155 34.3371 20.4955 33.0631 20.5732 31.7832C21.5426 32.2277 22.6073 32.4471 23.7026 32.3992C25.5332 32.3281 27.2262 31.5546 28.4685 30.2222C29.5262 29.0871 30.0756 27.6147 30.0144 26.07C29.9544 24.5277 29.2921 23.0985 28.1474 22.0509C27.4473 21.4092 26.3556 21.4512 25.7085 22.1454C25.0615 22.8395 25.1038 23.9222 25.8038 24.5639C26.2697 24.9909 26.5403 25.573 26.565 26.2019C26.5897 26.8319 26.365 27.435 25.9332 27.8982C25.3167 28.5586 24.4767 28.9436 23.5685 28.9786C22.6614 29.0101 21.792 28.6951 21.1238 28.0814C20.2038 27.239 19.6708 26.0922 19.6214 24.8509C19.572 23.6107 20.0132 22.4254 20.8638 21.5142C23.2203 18.9884 27.2097 18.8344 29.7556 21.17C31.3815 22.6599 32.325 24.6922 32.4109 26.8855C32.4968 29.0812 31.7156 31.1801 30.2109 32.7924C30.2074 32.7959 30.2074 32.8006 30.2038 32.8041C29.8438 32.8332 29.4838 32.8752 29.1238 32.9371C26.0273 33.4702 23.5332 35.4104 22.1708 37.9748ZM32.2062 45.9291C31.6827 46.6676 30.9003 47.1588 30.005 47.3128C27.4626 47.7491 25.0262 46.0504 24.585 43.5258C23.9944 40.1354 26.2932 36.8991 29.7121 36.3134C31.8944 35.9377 34.0933 36.4289 35.9039 37.6948C37.6156 38.8906 38.7768 40.6476 39.2192 42.6636C38.2686 42.9588 37.2792 43.2073 36.2486 43.3904C36.2309 43.2026 36.2121 43.0148 36.1792 42.8258C35.9133 41.3033 35.0662 39.9756 33.7933 39.0854C32.5203 38.1964 30.9744 37.8534 29.4391 38.1147C28.5003 38.2769 27.8709 39.1624 28.0332 40.0934C28.1956 41.0256 29.0897 41.6498 30.0285 41.4876C30.6568 41.3791 31.2862 41.5203 31.805 41.8831C32.3238 42.2471 32.6697 42.7873 32.778 43.4103C32.9333 44.2969 32.7297 45.1918 32.2062 45.9291ZM33.6933 67.012C33.3038 62.875 35.6497 58.5303 36.6721 56.8597C39.4745 56.1235 50.1428 52.935 56.7263 45.5849C58.1557 46.222 60.6816 47.944 60.4828 52.1171C56.1381 60.8123 44.0592 66.0589 33.6933 67.012Z" fill="#274E9D"></path> </svg> 