<?xml version="1.0" encoding="UTF-8"?> <svg xmlns="http://www.w3.org/2000/svg" width="128" height="105" viewBox="0 0 128 105" fill="none"> <path fill-rule="evenodd" clip-rule="evenodd" d="M64 0C53.2508 0 44.5217 8.6295 44.5217 19.2561C44.5217 29.8828 53.2508 38.5123 64 38.5123C74.7492 38.5123 83.4783 29.8828 83.4783 19.2561C83.4783 8.6295 74.7492 0 64 0ZM64 5.50175C71.68 5.50175 77.913 11.6637 77.913 19.2561C77.913 26.8486 71.68 33.0105 64 33.0105C56.32 33.0105 50.087 26.8486 50.087 19.2561C50.087 11.6637 56.32 5.50175 64 5.50175Z" fill="#274E9D"></path> <path fill-rule="evenodd" clip-rule="evenodd" d="M102.957 5.50175C93.7426 5.50175 86.2609 12.8982 86.2609 22.007C86.2609 31.1159 93.7426 38.5123 102.957 38.5123C112.17 38.5123 119.652 31.1159 119.652 22.007C119.652 12.8982 112.17 5.50175 102.957 5.50175ZM102.957 11.0035C109.099 11.0035 114.087 15.9345 114.087 22.007C114.087 28.0796 109.099 33.0105 102.957 33.0105C96.8139 33.0105 91.8261 28.0796 91.8261 22.007C91.8261 15.9345 96.8139 11.0035 102.957 11.0035Z" fill="#274E9D"></path> <path fill-rule="evenodd" clip-rule="evenodd" d="M25.0435 5.50175C15.8296 5.50175 8.34783 12.8982 8.34783 22.007C8.34783 31.1159 15.8296 38.5123 25.0435 38.5123C34.2574 38.5123 41.7391 31.1159 41.7391 22.007C41.7391 12.8982 34.2574 5.50175 25.0435 5.50175ZM25.0435 11.0035C31.1861 11.0035 36.1739 15.9345 36.1739 22.007C36.1739 28.0796 31.1861 33.0105 25.0435 33.0105C18.9009 33.0105 13.913 28.0796 13.913 22.007C13.913 15.9345 18.9009 11.0035 25.0435 11.0035Z" fill="#274E9D"></path> <path fill-rule="evenodd" clip-rule="evenodd" d="M84.4605 48.8693C87.8998 45.8489 92.4299 44.014 97.3913 44.014H108.522C119.279 44.014 128 52.6353 128 63.2702V85.2772C128 89.8354 124.263 93.5298 119.652 93.5298H94.6087V96.2807C94.6087 98.4704 93.7294 100.569 92.1628 102.115C90.599 103.664 88.4758 104.533 86.2609 104.533C75.5979 104.533 52.4021 104.533 41.7391 104.533C39.5242 104.533 37.401 103.664 35.8372 102.115C34.2706 100.569 33.3913 98.4704 33.3913 96.2807V93.5298H8.34783C3.73704 93.5298 0 89.8354 0 85.2772V63.2702C0 52.6353 8.7207 44.014 19.4783 44.014H30.6087C35.5701 44.014 40.1002 45.8489 43.5395 48.8693C47.7023 45.8186 52.8557 44.014 58.4348 44.014H69.5652C75.1443 44.014 80.2977 45.8186 84.4605 48.8693ZM89.0435 68.7719V96.2807C89.0435 97.0097 88.7513 97.7112 88.2282 98.2256C87.7078 98.7427 86.9983 99.0316 86.2609 99.0316H41.7391C41.0017 99.0316 40.2922 98.7427 39.7718 98.2256C39.2487 97.7112 38.9565 97.0097 38.9565 96.2807V68.7719C38.9565 58.137 47.6772 49.5158 58.4348 49.5158H69.5652C80.3228 49.5158 89.0435 58.137 89.0435 68.7719ZM39.4379 52.6408C37.0365 50.6877 33.9617 49.5158 30.6087 49.5158H19.4783C11.7955 49.5158 5.56522 55.675 5.56522 63.2702V85.2772C5.56522 86.7957 6.81183 88.0281 8.34783 88.0281H33.3913V68.7719C33.3913 62.61 35.6703 56.9734 39.4379 52.6408ZM94.6087 88.0281H119.652C121.188 88.0281 122.435 86.7957 122.435 85.2772V63.2702C122.435 55.675 116.205 49.5158 108.522 49.5158H97.3913C94.0383 49.5158 90.9635 50.6877 88.5621 52.6408C92.3298 56.9734 94.6087 62.61 94.6087 68.7719V88.0281Z" fill="#274E9D"></path> </svg> 