<svg width="25" height="27" viewBox="0 0 25 27" fill="none" xmlns="http://www.w3.org/2000/svg">
<path d="M19.1447 4.23142C18.155 3.0968 17.5601 1.61736 17.5601 0H16.3198C16.6392 1.76781 17.6916 3.28488 19.1447 4.23142Z" fill="white"/>
<path d="M7.66986 13.3713C5.52145 13.3713 3.77393 15.1204 3.77393 17.2705C3.77393 18.7689 4.62577 20.0727 5.86594 20.7246C5.40245 20.0853 5.12685 19.3017 5.12685 18.4491C5.12685 16.2989 6.87437 14.5499 9.02282 14.5499C9.42367 14.5499 9.81197 14.6187 10.1753 14.7316V9.99247C9.79943 9.94226 9.41739 9.91089 9.02282 9.91089C8.95389 9.91089 8.89125 9.91717 8.82234 9.91717V13.553C8.4528 13.4402 8.07071 13.3713 7.66986 13.3713Z" fill="white"/>
<path d="M22.6583 6.31274V9.9173C20.2532 9.9173 18.0234 9.14628 16.2069 7.84233V17.2769C16.2069 21.9848 12.3799 25.8214 7.66966 25.8214C5.85324 25.8214 4.16209 25.2447 2.77783 24.2729C4.33745 25.9467 6.56101 26.9999 9.02263 26.9999C13.7265 26.9999 17.5598 23.1696 17.5598 18.4554V9.02087C19.3762 10.3248 21.606 11.0958 24.0113 11.0958V6.45699C23.5415 6.45699 23.0905 6.40678 22.6583 6.31274Z" fill="white"/>
<path d="M16.2068 17.2768V7.84225C18.0234 9.14621 20.2532 9.91723 22.6583 9.91723V6.31267C21.2678 6.0181 20.0466 5.26582 19.1447 4.23142C17.6915 3.28488 16.6453 1.76781 16.3133 0H12.9185L12.9122 18.5995C12.8371 20.6808 11.1209 22.3547 9.02261 22.3547C7.71974 22.3547 6.57351 21.709 5.85947 20.731C4.61928 20.0728 3.76745 18.7752 3.76745 17.2768C3.76745 15.1267 5.51498 13.3776 7.66337 13.3776C8.06423 13.3776 8.45257 13.4466 8.81587 13.5595V9.92351C4.2059 10.0238 0.485352 13.8102 0.485352 18.4553C0.485352 20.6996 1.35599 22.7433 2.7778 24.2729C4.16206 25.2446 5.8532 25.8213 7.66963 25.8213C12.3735 25.8213 16.2068 21.9848 16.2068 17.2768Z" fill="white"/>
</svg>
