<?xml version="1.0" encoding="UTF-8"?> <svg xmlns="http://www.w3.org/2000/svg" width="9753" height="5209" viewBox="0 0 9753 5209" fill="none"> <path d="M2821.09 4522C2713.76 4573.45 2540.25 4543.44 2466.91 4522C2450.81 4575.6 2399.29 4689.22 2322.02 4714.94C2184.64 4727.81 2010.76 4909.67 1941 4999H3347C3325.53 4936.47 3246.11 4806.06 3100.15 4784.62C2954.18 4763.18 2853.29 4600.61 2821.09 4522Z" fill="#EC641B"></path> <path d="M8927.91 2071.45L8891.07 2047.13C9014.63 1859.94 9139.76 1519.92 9135.24 1274.9C9135.08 1265.8 9134.77 1256.93 9134.31 1248.26C9133.31 1250.55 9132.26 1252.83 9131.18 1255.09C9104.81 1310.39 9053.04 1353.45 8989.14 1373.25C8925.31 1393.06 8858.21 1386.82 8805.2 1356.11C8752.18 1325.42 8713.38 1270.38 8698.74 1205.12C8684.1 1139.85 8695.68 1073.51 8730.5 1023.12C8765.32 972.717 8823.28 938.427 8889.51 929.057C8955.69 919.647 9020.94 936.497 9068.4 975.227C9070.05 976.577 9071.68 977.947 9073.28 979.327C8970.17 746.147 8700.38 586.297 8400.86 585.907C8400.46 585.907 8400.04 585.907 8399.64 585.907C8149.42 585.907 7883.28 683.178 7586.01 883.308C7157.4 1171.86 6800.06 1564.15 6552.65 2017.77L6513.89 1996.62C6764.67 1536.81 7126.89 1139.17 7561.37 846.678C7866.16 641.508 8140.39 541.758 8399.66 541.757C8400.09 541.757 8400.51 541.757 8400.94 541.757C8735.27 542.187 9035.23 732.147 9130.38 1003.69C9140.44 1032.41 9149.71 1066.93 9153.66 1103.89C9169.66 1151.37 9178.16 1207.91 9179.39 1274.09C9184.06 1527.7 9055.19 1878.66 8927.91 2071.45ZM8925.51 970.657C8915.68 970.657 8905.73 971.357 8895.73 972.767C8841.65 980.427 8794.68 1007.93 8766.84 1048.22C8739 1088.51 8729.88 1142.19 8741.83 1195.46C8753.78 1248.75 8784.94 1293.38 8827.32 1317.92C8869.71 1342.45 8923.92 1347.27 8976.08 1331.09C9028.24 1314.92 9070.25 1280.3 9091.32 1236.09C9110.13 1196.65 9113.94 1153.83 9110.26 1113.53C9094.55 1069.12 9071.36 1034.63 9040.49 1009.43C9009.58 984.207 8968.8 970.657 8925.51 970.657Z" fill="#E47015"></path> <path d="M1680.33 2608.02C1553.65 2377.5 1370.44 2185.82 1140.39 2056.54C927.959 1937.17 585.309 1826.79 466.129 2122.24C368.79 2363.53 536.41 2599.41 738.79 2720.54C929.08 2834.43 1163.77 2881.72 1272.65 3095.6C1327.02 3202.42 1219.76 3296.37 1117.4 3250.85C924.79 3165.2 720.8 3072.83 506.15 3069.82C321.95 3067.24 113.97 3134.34 38.3597 3318.4C-34.6303 3496.11 60.54 3660.9 245.6 3699.26C448.58 3741.33 646 3632.2 819.45 3541.16C948.78 3473.28 1063.36 3669.21 933.99 3737.11C686.68 3866.92 412.23 4380.34 129.78 4282.65C86.4297 4267.66 46.3497 4236.21 10.0297 4193.14L10.0295 2998C111.63 2919.03 238.349 2869.49 370.009 2851.98C421.239 2845.16 471.849 2843.29 521.969 2844.9C466.929 2802.27 416.219 2754.11 372.009 2699.01C188.959 2470.88 148.7 2145.59 331.81 1903.93C546.76 1620.24 913.729 1687.58 1193.12 1827.69C1482.63 1972.89 1720.79 2210.53 1876.29 2493.48C1946.73 2621.67 1750.69 2736.05 1680.33 2608.02Z" fill="#2E4E9D"></path> <path d="M9132.69 3242.85C8967.02 3263.5 8822.46 3362.22 8735.77 3496.34C8730.1 3482.27 8724.65 3467.74 8719.66 3453.22C9117.48 3175.67 9567.5 2600.39 9214.38 2166.93C9040.32 1953.16 8823.6 1963.14 8601.88 2077.75C8683.12 1805.42 8652.48 1506.32 8475.25 1275.75C8047.92 719.298 7351.67 1159.33 7003.33 1570.77C6886.68 1708.29 6788.87 1859.66 6711.71 2021.01C6478.42 1879.86 6194.97 1975.85 5980.74 2133.8C5957.82 2150.6 5934.9 2168.07 5911.98 2185.77C5867.73 1925.25 5691.4 1717.14 5414.3 1698.53C5114.97 1678.11 4827.44 1869.65 4608.45 2054.37C4507 1833.11 4258.73 1679.93 4000.93 1695.58C3541.84 1723.5 3252.94 2105.21 3072.53 2488.73C3010.8 2620.13 3206.42 2735.64 3268.6 2603.34C3399.32 2325.34 3577.69 2026.91 3894.5 1941.36C4031.11 1904.37 4185.89 1915.03 4297.54 2009.21C4365.4 2066.4 4411.92 2142.88 4425.08 2225.94C4236.72 2419.52 4075.14 2638.97 3915.15 2855.47C3828.46 2973.02 4025.22 3086.49 4111.22 2970.07C4232.18 2806.45 4354.73 2641.92 4489.98 2489.64C4570.36 2404.34 4598.1 2375.44 4654.29 2318.3C4681.29 2292.43 4708.75 2266.79 4737.12 2242.28C4925.02 2077.97 5329.88 1777.05 5576.11 1991.51C5678.91 2080.92 5708.64 2216.86 5702.97 2357.79C5340.55 2678.68 5017.62 3097.61 5004.68 3578.49C5002.41 3659.51 5104.76 3726.68 5175.34 3676.53C5551.38 3409.42 5874.99 2954.18 5920.83 2477.39C5936.72 2463.09 5952.6 2449.02 5968.49 2435.18C6126.89 2294.93 6401.03 2067.31 6616.85 2228.89C6619.35 2230.7 6621.62 2232.75 6624.11 2234.79C6599.38 2306.5 6532.66 2500.76 6515.86 2575.42C6485.45 2712.04 6731.23 2652.58 6775.48 2531.17C6793.86 2669.6 6773.89 2820.74 6759.14 2944.88C6742.12 3089.67 6969.28 3088.53 6986.08 2944.88C7016.03 2690.93 7030.56 2404.31 6884.64 2188.04C6958.84 2012.62 7059.61 1848.99 7186.46 1704.66C7373.23 1492.25 7685.73 1207.21 7991.19 1233.31C8307.31 1260.54 8446.42 1616.16 8403.76 1891.88C8375.17 2078.88 8290.97 2243.64 8184.31 2395.69C8042.47 2537.07 7924.24 2687.76 7853.66 2794.87C7783.31 2901.76 7945.57 3028.16 8032.04 2932.4C8142.33 2810.08 8253.53 2685.26 8350.2 2551.37C8394.23 2509.84 8440.3 2470.35 8488.18 2433.13C8635.46 2319.21 8906.2 2112.92 9053.94 2329.65C9180.12 2514.6 9058.02 2756.97 8949.09 2918.1C8869.21 3036.11 8769.59 3137.32 8656.8 3221.97C8595.07 3139.14 8436.21 3157.07 8452.33 3278.7C8455.28 3301.17 8458.91 3323.18 8462.99 3344.74C8461.86 3345.42 8460.72 3346.11 8459.59 3346.79C8347.25 3406.02 8418.97 3561.7 8524.49 3556.7C8557.85 3640.67 8600.29 3718.28 8650.44 3790.45C8651.58 3844.69 8661.79 3900.06 8682.9 3954.53C8710.81 4026.92 8795 4058.24 8854.46 4019.43C9000.45 4150.19 9174.84 4254.31 9360.54 4335.3L9360.54 3002.41C9280.04 3077.2 9204.28 3158.02 9132.69 3242.85ZM5288.35 3282.34C5353.71 3099.65 5469.45 2935.57 5603.57 2786.7C5531.86 2970.3 5423.61 3139.14 5288.35 3282.34Z" fill="#2E4E9D"></path> <path d="M2508.96 3323.21C2508.59 3323.56 2508.21 3324.13 2507.83 3324.91C2508.22 3324.22 2508.53 3323.88 2508.82 3323.57C2508.87 3323.45 2508.91 3323.33 2508.96 3323.21Z" fill="#45BAB9"></path> <path d="M9179.66 2694.79C9137.45 2580.64 9059.84 2475.34 8955.45 2412.71C8942.51 2404.99 8928.9 2397.73 8915.05 2391.38C8885.78 2377.76 8854.69 2367.55 8822.01 2360.97C8774.35 2351.44 8725.33 2351.89 8678.36 2360.74C8683.13 2291.3 8672.01 2220.49 8645 2155.81C8568.75 1974.03 8376.53 1875.09 8185.9 1870.78C7816.67 1862.38 7617.87 2069.35 7508.04 2378.67C7501.46 2397.28 7495.1 2416.12 7489.2 2435.4C7483.07 2420.88 7474.68 2406.13 7464.69 2391.83C7417.49 2322.39 7337.15 2259.07 7303.79 2242.5C7102.27 2141.74 6960.66 2214.59 6806.11 2318.98C6573.5 2476.25 6390.59 2709.99 6266.68 2967.12C6249.89 3002.07 6234.23 3037.24 6219.7 3072.87C6199.05 3122.8 6180.89 3173.4 6164.78 3224.01C6158.43 3228.78 6152.3 3234.68 6146.85 3242.16C5897.22 3589.83 5860 4057.1 6064.47 4409.3C6082.4 4440.62 6102.37 4470.8 6124.61 4500.08C6186.79 4583.37 6275.87 4639.88 6370.05 4702.06C6586.78 4845.48 6841.99 4881.81 7087.31 4789.44C7268.63 4721.13 7433.37 4617.63 7525.96 4451.29C7533.68 4437.9 7540.94 4424.28 7547.52 4410.44C7548.2 4409.08 7548.88 4407.49 7549.56 4406.13C7654.63 4487.37 7815.99 4549.78 7950.56 4569.75C8025.68 4581.1 8097.84 4589.27 8168.87 4592.9C8184.98 4593.81 8201.09 4594.49 8216.98 4594.72C8334.76 4597.44 8450.73 4586.55 8574.18 4554.55C8755.28 4507.57 8924.8 4393.42 9005.59 4220.04C9077.3 4065.95 9158.77 3922.52 9055.29 3792.94C9076.39 3765.25 9095.69 3736.21 9113.16 3705.79C9121.78 3691.49 9129.95 3676.74 9137.44 3661.76C9151.96 3633.39 9165.13 3604.35 9176.93 3574.39C9185.33 3552.83 9193.27 3531.04 9200.31 3508.8C9282.92 3250.11 9272.93 2947.37 9179.66 2694.79Z" fill="#2E4E9D"></path> <path d="M6466.16 3608.43C6466.16 3608.43 6453.11 4680.97 5693.78 4793C5399.67 4836.39 5112.43 4720.52 5065.91 4661.29C5052.52 4644.5 5045.71 4631.56 5045.71 4631.56C5036.64 4638.82 5027.78 4645.86 5018.71 4651.99L5018.71 4652.21C4691.69 4888.23 4312.7 4624.53 4312.7 4624.53C4269.58 4798.59 4047.87 4819.47 4047.87 4819.47C3674.55 4841.03 3613.51 4597.75 3604.88 4488.36C3602.39 4457.04 3604.2 4436.62 3604.2 4436.62C3591.04 4450.24 3578.1 4462.95 3565.4 4474.97C3149.65 4864.17 2969.91 4354.47 2969.91 4354.47C2785.18 4809.71 2068.28 4423.23 1901.49 4325.42C1901.49 4325.42 1901.26 4325.42 1901.26 4325.19C1879.24 4312.49 1866.76 4304.54 1866.76 4304.54C1866.08 4317.93 1864.95 4331.09 1863.59 4344.03C1839.76 4575.05 1714.03 4679.45 1575.15 4710.76C1297.38 4773.17 1104.93 4427.32 1104.93 4427.32C1056.37 4840.8 412.321 5017.13 120.021 4712.12C66.5505 4656.32 27.3505 4600.92 0.00047103 4546.49L0.000395222 4112.92C112.44 3870.9 367.84 3704.97 367.84 3704.97C453.62 3426.29 701.21 3377.5 844.18 3373.64C584.79 3325.53 543.03 3024.16 543.03 3024.16C450.21 2425.04 867.78 2416.87 1111.29 2460.22C1155.99 2468.16 1195.03 2477.92 1223.62 2485.86C1256.02 2495.02 1275.43 2501.98 1276.03 2502.19C1108.57 2111.87 1556.54 2197.42 1669.55 2224.43C1685.44 2228.06 1694.74 2230.78 1694.74 2230.78C1702.91 2218.98 1710.86 2207.63 1718.8 2196.51C2071.01 1705.42 2331.31 1830.69 2486.53 2018.37C2503.55 2038.79 2519.44 2060.12 2533.96 2081.68C2592.29 2167.92 2629.73 2254.38 2644.93 2293.19C2650.38 2306.58 2653.1 2314.29 2653.1 2314.29C2653.1 2314.29 2660.82 2303.86 2674.66 2287.29C2742.06 2206.27 2957.66 1975.93 3168.93 2056.95C3369.55 2133.65 3254.04 2465.21 3195.94 2602.28C3181.42 2637 3170.3 2659.24 3169.16 2661.96C3204.56 2629.29 3232.7 2610.22 3255.17 2601.37C3351.17 2562.79 3342.77 2704.86 3342.77 2704.86C3343.02 2704.41 3343.27 2703.96 3343.52 2703.51C3361.9 2670.17 3380.53 2639.48 3399.34 2611.29C3407.18 2599.55 3415.04 2588.24 3422.94 2577.36C3425.56 2573.74 3428.18 2570.17 3430.81 2566.65C3431.54 2565.67 3432.28 2564.68 3433.01 2563.71C3564.62 2388.73 3703.05 2329.72 3826.83 2339.48C3842.71 2340.62 3858.15 2342.89 3873.35 2346.29C3942.79 2361.73 4006.34 2398.26 4060.12 2446.6C4075.63 2460.59 4088.29 2477.04 4098.51 2495.24C4111.74 2518.74 4120.93 2545.13 4127.06 2572.86C4158.05 2713.09 4110.63 2887.27 4109.4 2891.76C4127.35 2845.93 4178.41 2784.92 4251.43 2726.87C4265.27 2715.75 4280.02 2704.63 4295.46 2693.96C4483.13 2563.47 4777.25 2467.02 5039.59 2628.15C5053.43 2636.55 5067.05 2645.63 5080.66 2655.61C5096.9 2667.58 5113.14 2680.54 5129 2694.52C5129.98 2695.39 5130.97 2696.26 5131.95 2697.14C5143.27 2707.26 5153.99 2717.39 5164.13 2727.53C5441.39 3004.73 5287.64 3286.96 5202.79 3401.58C5192.03 3416.11 5182.38 3427.95 5174.85 3436.74C5165.48 3447.7 5159.41 3453.92 5158.6 3454.74C5164.85 3449.33 5171.08 3443.99 5177.28 3438.73C5189.13 3428.68 5200.88 3418.91 5212.54 3409.43C5394.81 3261.02 5554.43 3180.25 5693.15 3145.92C5719.93 3139.29 5745.93 3134.4 5771.16 3131.08C6266.15 3066.01 6466.16 3608.43 6466.16 3608.43Z" fill="#2E4E9D"></path> <path d="M2135.9 3671.71C2135.9 3671.71 1989.12 3505.05 1907.92 3601.95C1885.91 3628.22 1876.61 3663.25 1882.44 3697.02C1889.65 3738.83 1919.38 3791.65 2023.56 3791.67C2183.51 3791.69 2135.9 3671.71 2135.9 3671.71Z" fill="#FAFAFA"></path> <path d="M1769.32 4143.34C1690.12 4010.35 1608.19 3873.06 1405.54 3886.67C1356.75 3890.07 1307.73 3910.5 1266.2 3943.86C1120.51 3871.47 926.25 3839.01 709.521 3893.71C426.981 3964.97 172.58 4305.83 117.66 4686.41L162.59 4692.99C215.01 4329.44 454.89 4004.69 720.63 3937.74C878.35 3898.03 1072.61 3906.2 1231.01 3977L1231.01 3977.23C1179.5 4034.87 1163.16 4122.47 1190.39 4194.86C1217.62 4267.48 1287.75 4322.4 1364.68 4331.93C1417.78 4338.51 1485.64 4319.22 1509.24 4262.03C1526.94 4219.37 1514.91 4167.4 1474.29 4112.02C1435.48 4058.92 1379.66 4008.76 1310.21 3967.69C1341.07 3947.04 1375.34 3934.33 1408.47 3932.06C1583.44 3919.8 1651.52 4034.18 1730.27 4166.49C1768.62 4230.94 1810.14 4299.18 1863.02 4351.15C1864.38 4338.21 1865.92 4323.65 1866.6 4310.26C1866.6 4310.26 1879.46 4312.72 1901.47 4325.43C1849.74 4274.13 1809.03 4209.83 1769.32 4143.34ZM1437.53 4138.8C1459.09 4168.07 1481.56 4210.06 1467.26 4244.55C1453.42 4278.36 1407.8 4291.3 1370.13 4286.76C1309.54 4279.5 1254.39 4236.15 1232.83 4178.96C1211.27 4121.77 1224.21 4053.01 1264.83 4007.39C1267.78 4004.21 1270.73 4001.04 1273.68 3998.08C1337.68 4033.04 1394.19 4079.57 1437.53 4138.8Z" fill="#E47015"></path> <path d="M2136.56 3740.88C2134.75 3726.73 2130.81 3716.78 2130.81 3716.78C2130.81 3716.78 1984.02 3550.13 1902.81 3647.03C1892.96 3658.79 1885.67 3672.27 1881.13 3686.66C1878.64 3656.17 1888.19 3625.52 1907.92 3601.95C1989.13 3505.04 2135.92 3671.7 2135.92 3671.7C2135.92 3671.7 2150.37 3708.18 2136.56 3740.88Z" fill="#EC631D"></path> <path d="M2112.6 3696.38C2072.61 3662.41 2015.1 3657.04 1969.68 3683.55C1964.08 3686.82 1969.15 3695.54 1974.77 3692.26C1999.01 3678.12 2027.22 3673.84 2053.79 3678.93C2031.07 3687.12 2011.38 3703.36 1999.22 3724.35C1995.96 3729.98 2004.67 3735.06 2007.93 3729.44C2021.73 3705.63 2045.75 3689.13 2072.76 3684.3C2084.49 3688.75 2095.59 3695.12 2105.48 3703.52C2110.39 3707.69 2117.55 3700.59 2112.6 3696.38Z" fill="#383837"></path> <path d="M2975.62 3734.26C2975.62 3734.26 3068.51 3601.16 3173.89 3652.46C3229.21 3679.39 3226.44 3723.14 3211.34 3758.62C3192.89 3801.95 3155.57 3834.84 3110.48 3848.42C3079.36 3857.79 3040.11 3860.55 3000.59 3839.34C2913.23 3792.49 2975.62 3734.26 2975.62 3734.26Z" fill="#FAFAFA"></path> <path d="M3213.23 3754.17C3211.15 3732.32 3198.54 3711.25 3166.71 3695.75C3061.33 3644.46 2968.42 3777.56 2968.42 3777.56C2968.42 3777.56 2961.8 3783.74 2955.88 3793.73C2946.57 3761.6 2975.61 3734.5 2975.61 3734.5C2975.61 3734.5 3068.52 3601.39 3173.9 3652.69C3226.78 3678.47 3226.57 3719.58 3213.23 3754.17Z" fill="#EC631D"></path> <path d="M3171.88 3722.95C3121.44 3716.19 3069.65 3723.29 3023.09 3743.94C3017.24 3746.54 3020.08 3756.22 3026.02 3753.59C3035.85 3749.23 3045.93 3745.51 3056.18 3742.36C3056.58 3742.53 3057.01 3742.68 3057.51 3742.75C3079.89 3746.05 3100.48 3756.48 3116.29 3772.68C3120.84 3777.34 3127.79 3770.03 3123.26 3765.39C3110.41 3752.22 3094.35 3742.4 3076.86 3736.88C3107.18 3730.14 3138.62 3728.62 3169.54 3732.76C3175.91 3733.61 3178.31 3723.81 3171.88 3722.95Z" fill="#383837"></path> <path d="M3040.62 3808.15C3037.67 3828.12 3034.49 3847.86 3030.86 3867.38C3030.86 3868.74 3030.63 3869.88 3030.41 3871.24C3024.06 3906.87 3016.57 3941.82 3007.26 3975.4C2958.01 4156.04 2860.88 4299.92 2629.63 4310.13C2179.84 4329.65 2111.76 3852.17 2089.74 3538.54C2089.06 3528.33 2075.44 3406.46 2085.43 3402.38L2537.94 3219.92C2617.14 3179.3 2711.32 3180.89 2789.39 3224.23L3049.92 3368.56C3056.27 3371.96 3054.46 3425.75 3054.68 3432.33C3060.37 3535.6 3060.59 3672.89 3040.62 3808.15Z" fill="#FAFAFA"></path> <path d="M2935.39 3260.84C2924.28 3243.14 2913.96 3224.96 2904.78 3206.17C2878.91 3153.26 2843.47 3084.42 2774.22 3088.44C2720.73 3091.54 2702.89 3123.03 2682.36 3166.86C2662.68 3208.86 2645.26 3256.47 2660.2 3302.09C2681.26 3366.38 2732.85 3450.96 2811.66 3482.62C2872.09 3506.9 3002.21 3532.72 3067.22 3534.73C3150.79 3537.31 3072.44 3441.8 3040.75 3402.29C3004.5 3357.09 2966.79 3310.88 2935.39 3260.84Z" fill="#E47015"></path> <path d="M2275.64 3253.43C2228.74 3272.54 2162.28 3323.59 2236.56 3361.97C2294.35 3391.83 2368.44 3430.3 2433.04 3438.47C2517.3 3449.13 2596.27 3413.48 2656.9 3350.92C2690.31 3316.44 2700.07 3268.25 2703.29 3221.98C2706.66 3173.69 2706.39 3137.51 2661.15 3108.78C2602.59 3071.6 2538.15 3114.52 2489.82 3148.17C2472.66 3160.12 2454.81 3170.99 2436.49 3181.05C2384.72 3209.52 2329.3 3231.56 2275.64 3253.43Z" fill="#EC631D"></path> <path d="M2051.45 3319.04C2022.8 3330.71 1982.21 3361.89 2027.58 3385.33C2062.88 3403.57 2108.13 3427.07 2147.59 3432.06C2199.05 3438.57 2247.29 3416.8 2284.32 3378.59C2304.73 3357.53 2310.69 3328.1 2312.66 3299.83C2314.72 3270.34 2314.55 3248.24 2286.92 3230.69C2251.15 3207.98 2211.8 3234.19 2182.27 3254.75C2171.79 3262.05 2160.88 3268.69 2149.7 3274.84C2118.08 3292.21 2084.23 3305.68 2051.45 3319.04Z" fill="#E47015"></path> <path d="M2149.39 3611.02C2145.82 3604.4 2147.7 3596.2 2153.81 3591.82C2182.81 3571.04 2269.1 3514.55 2342.15 3520.96C2416.42 3527.47 2459.27 3612.25 2471.6 3640.63C2474.06 3646.28 2472.82 3652.83 2468.45 3657.17C2446.62 3678.88 2374.29 3739.28 2270.07 3708.99C2198 3688.05 2162.18 3634.76 2149.39 3611.02Z" fill="#FAFAFA"></path> <path d="M2325.34 3720.11C2307.52 3720.11 2288.38 3717.63 2268.08 3711.73C2194.41 3690.3 2157.95 3635.12 2145.69 3612.38C2141.46 3604.53 2143.73 3594.69 2150.95 3589.51C2182.08 3567.22 2259.22 3517.62 2329.08 3517.62C2333.16 3517.62 2337.19 3517.8 2341.19 3518.13C2417.52 3524.85 2461.37 3612.74 2473 3639.51C2475.94 3646.27 2474.47 3653.98 2469.25 3659.19C2452.86 3675.5 2401.01 3720.11 2325.34 3720.11ZM2150.68 3609.68C2162.6 3631.8 2198.06 3685.45 2269.67 3706.28C2373.2 3736.46 2445.56 3674.77 2465.25 3655.15C2468.81 3651.63 2469.8 3646.37 2467.8 3641.76C2456.5 3615.7 2413.91 3530.2 2340.71 3523.79C2269.65 3517.3 2186.7 3570.88 2154.26 3594.11C2149.35 3597.64 2147.81 3604.34 2150.68 3609.68Z" fill="#383837"></path> <path d="M2571.55 3971.78C2571.55 3971.78 2594.01 3997.13 2641.66 3994.36C2689.31 3991.6 2693.59 3952.93 2693.59 3952.93C2693.59 3952.93 2634.62 3927.64 2571.55 3971.78Z" fill="#EC631D"></path> <path d="M2565.07 3976.18C2575.89 3957 2606.89 3908.96 2639.73 3921.81C2641.31 3922.43 2643.05 3922.53 2644.6 3921.84C2653.32 3918 2684.88 3908.32 2698.44 3961.59C2698.67 3962.51 2697.57 3963.2 2696.87 3962.56C2686.81 3953.3 2644.79 3923.28 2567.91 3978.65C2566.23 3979.85 2564.05 3977.98 2565.07 3976.18Z" fill="#EC631D"></path> <path opacity="0.23" d="M2597.17 3870.15C2591.27 3869.91 2588.72 3862.55 2593.24 3858.74C2607.19 3847.01 2631.72 3830.42 2655.29 3834.41C2675.08 3837.76 2675.8 3849.2 2672.51 3858.74C2669.58 3867.25 2661.28 3872.72 2652.29 3872.36L2597.17 3870.15Z" fill="#EC631D"></path> <path d="M2791.5 4364.62C2791.5 4394.33 2788.57 4469.04 2794.16 4542.37C2700.88 4588.15 2573.91 4588.98 2479.12 4560.91C2493.27 4425.52 2439.46 4173.79 2439.46 4173.79L2794.89 4160.21C2794.88 4160.2 2791.5 4301.22 2791.5 4364.62Z" fill="#FAFAFA"></path> <path d="M1949.94 3319.1C1949.94 3319.1 2092.25 3500.04 2239.81 3373.94C2239.81 3373.94 2533.6 3495.37 2693.59 3205.57C2693.59 3205.57 2628.6 3491.76 3103.42 3499.81L3126.68 3272.65L2678.26 2971.04L1949.94 3319.1Z" fill="#2E4E9D"></path> <path d="M2725.61 3624.77C2771.28 3579.92 2903 3469.61 3002.11 3576.84C3015.18 3590.98 3019.15 3616.22 3010.74 3633.54C2979.84 3697.17 2884.28 3806.52 2726.15 3658.51C2716.44 3649.42 2716.11 3634.1 2725.61 3624.77Z" fill="#FAFAFA"></path> <path d="M2875.84 3734.12C2828.97 3734.12 2778.48 3709.06 2725.4 3659.37C2720.09 3654.41 2717.12 3647.69 2717.03 3640.44C2716.94 3633.28 2719.71 3626.57 2724.82 3621.56C2753.86 3593.02 2829.08 3527.37 2905.87 3527.37C2906.94 3527.37 2908.02 3527.39 2909.08 3527.41C2945.39 3528.27 2977.79 3543.85 3005.38 3573.71C3019.41 3588.89 3023.41 3615.2 3014.47 3633.59C3004.83 3653.45 2968.01 3719.25 2899.18 3731.99C2891.52 3733.41 2883.73 3734.12 2875.84 3734.12ZM2728.79 3625.59C2724.8 3629.51 2722.64 3634.77 2722.71 3640.37C2722.78 3646.04 2725.11 3651.32 2729.28 3655.24C2789.9 3711.95 2846.76 3735.91 2898.17 3726.4C2964.38 3714.14 3000.04 3650.36 3009.39 3631.1C3017.24 3614.94 3013.58 3590.92 3001.23 3577.56C2974.71 3548.88 2943.68 3533.9 2908.96 3533.08C2907.94 3533.04 2906.9 3533.04 2905.87 3533.04C2831.17 3533.04 2757.35 3597.55 2728.79 3625.59Z" fill="#383837"></path> <path d="M2567.9 3981.49C2567.09 3981.49 2566.29 3981.16 2565.74 3980.49C2564.72 3979.29 2564.88 3977.5 2566.06 3976.48C2566.82 3975.84 2585.03 3960.55 2610.46 3950.71C2644.59 3937.55 2675.04 3940.89 2698.66 3960.37C2699.87 3961.37 2700.03 3963.16 2699.04 3964.36C2698.05 3965.6 2696.27 3965.73 2695.05 3964.76C2641.84 3920.79 2570.47 3980.21 2569.72 3980.83C2569.2 3981.27 2568.55 3981.49 2567.9 3981.49Z" fill="#383837"></path> <path d="M2377.11 3557.23C2376.77 3554.64 2375.91 3552.22 2374.46 3550.11C2373.64 3548.64 2372.61 3547.29 2371.36 3546.15C2370.88 3545.71 2370.35 3545.35 2369.83 3544.98C2367.88 3543.39 2365.63 3542.15 2363.15 3541.35C2362.85 3541.25 2362.54 3541.19 2362.24 3541.11C2361.05 3540.36 2359.79 3539.72 2358.43 3539.34C2352.47 3537.66 2347.2 3541.02 2343.7 3545.63C2339.98 3549.25 2337.84 3554.12 2337.45 3559.4C2337.15 3563.57 2338.28 3567.68 2340.51 3571.1C2341.7 3574.36 2343.75 3577.27 2346.45 3579.43C2347.57 3580.84 2348.95 3582.07 2350.63 3583.02C2357.22 3586.74 2364.7 3583.93 2369.48 3578.67C2370.14 3577.95 2370.77 3577.17 2371.39 3576.36C2374.09 3573.47 2376.07 3569.88 2376.98 3566.01C2377.69 3563.02 2377.71 3560.03 2377.11 3557.23Z" fill="#383837"></path> <path d="M2914.89 3559.67C2914.89 3559.66 2914.89 3559.66 2914.89 3559.65L2914.88 3559.64C2914.88 3559.66 2914.88 3559.67 2914.88 3559.68C2914.88 3559.68 2914.88 3559.68 2914.89 3559.69C2914.89 3559.69 2914.89 3559.68 2914.89 3559.67Z" fill="#383837"></path> <path d="M2914.9 3559.6L2914.89 3559.59C2914.89 3559.6 2914.89 3559.6 2914.9 3559.6Z" fill="#383837"></path> <path d="M2935.55 3551.69C2931.33 3540.51 2916.76 3537.65 2906.86 3542.07C2898.91 3545.61 2892.09 3554.94 2893.45 3563.93C2894.44 3570.46 2898.67 3577.19 2904.73 3580.06C2920.64 3587.6 2941.61 3568.57 2935.64 3551.93C2935.61 3551.86 2935.58 3551.77 2935.55 3551.69Z" fill="#383837"></path> <path d="M3036.11 3463.48C3030.99 3446.94 3021.43 3431.17 3009.39 3418.76C3000.46 3409.56 2974.98 3388.29 2963.85 3405.03C2948.95 3427.42 2984.08 3466.08 3000.45 3478.49C3015.78 3490.12 3044.4 3490.25 3036.11 3463.48Z" fill="#383837"></path> <path d="M2313.56 3429.26C2294.02 3421.07 2247.98 3438.79 2236.79 3443.59C2219.55 3450.99 2202.36 3461.15 2188.11 3474.02C2182.14 3479.41 2174.15 3485.57 2173.77 3494.33C2172.53 3522.45 2218.05 3505.92 2231.14 3501.19C2249.44 3494.58 2267.73 3487.59 2284.83 3478.24C2297.25 3471.45 2323.25 3458.67 2322.38 3441.88C2322.03 3435.39 2318.72 3431.43 2313.56 3429.26Z" fill="#383837"></path> <path d="M2627.2 3854.35C2627.04 3853.69 2626.74 3853.12 2626.3 3852.64C2625.94 3852.09 2625.47 3851.66 2624.89 3851.34C2624.49 3851.17 2624.09 3851 2623.69 3850.83C2622.8 3850.59 2621.9 3850.59 2621.01 3850.83C2620.61 3851 2620.21 3851.17 2619.81 3851.34C2619.05 3851.79 2618.45 3852.39 2618 3853.15L2615.21 3856.79C2614.84 3857.37 2614.64 3857.99 2614.61 3858.66C2614.46 3859.33 2614.49 3860 2614.7 3860.67C2614.86 3861.33 2615.16 3861.9 2615.6 3862.38C2615.96 3862.93 2616.43 3863.36 2617.01 3863.68L2618.21 3864.19C2619.1 3864.43 2620 3864.43 2620.89 3864.19L2622.09 3863.68C2622.85 3863.23 2623.45 3862.63 2623.9 3861.87L2626.69 3858.23C2627.06 3857.65 2627.26 3857.03 2627.29 3856.36C2627.44 3855.69 2627.41 3855.02 2627.2 3854.35Z" fill="#383837"></path> <path d="M2655.77 3853.45C2655.76 3853.43 2655.76 3853.42 2655.75 3853.4C2655.65 3853.15 2655.35 3852.42 2655.24 3852.18C2655.23 3852.16 2655.22 3852.13 2655.2 3852.11C2654.96 3851.7 2654.65 3851.33 2654.33 3850.99C2654.01 3850.65 2653.6 3850.37 2653.22 3850.12C2653.18 3850.09 2653.14 3850.07 2653.1 3850.06C2651.88 3849.51 2651.69 3849.4 2650.31 3849.32C2650.27 3849.32 2650.22 3849.32 2650.18 3849.32C2649.68 3849.36 2649.18 3849.42 2648.69 3849.52C2648.64 3849.53 2648.6 3849.54 2648.56 3849.56C2648.1 3849.71 2647.65 3849.92 2647.22 3850.12C2647.13 3850.16 2647.04 3850.21 2646.96 3850.27C2646.58 3850.55 2646.18 3850.82 2645.83 3851.15C2645.79 3851.18 2645.76 3851.22 2645.73 3851.26C2645.59 3851.43 2645.39 3851.7 2645.32 3851.79C2645.25 3851.87 2645.04 3852.14 2644.91 3852.32C2644.9 3852.34 2644.88 3852.36 2644.87 3852.38C2644.86 3852.4 2644.85 3852.42 2644.84 3852.44C2644.83 3852.45 2644.83 3852.46 2644.83 3852.47C2644.74 3852.67 2644.65 3852.88 2644.57 3853.08C2644.48 3853.28 2644.4 3853.49 2644.31 3853.7C2644.29 3853.75 2644.28 3853.79 2644.27 3853.84C2644.2 3854.22 2644.06 3854.83 2644.08 3855.32C2644.14 3856.37 2644.31 3857.25 2644.87 3858.16C2645.19 3858.75 2645.62 3859.22 2646.17 3859.57C2646.66 3860.02 2647.23 3860.32 2647.88 3860.47C2648.55 3860.68 2649.22 3860.71 2649.89 3860.56C2650.56 3860.53 2651.19 3860.33 2651.76 3859.96C2651.88 3859.87 2652 3859.77 2652.13 3859.68C2652.17 3859.67 2652.21 3859.67 2652.25 3859.66L2653.45 3859.15C2654.21 3858.7 2654.81 3858.1 2655.26 3857.34L2655.77 3856.14C2656.01 3855.24 2656.01 3854.35 2655.77 3853.45Z" fill="#383837"></path> <path d="M2329.34 3518.87C2281.59 3517.45 2219.47 3542.22 2172.16 3572.05C2158.69 3580.55 2145.83 3590 2133.61 3600.21C2128.63 3604.38 2137.57 3614.84 2142.52 3610.7C2183.87 3576.13 2228.15 3550.71 2279.16 3533.36C2295.24 3527.89 2312.6 3523.58 2327.82 3522.19C2334.24 3521.61 2335.84 3519.06 2329.34 3518.87Z" fill="#383837"></path> <path d="M2193.09 3663.72C2190.6 3662.41 2187.7 3663.14 2186.19 3665.53C2182.52 3671.34 2178.85 3677.16 2175.17 3682.97C2173.76 3685.2 2174.63 3688.63 2176.98 3689.87C2179.47 3691.18 2182.37 3690.45 2183.88 3688.06C2187.55 3682.25 2191.22 3676.43 2194.9 3670.62C2196.31 3668.38 2195.44 3664.96 2193.09 3663.72Z" fill="#383837"></path> <path d="M2225.61 3687.36C2223.22 3686.1 2220.1 3686.72 2218.71 3689.17C2214.73 3696.21 2210.75 3703.25 2206.78 3710.28C2205.48 3712.58 2206.16 3715.89 2208.59 3717.18C2210.98 3718.44 2214.1 3717.82 2215.49 3715.37C2219.47 3708.33 2223.45 3701.29 2227.42 3694.26C2228.72 3691.96 2228.04 3688.64 2225.61 3687.36Z" fill="#383837"></path> <path d="M2269.11 3706.53C2266.13 3706.19 2264.11 3707.99 2263.33 3710.71L2256.03 3736.46C2255.31 3739 2257.73 3741.95 2260.21 3742.24C2263.19 3742.58 2265.21 3740.78 2265.99 3738.06L2273.29 3712.31C2274.01 3709.76 2271.6 3706.81 2269.11 3706.53Z" fill="#383837"></path> <path d="M2314.99 3714.3C2312.01 3714.52 2310.32 3716.66 2310.09 3719.48C2309.4 3727.69 2308.71 3735.9 2308.02 3744.11C2307.8 3746.75 2310.69 3749.19 2313.2 3749.01C2316.18 3748.79 2317.87 3746.65 2318.1 3743.83C2318.79 3735.62 2319.48 3727.41 2320.17 3719.2C2320.39 3716.57 2317.49 3714.12 2314.99 3714.3Z" fill="#383837"></path> <path d="M2181.2 3571.05C2178.04 3566.78 2175.3 3562.22 2173.05 3557.41C2172.8 3556.88 2172.56 3556.34 2172.32 3555.8C2172.21 3555.55 2172.16 3555.43 2172.14 3555.38C2172.04 3555.14 2171.95 3554.91 2171.85 3554.67C2171.35 3553.42 2170.88 3552.16 2170.44 3550.88C2169.57 3548.33 2168.84 3545.73 2168.23 3543.11C2167.63 3540.54 2164.55 3538.77 2162.03 3539.59C2159.34 3540.46 2157.87 3543.04 2158.51 3545.79C2161.05 3556.7 2165.82 3567.13 2172.49 3576.13C2174.06 3578.24 2176.93 3579.53 2179.39 3577.94C2181.48 3576.6 2182.88 3573.32 2181.2 3571.05Z" fill="#383837"></path> <path d="M2211.2 3554.45C2207.83 3546.8 2204.45 3539.16 2201.08 3531.51C2200.01 3529.09 2196.29 3528.34 2194.18 3529.7C2191.67 3531.32 2191.23 3534.01 2192.37 3536.6C2195.74 3544.25 2199.12 3551.89 2202.49 3559.54C2203.56 3561.96 2207.28 3562.71 2209.39 3561.35C2211.9 3559.73 2212.35 3557.04 2211.2 3554.45Z" fill="#383837"></path> <path d="M2251.73 3537.61L2245.3 3521.09C2244.81 3519.83 2244.19 3518.78 2242.98 3518.08C2241.9 3517.45 2240.31 3517.18 2239.1 3517.57C2236.72 3518.34 2234.55 3521.14 2235.58 3523.77L2242.01 3540.29C2242.5 3541.55 2243.12 3542.6 2244.33 3543.3C2245.41 3543.93 2247 3544.2 2248.21 3543.81C2250.59 3543.04 2252.75 3540.24 2251.73 3537.61Z" fill="#383837"></path> <path d="M3026.7 3592.95C3000.83 3549.98 2955.08 3527.86 2904.9 3528.32C2898.41 3528.38 2899.48 3530.89 2905.98 3530.83C2952.63 3530.4 2995.6 3557.96 3019.68 3597.94C3023.02 3603.5 3030.06 3598.53 3026.7 3592.95Z" fill="#383837"></path> <path d="M2965.16 3718.98C2962.68 3714.41 2960.19 3709.84 2957.71 3705.27C2956.45 3702.95 2953.05 3702.02 2950.81 3703.46C2948.46 3704.98 2947.65 3707.88 2949 3710.36C2951.48 3714.93 2953.97 3719.5 2956.45 3724.07C2957.71 3726.39 2961.11 3727.32 2963.35 3725.88C2965.7 3724.36 2966.5 3721.46 2965.16 3718.98Z" fill="#383837"></path> <path d="M2993.28 3699.59C2988.93 3694.69 2984.59 3689.78 2980.24 3684.88C2979.34 3683.87 2978.4 3683.1 2977.02 3682.86C2975.79 3682.64 2974.2 3682.94 2973.2 3683.73C2972.19 3684.52 2971.35 3685.64 2971.18 3686.95C2971.01 3688.22 2971.17 3689.77 2972.05 3690.77C2976.4 3695.67 2980.74 3700.58 2985.09 3705.48C2985.99 3706.49 2986.93 3707.26 2988.31 3707.5C2989.54 3707.72 2991.13 3707.42 2992.13 3706.63C2993.14 3705.84 2993.98 3704.72 2994.15 3703.41C2994.31 3702.14 2994.16 3700.59 2993.28 3699.59Z" fill="#383837"></path> <path d="M3019.74 3668.06C3018.16 3664.15 3016.13 3660.7 3013.43 3657.46C3011.02 3654.57 3008.06 3652.1 3004.87 3650.1C3002.63 3648.7 2999.22 3649.55 2997.97 3651.91C2996.66 3654.39 2997.39 3657.31 2999.78 3658.81C3000.45 3659.23 3001.09 3659.69 3001.73 3660.16C3003.51 3661.59 3005.12 3663.19 3006.56 3664.96C3008.07 3667 3009.36 3669.18 3010.35 3671.52C3010.27 3671.33 3010.19 3671.14 3010.11 3670.96C3010.6 3672.13 3011.18 3673.09 3012.34 3673.77C3013.42 3674.4 3015.01 3674.67 3016.23 3674.28C3017.45 3673.89 3018.63 3673.13 3019.24 3671.96C3019.82 3670.82 3020.24 3669.29 3019.74 3668.06Z" fill="#383837"></path> <path d="M2936.51 3737.62C2934.04 3732.34 2931.58 3727.05 2929.11 3721.77C2928.6 3720.69 2927.21 3719.76 2926.1 3719.45C2924.89 3719.12 2923.29 3719.27 2922.21 3719.96C2921.13 3720.65 2920.19 3721.69 2919.89 3722.97C2919.57 3724.36 2919.8 3725.57 2920.4 3726.86L2927.8 3742.71C2928.31 3743.79 2929.7 3744.72 2930.81 3745.03C2932.02 3745.36 2933.62 3745.21 2934.7 3744.52C2935.78 3743.83 2936.72 3742.79 2937.02 3741.51C2937.34 3740.11 2937.11 3738.91 2936.51 3737.62Z" fill="#383837"></path> <path d="M2460.6 4290.51L2464.4 4315.45C2635.57 4398.17 2791.66 4351.95 2791.66 4351.95L2794.38 4272.23C2646.81 4366.4 2460.6 4290.51 2460.6 4290.51Z" fill="#EC631D"></path> <path opacity="0.23" d="M2480.2 3847.06C2475.26 3699.93 2213.22 3794.01 2150.53 3859.52C2144.31 3866.01 2139.07 3873.07 2134.83 3880.46C2146.76 3923.82 2161.25 3967.18 2178.76 4008.96C2228.91 4030.2 2290.32 4023.35 2339.03 4002.2C2390.03 3980.06 2482.25 3907.33 2480.2 3847.06Z" fill="#EC631D"></path> <path opacity="0.23" d="M2794.17 3825.62C2770.34 3885.3 2845.69 3947.03 2894.7 3965.87C2926.47 3978.12 2971.63 3981.98 3007.26 3975.4C3016.56 3941.81 3024.05 3906.86 3030.41 3871.24C3030.64 3869.88 3030.86 3868.74 3030.86 3867.38C3033.81 3847.64 3036.53 3827.67 3039.48 3807.92C2967.55 3763.44 2824.35 3750.28 2794.17 3825.62Z" fill="#EC631D"></path> <path d="M2925.61 3481.34C2925.32 3474.88 2915.24 3474.84 2915.53 3481.34C2916.2 3496.45 2913.2 3511.53 2906.52 3525.12C2905.32 3527.56 2905.86 3530.57 2908.33 3532.02C2910.55 3533.32 2914.02 3532.66 2915.23 3530.21C2922.69 3515.05 2926.36 3498.26 2925.61 3481.34Z" fill="#383837"></path> <path d="M2959.82 3494.78C2957.05 3494.02 2954.5 3495.72 2953.62 3498.3C2949.68 3509.8 2945.73 3521.29 2941.79 3532.78C2940.91 3535.36 2942.8 3538.29 2945.31 3538.98C2948.08 3539.74 2950.63 3538.04 2951.51 3535.46C2955.45 3523.97 2959.4 3512.47 2963.34 3500.98C2964.22 3498.41 2962.33 3495.47 2959.82 3494.78Z" fill="#383837"></path> <path d="M2990.84 3529.19C2990.52 3528.02 2989.61 3526.75 2988.52 3526.18C2986.33 3525.02 2982.77 3525.42 2981.62 3527.99C2978.75 3534.45 2975.87 3540.92 2973 3547.38C2972.43 3548.66 2972.1 3549.86 2972.49 3551.27C2972.81 3552.44 2973.72 3553.71 2974.81 3554.28C2977 3555.44 2980.56 3555.04 2981.71 3552.47C2984.58 3546.01 2987.46 3539.54 2990.33 3533.08C2990.9 3531.79 2991.22 3530.59 2990.84 3529.19Z" fill="#383837"></path> <path d="M3019.46 3555.84C3017.11 3554.6 3013.9 3555.17 3012.56 3557.65C3010.03 3562.31 3007.51 3566.97 3004.98 3571.64C3003.72 3573.96 3004.33 3577.24 3006.79 3578.54C3009.14 3579.78 3012.35 3579.21 3013.69 3576.73C3016.22 3572.07 3018.74 3567.41 3021.27 3562.74C3022.53 3560.42 3021.92 3557.14 3019.46 3555.84Z" fill="#383837"></path> <path d="M2872.58 3500.67C2872.31 3498.06 2870.46 3495.5 2867.54 3495.63C2865.04 3495.74 2862.2 3497.86 2862.5 3500.67C2863.59 3511.08 2864.67 3521.5 2865.76 3531.91C2866.03 3534.52 2867.88 3537.08 2870.8 3536.95C2873.3 3536.84 2876.13 3534.72 2875.84 3531.91C2874.75 3521.5 2873.67 3511.08 2872.58 3500.67Z" fill="#383837"></path> <path d="M2420.39 3761.96C2413.9 3761.96 2413.89 3772.04 2420.39 3772.04C2426.88 3772.04 2426.89 3761.96 2420.39 3761.96Z" fill="#EC631D"></path> <path d="M2364 3811.42C2357.51 3811.42 2357.5 3821.5 2364 3821.5C2370.49 3821.51 2370.5 3811.42 2364 3811.42Z" fill="#EC631D"></path> <path d="M2339.27 3773.83C2332.78 3773.83 2332.77 3783.91 2339.27 3783.91C2345.76 3783.92 2345.77 3773.83 2339.27 3773.83Z" fill="#EC631D"></path> <path d="M2502.49 3762.95C2496 3762.95 2495.99 3773.03 2502.49 3773.03C2508.98 3773.03 2508.99 3762.95 2502.49 3762.95Z" fill="#EC631D"></path> <path d="M2540.09 3718.43C2533.6 3718.43 2533.59 3728.51 2540.09 3728.51C2546.57 3728.52 2546.58 3718.43 2540.09 3718.43Z" fill="#EC631D"></path> <path d="M2302.67 3829.23C2296.18 3829.23 2296.17 3839.31 2302.67 3839.31C2309.16 3839.31 2309.17 3829.23 2302.67 3829.23Z" fill="#EC631D"></path> <path d="M2300.35 3773.96C2300.15 3773.34 2299.8 3772.79 2299.31 3772.34C2298.85 3771.85 2298.31 3771.5 2297.69 3771.3C2297.09 3770.98 2296.44 3770.84 2295.75 3770.87C2295.3 3770.93 2294.86 3770.99 2294.41 3771.05C2293.56 3771.29 2292.81 3771.72 2292.18 3772.35C2291.92 3772.69 2291.65 3773.03 2291.39 3773.37C2290.93 3774.16 2290.7 3775 2290.7 3775.91L2290.7 3776.9C2290.67 3777.59 2290.82 3778.24 2291.13 3778.84C2291.33 3779.46 2291.68 3780.01 2292.17 3780.46C2292.63 3780.95 2293.17 3781.3 2293.79 3781.5C2294.39 3781.82 2295.04 3781.96 2295.73 3781.93C2296.18 3781.87 2296.62 3781.81 2297.07 3781.75C2297.92 3781.51 2298.67 3781.08 2299.3 3780.45C2299.56 3780.11 2299.83 3779.77 2300.09 3779.43C2300.55 3778.64 2300.78 3777.8 2300.78 3776.89L2300.78 3775.9C2300.81 3775.21 2300.67 3774.56 2300.35 3773.96Z" fill="#EC631D"></path> <path d="M2230.45 3858.91C2223.96 3858.91 2223.95 3868.99 2230.45 3868.99C2236.94 3868.99 2236.95 3858.91 2230.45 3858.91Z" fill="#EC631D"></path> <path d="M2408.52 3854.95C2402.03 3854.95 2402.02 3865.03 2408.52 3865.03C2415.01 3865.03 2415.02 3854.95 2408.52 3854.95Z" fill="#EC631D"></path> <path d="M2480.73 3801.53C2474.24 3801.53 2474.23 3811.61 2480.73 3811.61C2487.22 3811.61 2487.23 3801.53 2480.73 3801.53Z" fill="#EC631D"></path> <path d="M2612.3 3727.34C2605.81 3727.34 2605.8 3737.42 2612.3 3737.42C2618.79 3737.42 2618.8 3727.34 2612.3 3727.34Z" fill="#EC631D"></path> <path d="M2224.18 3771C2223.98 3770.38 2223.63 3769.83 2223.14 3769.38C2222.68 3768.89 2222.14 3768.54 2221.52 3768.34C2220.92 3768.02 2220.27 3767.88 2219.58 3767.91C2219.13 3767.97 2218.69 3768.03 2218.24 3768.09C2217.39 3768.33 2216.64 3768.76 2216.02 3769.39L2215.23 3770.41C2214.77 3771.2 2214.54 3772.04 2214.54 3772.95L2214.54 3773.94C2214.51 3774.63 2214.66 3775.28 2214.97 3775.88C2215.17 3776.5 2215.52 3777.05 2216.01 3777.5C2216.47 3777.99 2217.01 3778.34 2217.63 3778.54C2218.23 3778.86 2218.88 3779 2219.57 3778.97C2220.02 3778.91 2220.46 3778.85 2220.91 3778.79C2221.76 3778.55 2222.51 3778.12 2223.13 3777.49L2223.92 3776.47C2224.38 3775.68 2224.61 3774.84 2224.61 3773.93L2224.61 3772.94C2224.64 3772.24 2224.5 3771.6 2224.18 3771Z" fill="#EC631D"></path> <path d="M2767.27 3745.28C2767.07 3744.65 2766.72 3744.11 2766.23 3743.66C2765.77 3743.17 2765.23 3742.82 2764.61 3742.62C2764.01 3742.3 2763.36 3742.16 2762.67 3742.19C2762.22 3742.25 2761.78 3742.31 2761.33 3742.37C2760.48 3742.61 2759.73 3743.04 2759.11 3743.67L2758.32 3744.69C2757.86 3745.48 2757.63 3746.32 2757.63 3747.23L2757.63 3748.22C2757.6 3748.91 2757.75 3749.56 2758.06 3750.16C2758.26 3750.79 2758.61 3751.33 2759.1 3751.78C2759.56 3752.27 2760.1 3752.62 2760.72 3752.82C2761.32 3753.14 2761.97 3753.28 2762.66 3753.25C2763.11 3753.19 2763.55 3753.13 2764 3753.07C2764.85 3752.83 2765.6 3752.4 2766.22 3751.77L2767.01 3750.75C2767.47 3749.96 2767.7 3749.12 2767.7 3748.21L2767.7 3747.22C2767.73 3746.52 2767.59 3745.88 2767.27 3745.28Z" fill="#EC631D"></path> <path d="M2724.08 3763.94C2717.59 3763.94 2717.58 3774.02 2724.08 3774.02C2730.57 3774.02 2730.58 3763.94 2724.08 3763.94Z" fill="#EC631D"></path> <path d="M2750.79 3833.19C2744.3 3833.19 2744.29 3843.27 2750.79 3843.27C2757.28 3843.27 2757.29 3833.19 2750.79 3833.19Z" fill="#EC631D"></path> <path d="M2694.41 3701.62C2687.92 3701.62 2687.91 3711.7 2694.41 3711.7C2700.89 3711.7 2700.91 3701.62 2694.41 3701.62Z" fill="#EC631D"></path> <path d="M2895.99 3808.74C2895.79 3808.12 2895.44 3807.57 2894.95 3807.12C2894.49 3806.63 2893.95 3806.28 2893.33 3806.08C2892.73 3805.76 2892.08 3805.62 2891.39 3805.65C2890.94 3805.71 2890.5 3805.77 2890.05 3805.83C2889.2 3806.07 2888.45 3806.5 2887.83 3807.13L2887.04 3808.15C2886.58 3808.94 2886.35 3809.78 2886.35 3810.69L2886.35 3811.58C2886.32 3812.27 2886.47 3812.92 2886.78 3813.52C2886.98 3814.14 2887.33 3814.69 2887.82 3815.14C2888.28 3815.63 2888.82 3815.98 2889.44 3816.18C2890.04 3816.5 2890.69 3816.64 2891.38 3816.61C2891.83 3816.55 2892.27 3816.49 2892.72 3816.43C2893.57 3816.19 2894.32 3815.76 2894.94 3815.13C2895.2 3814.79 2895.47 3814.45 2895.73 3814.11C2896.19 3813.32 2896.42 3812.48 2896.42 3811.57L2896.42 3810.68C2896.45 3809.99 2896.3 3809.34 2895.99 3808.74Z" fill="#EC631D"></path> <path d="M2893.16 3859.78C2886.67 3859.78 2886.66 3869.86 2893.16 3869.86C2899.64 3869.86 2899.65 3859.78 2893.16 3859.78Z" fill="#EC631D"></path> <path d="M2965.93 3850.9C2959.44 3850.9 2959.43 3860.98 2965.93 3860.98C2972.42 3860.99 2972.43 3850.9 2965.93 3850.9Z" fill="#EC631D"></path> <path d="M3013.86 3815.4C3007.37 3815.4 3007.36 3825.48 3013.86 3825.48C3020.35 3825.49 3020.36 3815.4 3013.86 3815.4Z" fill="#EC631D"></path> <path d="M2941.08 3909.48C2934.59 3909.48 2934.58 3919.56 2941.08 3919.56C2947.57 3919.57 2947.58 3909.48 2941.08 3909.48Z" fill="#EC631D"></path> <path d="M2833.69 3822.5C2827.2 3822.5 2827.19 3832.58 2833.69 3832.58C2840.18 3832.59 2840.19 3822.5 2833.69 3822.5Z" fill="#EC631D"></path> <path d="M2964.16 3785.23C2957.67 3785.23 2957.66 3795.31 2964.16 3795.31C2970.65 3795.31 2970.66 3785.23 2964.16 3785.23Z" fill="#EC631D"></path> <path d="M6131.08 3924.93C6138.53 3914.72 6145.38 3904.37 6151.84 3894.07C6211.74 3796.78 6224.96 3698.23 6189.68 3608.76C6176.26 3574.89 6118.63 3510.54 6060.51 3512.95C6030.01 3514.24 5989.38 3534.13 5967.55 3622.2C5949.07 3696.97 5987.12 3817.22 6077.15 3925.61C5903.13 4131.21 5510.47 4300.73 5150.92 4238.07C5092.77 4227.88 5033.07 4203.92 4975.15 4167.8C4765.12 4037.47 4576.29 3751.1 4559.18 3406.8L4554.27 3308.27L4522.38 3397.52C4417.81 3688.51 4137.39 3868.67 3884.03 3807.88C3737.67 3772.68 3582.24 3645.02 3478.77 3475.03C3473.76 3466.79 3468.91 3458.31 3464.18 3449.35C3575.54 3383.36 3656.91 3289.25 3680.48 3195.66C3695.64 3135.79 3679.62 3066.77 3639.87 3019.86C3601.79 2975.23 3549.95 2959.11 3500.87 2976.52C3433.97 3000.32 3388.69 3050.42 3369.89 3121.57C3344.87 3215.81 3368.86 3332.07 3410.1 3426.9C3297.52 3480 3148.69 3509.91 3053.04 3497.86C3042.44 3496.59 3050.38 3503.81 3049.77 3516.04C3049.2 3528.5 3059.06 3534 3069.66 3535.26C3198.3 3551.4 3325.03 3522.21 3429.99 3468.34C3435.79 3479.44 3441.71 3490.07 3447.95 3500.2C3557.19 3679.69 3722.14 3814.72 3878.28 3852.23C4127.03 3911.83 4400.19 3754.23 4528.38 3487.21C4550.01 3648.71 4612.99 3816.12 4706.26 3957.28C4799.05 4097.82 4914.13 4199.05 5037.9 4250.7C5073.75 4265.62 5110.21 4276.56 5146.98 4282.87C5245.66 4300 5350.93 4300.85 5457.29 4285.97C5552.29 4272.68 5648.05 4246.9 5740.38 4209.01C5892.96 4146.64 6021.89 4057.34 6105.57 3957.64C6132.68 3985.93 6174.81 4023.83 6209.11 4048.36C6209.77 4048.95 6281.55 4098.41 6291.42 4102.27C6296 4088.11 6288.79 4065.5 6292.36 4051.02C6245.22 4021.42 6154.63 3949.82 6131.08 3924.93ZM3406.56 3136.8C3421.82 3078.98 3457.79 3039.58 3513.49 3019.87C3519.36 3017.67 3525.16 3016.4 3530.84 3015.61C3560.74 3011.43 3590.07 3023.82 3613.36 3051.04C3642.93 3085.86 3654.89 3136.89 3643.68 3180.85C3618.73 3279.67 3540.7 3356.35 3444.86 3409.17C3407.9 3324.29 3384.86 3218.9 3406.56 3136.8ZM6102.64 3892.71C6021.91 3794.24 5993.22 3700.87 6004.31 3636.76C6013 3587.19 6034.93 3561.9 6059.72 3558.43C6061.04 3558.24 6062.4 3558.28 6063.72 3558.1C6102.48 3556.57 6146.74 3605.37 6154.87 3626.23C6191.57 3718.94 6156.37 3807.96 6120.33 3866.17C6114.86 3875.19 6108.95 3884.03 6102.64 3892.71Z" fill="#E47015"></path> <path d="M2676.03 2292.54C2660.7 2268.67 2622.04 2292.9 2637.9 2317.05C2856.44 2657.68 2857.8 2997.64 2641.3 3249.77C2570.95 3331.47 2469.05 3375.72 2362.17 3370.73C2263 3366.19 2174.95 3319.67 2120.93 3243.42C2109.36 3227.31 2099.14 3210.74 2089.84 3193.72C2164.73 3122.01 2226.46 3041.44 2268.21 2956.34C2279.1 2934.33 2331.53 2820.4 2300.66 2740.52C2289.54 2711.93 2269.57 2691.96 2241.2 2680.61C2201.71 2664.95 2161.77 2668.58 2125.69 2690.82C2045.58 2740.07 1997.92 2873.05 1990.89 2947.26C1983.63 3024.87 1999.06 3107.25 2034.24 3183.96C1881.28 3321.03 1678.4 3418.61 1485.05 3437C1339.13 3450.84 1134.2 3425.65 986.471 3229.13C914.761 3133.82 826.251 2858.09 912.261 2670.18C963.091 2559.21 1065.9 2496.8 1217.49 2484.09C1188.9 2476.15 1149.86 2466.39 1105.16 2458.45C994.871 2489.77 914.991 2555.35 871.191 2651.35C776.331 2858.09 870.741 3150.61 950.161 3256.37C1087.91 3439.51 1270.37 3485.58 1418.79 3485.58C1443.3 3485.58 1466.9 3484.22 1489.14 3482.18C1687.94 3463.34 1896.04 3364.62 2055.35 3225.29C2063.97 3240.49 2073.5 3255.25 2083.72 3269.77C2146.13 3357.59 2246.89 3410.93 2360.13 3416.15C2481.32 3421.82 2596.15 3371.9 2675.57 3279.31C2906.14 3011.02 2906.37 2651.33 2676.03 2292.54ZM2069.19 3150.82C2041.96 3085.69 2029.93 3016.47 2036.06 2951.57C2042.19 2885.3 2086.21 2768.2 2149.53 2729.4C2163.6 2720.78 2177.9 2716.46 2192.65 2716.46C2203.09 2716.46 2213.53 2718.5 2224.65 2722.81C2240.99 2729.39 2251.88 2740.51 2258.24 2756.85C2275.71 2802.01 2255.52 2879.4 2227.6 2936.13C2189.92 3012.84 2135.23 3085.69 2069.19 3150.82Z" fill="#E47015"></path> <path d="M9236.4 3608.9C9225.73 3574.41 9213.7 3541.04 9200.31 3508.82C9028.07 3084.9 8654.98 2873.85 8162.3 2926.5C8050.42 2938.3 7918.79 2980.96 7799.42 3042.01C7726.35 2892.91 7597.98 2756.89 7426.34 2712.72C7018.82 2607.84 6581.43 2713.8 6287.03 2950.37L6287.03 3008.96C6570.23 2764.32 7019.88 2660.92 7415.44 2756.97C7535.5 2786.02 7678.01 2890.87 7760.62 3062.66C7738.38 3075.14 7716.82 3088.08 7695.94 3101.69C7525.28 3212.89 7417.71 3352.01 7393.43 3493.39C7384.81 3542.18 7372.55 3664.27 7440.18 3745.29C7478.31 3790.68 7534.36 3814.05 7606.53 3814.28L7607.43 3814.28C7671.66 3814.28 7726.12 3787.5 7769.47 3734.4C7876.81 3603.23 7886.11 3344.97 7858.43 3211.98C7849.8 3170 7836.19 3126.43 7818.03 3082.86C7935.81 3022.26 8061.77 2982.78 8167.29 2971.43C8655.66 2919.23 9021.49 3138.46 9176.94 3574.41C9182.61 3590.06 9188.06 3605.95 9193.05 3622.29C9196.91 3634.32 9209.62 3640.9 9221.65 3637.27C9233.45 3633.64 9240.26 3620.93 9236.4 3608.9ZM7734.29 3705.57C7700.03 3747.56 7657.36 3768.89 7607.43 3768.89L7606.75 3768.89C7548.43 3768.66 7504.18 3750.96 7475.13 3716.01C7436.55 3670.17 7422.71 3589.84 7438.14 3501.1C7466.05 3339.3 7610.16 3199.73 7779 3104.19C7793.52 3140.5 7805.32 3179.53 7813.95 3221.06C7840.95 3350.64 7828.02 3590.97 7734.29 3705.57Z" fill="#E47015"></path> <path d="M5067.81 4663.74C5054.42 4646.95 5042.67 4636.02 5042.67 4636.02C5033.59 4643.28 5023.74 4649.46 5014.66 4655.58C5004.45 4600.89 4959.15 4462.86 4825.94 4343.95C4671.17 4205.75 4458.07 4145.61 4192.55 4164.44C3986.94 4179.19 3744.35 4313.99 3602.51 4492.14C3602.28 4492.37 3602.06 4492.59 3601.83 4492.82C3599.33 4461.5 3601.15 4441.08 3601.15 4441.08C3587.99 4454.7 3575.05 4467.4 3562.34 4479.43C3561.66 4473.98 3563.47 4468.54 3567.1 4464C3716.2 4276.55 3971.96 4134.71 4189.36 4119.28C4467.59 4099.31 4691.8 4163.53 4856.1 4310.13C5001.6 4439.94 5061.91 4598.61 5067.81 4663.74Z" fill="#E47015"></path> <path d="M3428.92 2570.96C3426.83 2573.1 3424.84 2575.24 3422.94 2577.36C3425.56 2573.74 3428.18 2570.17 3430.81 2566.65C3431.54 2565.67 3432.28 2564.68 3433.01 2563.71C3431.52 2567.13 3430.12 2569.73 3428.92 2570.96Z" fill="#E47015"></path> <path d="M4127.06 2572.86C4093.66 2664.06 4037.75 2745.6 3962.27 2807.14C3872.91 2879.76 3765.27 2917.88 3654.63 2917.88C3612.83 2917.88 3570.78 2912.44 3528.98 2901.55C3434.61 2876.58 3367.03 2815.76 3348.5 2738.83C3345.66 2727.04 3344 2715.24 3343.52 2703.51C3361.9 2670.17 3380.53 2639.48 3399.34 2611.29C3380.71 2648.79 3386.75 2685.06 3397.31 2729.07C3412.08 2789.44 3466.4 2837.55 3543 2857.97C3680.42 2894.06 3817.34 2864.1 3928.73 2773.33C4015.05 2703.16 4073.24 2604.5 4098.51 2495.24C4111.74 2518.74 4120.93 2545.13 4127.06 2572.86Z" fill="#E47015"></path> <path d="M5039.04 2626.88C5002.96 2831.58 4921.66 3113.27 4646.38 3122.12C4573.99 3123.93 4515.66 3083.09 4488.2 3010.24C4557.42 3001.62 4633.21 2929.68 4651.6 2866.81C4665.44 2820.51 4649.33 2782.16 4607.8 2761.51C4571.94 2743.81 4535.18 2747.44 4504.54 2772.18C4458.47 2809.4 4431.01 2893.82 4431.69 2957.36C4391.98 2944.42 4360.2 2918.33 4337.06 2879.52C4308.24 2830.95 4294.84 2763.13 4293.71 2696.18C4278.28 2706.85 4263.63 2718.23 4249.79 2729.35C4254.55 2792.44 4269.89 2855 4298.03 2902.66C4330.71 2957.58 4379.27 2993.21 4439.19 3006.37C4468.92 3106.68 4544.72 3167.5 4640.48 3167.5L4647.97 3167.5C4946.39 3157.97 5040.93 2864.89 5080.87 2654.52C5067.26 2644.53 5052.88 2635.27 5039.04 2626.88ZM4533.14 2807.35C4542.9 2799.63 4552.66 2795.78 4563.1 2795.78C4570.82 2795.78 4578.99 2797.82 4587.84 2802.13C4601.23 2808.94 4617.79 2821.42 4608.04 2853.87C4592.38 2907.2 4524.53 2963.71 4477.32 2965.75C4474.36 2917.87 4494.56 2838.67 4533.14 2807.35Z" fill="#E47015"></path> <path d="M8915.05 2391.37C8786.38 2577.01 8562.39 2659.61 8248.31 2637.14C8135.52 2628.97 8049.06 2603.33 7984.38 2558.39C7984.61 2558.16 7985.06 2558.16 7985.29 2557.94C8044.75 2522.54 8087.19 2471.7 8104.89 2415.2C8125.77 2348.93 8108.75 2274.95 8062.91 2231.15C8010.71 2181.45 7924.25 2178.05 7874.1 2223.43C7850.72 2244.76 7834.61 2275.85 7827.35 2313.3C7811.92 2392.5 7841.42 2480.33 7902.47 2546.82C7812.37 2579.5 7697.77 2582.9 7617.89 2527.53C7566.83 2492.13 7528.48 2438.57 7508.05 2378.66C7501.47 2397.27 7495.11 2416.11 7489.21 2435.39C7483.08 2420.87 7474.69 2406.12 7464.7 2391.82C7488.3 2461.26 7532.55 2523.44 7592.01 2564.75C7691.18 2633.51 7834.15 2625.11 7939 2581.09C7943.54 2584.95 7948.31 2588.35 7953.07 2591.98C8025.24 2643.95 8120.78 2673.45 8244.91 2682.3C8280.09 2684.8 8313.9 2686.16 8346.81 2686.16C8628.21 2686.16 8832.46 2594.48 8955.46 2412.7C8942.51 2404.99 8928.89 2397.73 8915.05 2391.37ZM7946.93 2527.54C7895.19 2476.48 7856.61 2400.46 7871.81 2321.93C7875.44 2302.64 7884.29 2275.64 7904.72 2257.03C7919.7 2243.41 7940.35 2236.83 7961.68 2236.83C7986.87 2236.83 8012.74 2245.91 8031.58 2264.06C8065.39 2296.06 8077.42 2351.43 8061.54 2401.58C8047.24 2447.65 8011.84 2489.18 7962.14 2518.91C7957.14 2521.86 7952.15 2524.59 7946.93 2527.54Z" fill="#E47015"></path> <path d="M7954.51 2213.24C7952.71 2206.68 7946.65 2204.49 7940.55 2205.32C7892.25 2211.85 7850.57 2247.93 7835.21 2293.82C7833.27 2299.63 7837.46 2306.22 7843.13 2307.78C7849.32 2309.48 7855.14 2305.69 7857.09 2299.85C7870.08 2261.05 7906.02 2232.68 7946.58 2227.2C7952.66 2226.38 7955.98 2218.58 7954.51 2213.24Z" fill="#E47015"></path> <path d="M9137.45 3661.77C9113.85 3632.5 9082.08 3609.12 9042.14 3592.1C8954.77 3554.66 8836.99 3554.43 8733.96 3585.07C8733.28 3583.94 8732.6 3582.8 8731.69 3581.89C8673.59 3498.38 8581.91 3479.99 8486.37 3532.87C8323.2 3622.97 8203.15 3824.71 8156.63 3984.48C8097.63 4186.45 8102.39 4412.71 8168.88 4592.9C8184.99 4593.81 8201.1 4594.49 8216.99 4594.72C8216.76 4592.9 8216.31 4591.09 8215.63 4589.27C8149.36 4418.61 8143.46 4191.68 8200.2 3997.19C8242.64 3851.27 8357.24 3656.1 8508.38 3572.59C8603.69 3519.94 8661.11 3564.19 8689.25 3600.5C8654.53 3614.8 8622.53 3632.73 8595.52 3654.06C8547.86 3691.5 8476.6 3778.42 8475.92 3864.43C8475.69 3908.91 8494.53 3947.72 8530.38 3976.99C8586.43 4022.38 8659.28 4001.73 8706.48 3961.1C8795.21 3884.39 8803.16 3731.67 8755.95 3625.23C8846.5 3600.04 8948.17 3601.17 9024.19 3633.85C9054.6 3646.79 9089.32 3668.8 9113.15 3705.79C9127.22 3727.58 9137.43 3754.36 9140.38 3787.71C9141.51 3800.19 9152.63 3809.27 9164.89 3808.14C9177.37 3807.01 9186.68 3795.89 9185.54 3783.4C9181.02 3735.98 9164.91 3695.13 9137.45 3661.77ZM8676.77 3926.61C8646.36 3952.93 8597.11 3972.68 8558.99 3941.81C8533.57 3920.93 8521.09 3895.74 8521.32 3864.88C8522 3795.44 8584.41 3720.55 8623.44 3689.68C8649.31 3669.48 8679.72 3652.69 8712.85 3639.75C8754.38 3729.17 8750.29 3863.29 8676.77 3926.61Z" fill="#E47015"></path> <path d="M2490.63 2023.18C2494.26 2078.78 2494.32 2141.34 2483.2 2192.85C2461.64 2291.79 2370.18 2380.07 2260.8 2407.08C2234.93 2413.43 2202.25 2415.02 2168.66 2410.94C2189.99 2358.74 2191.81 2299.74 2172.74 2240.96C2159.35 2200.57 2135.07 2171.06 2103.98 2158.13C2074.71 2145.65 2043.39 2148.14 2015.93 2164.94C1982.12 2185.36 1958.06 2224.62 1954.66 2264.79C1950.35 2315.63 1969.18 2360.79 2009.58 2395.05C2034.09 2416.15 2065.18 2431.59 2098.09 2442.03C2094.91 2446.11 2091.51 2449.97 2087.88 2453.83C2031.6 2514.2 1942.87 2542.11 1867.07 2523.05C1818.96 2511.02 1755.87 2475.17 1728.86 2372.82C1715.7 2323.35 1720.92 2235.93 1729.54 2181.47C1721.6 2192.59 1707.3 2209.65 1699.13 2221.45C1699.13 2221.45 1694.85 2220.54 1676.88 2185.36C1672.57 2235.51 1673.03 2339.23 1685.06 2384.39C1710.48 2481.07 1771.3 2545.74 1855.94 2567.08C1875.23 2571.85 1895.2 2574.34 1915.4 2574.34C1990.52 2574.34 2068.13 2541.66 2121.01 2484.7C2130.31 2474.94 2138.71 2464.28 2145.97 2453.38C2191.13 2461.1 2236.29 2459.96 2271.69 2451.11C2399.23 2419.57 2502.03 2319.71 2527.45 2202.61C2534.94 2166.98 2538.95 2125.69 2539.18 2089.61C2524.65 2068.05 2507.65 2043.61 2490.63 2023.18ZM2123.05 2402.32C2091.51 2393.7 2061.55 2379.85 2039.08 2360.56C2010.03 2335.82 1996.87 2304.96 1999.82 2268.88C2002.09 2242.78 2017.98 2216.68 2039.31 2203.75C2048.16 2198.3 2057.24 2195.58 2066.32 2195.58C2073.13 2195.58 2079.71 2197.17 2086.52 2199.89C2104.9 2207.61 2120.56 2227.8 2129.64 2255.04C2146.65 2307.24 2144.15 2357.84 2123.05 2402.32Z" fill="#E47015"></path> <path d="M7461.13 4549.54C7374.53 4507.41 7304.32 4459.9 7240.65 4402.82C7182.83 4350.98 7135.5 4293.81 7099.99 4232.88C7096.41 4226.73 7092.95 4220.55 7089.63 4214.35C7051.52 4222.68 7010.14 4228.17 6965.92 4230.72C6849.64 4237.43 6738.06 4232.37 6634.28 4215.69C6550.98 4202.3 6472.47 4181.42 6400.91 4153.64C6277.95 4105.9 6218.18 4054.44 6215.7 4052.28L6245.28 4018.37L6230.49 4035.32L6245.25 4018.34C6245.82 4018.83 6303.15 4067.79 6419.7 4112.66C6488.19 4139.03 6563.43 4158.84 6643.34 4171.57C6743.35 4187.49 6851.01 4192.28 6963.32 4185.8C7002.23 4183.56 7037.5 4179.05 7069.38 4172.67C7030.17 4082.81 7017.98 3990.46 7036.08 3911.92C7058.29 3815.49 7123.51 3755.59 7206.29 3755.59C7251.9 3755.59 7294.14 3775.01 7325.24 3810.26C7354.71 3843.67 7371.7 3888.27 7373.07 3935.84C7374.05 3969.7 7367.21 4002.98 7352.76 4034.73C7337.13 4069.08 7313.2 4100.02 7281.65 4126.69C7247.43 4155.61 7204.67 4179.03 7154.54 4196.31C7148.02 4198.56 7141.37 4200.7 7134.6 4202.74C7136.01 4205.24 7137.43 4207.73 7138.89 4210.23C7209.33 4331.1 7331.73 4435.19 7488.91 4511.65L7461.13 4549.54ZM7206.29 3800.59C7144.68 3800.59 7097.44 3845.98 7079.93 3922.02C7063.5 3993.37 7075.88 4078.62 7113.86 4161.97C7272.71 4116.84 7330.46 4019.78 7328.08 3937.13C7327.01 3900.05 7314.02 3865.56 7291.49 3840.02C7269.05 3814.6 7238.8 3800.59 7206.29 3800.59Z" fill="#E47015"></path> <path d="M5771.16 3131.08C5745.93 3134.4 5719.93 3139.29 5693.15 3145.92C5651.8 3188.4 5603.54 3239.88 5555.47 3295.41C5481.95 3380.35 5423.86 3457.06 5381.39 3525.2C5357.2 3508.17 5333.08 3492.33 5309.83 3477.06C5274.4 3453.8 5241.29 3432.05 5212.54 3409.43C5209.23 3406.82 5205.98 3404.21 5202.79 3401.58C5175.53 3379.1 5152.74 3355.51 5136.38 3328.54C5101.89 3271.67 5083.21 3201.67 5080.86 3120.48C5078.95 3054.36 5087.8 2980.8 5107.16 2901.84C5124.14 2832.58 5146.37 2771.18 5164.13 2727.53C5153.99 2717.39 5143.27 2707.26 5131.95 2697.14C5130.97 2696.26 5129.98 2695.39 5129 2694.52C5109.87 2739.75 5083.6 2809.25 5063.68 2890.2C5043.25 2973.23 5033.89 3050.97 5035.87 3121.26C5038.37 3210.55 5059.25 3288.14 5097.91 3351.88C5117.3 3383.84 5143.96 3411.3 5174.85 3436.74C5175.66 3437.4 5176.47 3438.07 5177.28 3438.73C5209.84 3465.23 5246.95 3489.6 5285.13 3514.67C5309.52 3530.69 5334.15 3546.86 5358.38 3563.99C5317.08 3637.54 5295.95 3699.97 5295.27 3750.79C5294.61 3800.88 5303.41 3842.58 5321.43 3874.75C5338.14 3904.59 5362.79 3925.77 5392.7 3935.99C5406.27 3940.62 5420.57 3942.85 5435.01 3942.85C5482.14 3942.85 5530.88 3919.19 5561.42 3878.61C5580.31 3853.52 5590.46 3824.1 5590.78 3793.54C5591.14 3759.45 5579.61 3725.39 5556.51 3692.31C5516.58 3635.14 5467.92 3590.22 5417.81 3551.88C5459.1 3485.25 5516.52 3409.2 5589.24 3325.17C5656 3248.02 5723.16 3178.77 5771.16 3131.08ZM5519.62 3718.08C5537.24 3743.31 5546.04 3768.54 5545.79 3793.07C5545.57 3813.96 5538.54 3834.18 5525.46 3851.55C5497.39 3888.85 5446.57 3906.84 5407.25 3893.4C5363.04 3878.3 5339.25 3827.86 5340.27 3751.39C5340.83 3709.07 5359.34 3655.06 5394.88 3590.89C5440.67 3626.29 5483.78 3666.76 5519.62 3718.08Z" fill="#E47015"></path> </svg> 