<?xml version="1.0" encoding="UTF-8"?> <svg xmlns="http://www.w3.org/2000/svg" width="547" height="425" viewBox="0 0 547 425" fill="none"> <mask id="mask0_252_150" style="mask-type:alpha" maskUnits="userSpaceOnUse" x="0" y="0" width="547" height="425"> <rect width="547" height="425" fill="#D9D9D9"></rect> </mask> <g mask="url(#mask0_252_150)"> <path d="M255.593 66.2658C246.458 64.75 234.421 69.8099 235.317 79.0758C216.484 75.9865 197.188 77.3836 178.995 83.1537C172.273 85.2887 164.888 88.9181 163.095 95.7501C162.391 98.3975 162.626 101.323 161.345 103.735C159.531 107.13 155.455 108.389 152.061 110.14C139.043 116.993 134.817 136.315 143.759 147.972C133.323 161.871 106.41 160.27 102.889 177.264C101.416 184.353 105.023 192.615 100.862 198.486C99.1909 200.482 97.1737 202.16 94.9071 203.439C78.5803 214.456 67.3329 235.827 74.4612 254.188C66.0951 255.491 57.5582 258.907 52.5641 265.781C47.57 272.656 47.57 283.459 54.1861 288.754C51.3129 294.367 50.2014 300.717 50.9973 306.972C51.7933 313.228 54.4595 319.097 58.6466 323.811C60.5668 325.374 61.9723 327.479 62.6803 329.853C63.1285 332.82 60.9943 335.468 59.5003 338.072C57.1108 342.541 56.3471 347.701 57.3398 352.67C58.3325 357.639 61.0199 362.109 64.9426 365.315C67.3329 367.173 70.2995 368.731 71.3453 371.592C71.7548 373.328 71.8128 375.128 71.516 376.887C69.5525 400.18 89.9984 422.896 113.347 423.408C122.609 423.622 131.744 420.825 141.092 420.804C163.48 420.804 184.053 436.773 206.356 434.724C217.262 433.742 227.528 428.447 238.476 428.319C245.455 428.319 252.242 430.24 259.05 431.756C279.709 436.346 301.073 436.432 322.223 436.496C336.97 436.496 354.919 434.66 361.044 421.231C375.984 430.497 393.826 440.061 410.003 433.379C415.659 431.052 420.397 426.974 425.989 424.412C434.184 420.718 443.532 420.804 452.346 419.053C461.161 417.302 470.573 412.648 473.219 404.108C473.786 401.276 474.499 398.476 475.353 395.717C477.018 391.725 480.753 389.056 483.89 386.089C491.276 378.857 496.08 369.397 497.561 359.165C499.042 348.933 497.118 338.498 492.086 329.468C489.524 325.198 486.195 321.057 485.469 316.082C485.213 312.069 485.832 308.047 487.284 304.297C494.092 281.068 499.342 253.761 484.53 234.546C481.628 230.789 477.978 227.373 476.591 222.825C475.906 219.446 475.584 216.004 475.631 212.556C474.982 205.989 472.249 199.802 467.833 194.901C463.417 189.999 457.549 186.639 451.087 185.313C450.192 177.949 446.873 171.092 441.653 165.823C436.432 160.554 429.607 157.174 422.254 156.213C422.51 126.515 393.335 100.041 363.819 103.287C364.612 97.3426 363.583 91.2976 360.866 85.9516C358.15 80.6056 353.876 76.2106 348.608 73.3479C343.341 70.4852 337.329 69.2898 331.367 69.92C325.406 70.5501 319.776 72.976 315.223 76.8768C313.259 69.0413 302.225 66.6288 295.268 70.7493C289.527 74.1653 286.603 80.2928 283.679 85.9292C274.95 77.496 268.846 68.4435 255.593 66.2658Z" fill="#B28134"></path> <path d="M132.513 176.453C129.101 177.855 126.062 180.031 123.636 182.81C121.209 185.589 119.463 188.895 118.534 192.466C117.787 195.412 117.808 198.871 120.113 201.006C122.418 203.141 127.113 201.134 126.367 198.209C121.36 198.817 116.747 201.233 113.395 205.003C110.043 208.773 108.182 213.638 108.162 218.683C108.162 221.416 109.293 224.597 111.918 225.323C114.543 226.049 117.061 221.672 114.564 220.583C109.577 218.94 104.143 219.33 99.4405 221.668C94.7382 224.006 91.1466 228.104 89.4445 233.073C88.5866 236.614 88.2274 240.257 88.3774 243.898C88.1055 246.875 88.6438 249.87 89.9354 252.566C91.472 255.128 95.0575 256.686 97.5119 255C99.0281 252.229 99.4326 248.984 98.643 245.926C96.7831 245.956 94.9477 246.355 93.243 247.1C91.5384 247.845 89.9983 248.921 88.7121 250.265C87.4259 251.609 86.419 253.196 85.7497 254.932C85.0805 256.668 84.7622 258.52 84.8132 260.38C85.0693 264.372 86.7981 269.219 83.7034 271.759C81.6973 273.403 78.7947 272.912 76.191 273.019C65.6906 273.446 58.4769 287.281 64.154 296.141C66.2882 299.429 69.5536 301.735 72.1573 304.681C74.7611 307.627 76.7672 311.641 75.4654 315.356C73.9714 319.498 68.8706 321.59 67.6541 325.818C66.0748 331.219 71.5597 335.895 76.4471 338.628C81.3345 341.36 87.1182 345.588 86.1365 351.139C85.1548 356.69 79.1149 358.782 76.191 363.18C75.3266 364.497 74.7602 365.987 74.5312 367.546C74.3022 369.105 74.4162 370.696 74.8653 372.206C75.3143 373.716 76.0876 375.11 77.1311 376.291C78.1745 377.471 79.463 378.409 80.9065 379.04C82.35 379.67 83.9137 379.978 85.4884 379.942C87.0632 379.905 88.6109 379.525 90.0235 378.828C91.4362 378.131 92.6796 377.133 93.667 375.906C94.6545 374.678 95.3621 373.25 95.7405 371.72C88.8043 372.254 86.0084 382.16 89.8287 387.989C93.6489 393.817 101.076 395.995 107.97 396.849" stroke="#BF8E47" stroke-width="2.08542" stroke-linecap="round" stroke-linejoin="round"></path> <path d="M88.9318 282.691C86.1147 282.456 83.8951 285.21 83.2548 287.943C81.6328 294.988 86.7976 301.671 92.0691 306.603C89.6788 308.98 87.2742 311.335 84.8555 313.67C83.9794 314.422 83.255 315.335 82.7212 316.36C82.3512 317.406 82.2128 318.521 82.3157 319.626C82.8747 325.66 85.6927 331.259 90.2048 335.302C94.7169 339.344 100.59 341.531 106.646 341.425" stroke="#BF8E47" stroke-width="2.08542" stroke-linecap="round" stroke-linejoin="round"></path> <path d="M245.839 326.971C244.659 329.519 243.993 332.275 243.879 335.082C243.766 337.888 244.207 340.689 245.177 343.325C245.677 344.981 246.685 346.437 248.058 347.488C251.046 349.474 255.059 347.872 258.623 348.342C259.178 346.613 259.754 344.883 260.33 343.154C259.236 342.565 257.957 342.425 256.761 342.764C255.566 343.103 254.55 343.893 253.928 344.969C252.757 347.149 252.197 349.606 252.306 352.078C252.033 354.743 252.294 357.436 253.074 359.999C253.48 361.274 254.239 362.408 255.263 363.269C256.286 364.13 257.533 364.684 258.858 364.867" stroke="#BF8E47" stroke-width="2.08542" stroke-linecap="round" stroke-linejoin="round"></path> <path d="M235.424 337.752C233.499 342.946 233.542 348.664 235.543 353.829C237.544 358.993 241.366 363.246 246.287 365.785" stroke="#BF8E47" stroke-width="2.08542" stroke-linecap="round" stroke-linejoin="round"></path> <path d="M337.954 329.234C339.906 333.001 340.785 337.233 340.493 341.467C339.853 345.63 336.225 349.644 332.084 349.281" stroke="#BF8E47" stroke-width="2.08542" stroke-linecap="round" stroke-linejoin="round"></path> <path d="M357.097 328.487C359.011 330.063 360.41 332.176 361.114 334.554C361.818 336.932 361.794 339.466 361.046 341.83C359.509 346.335 355.518 349.495 352.829 353.423C350.14 357.352 349.137 363.501 352.978 366.233C354.707 367.514 357.545 368.689 356.862 370.717C356.657 371.242 356.31 371.701 355.859 372.041C353.892 373.78 351.511 374.986 348.945 375.542C348.698 375.63 348.434 375.658 348.175 375.625C347.915 375.591 347.667 375.497 347.451 375.35C347.066 374.987 347.344 374.133 347.856 374.282" stroke="#BF8E47" stroke-width="2.08542" stroke-linecap="round" stroke-linejoin="round"></path> <path d="M422.511 174.767C431.048 177.82 440.203 183.691 440.502 192.701C440.612 193.809 440.365 194.924 439.798 195.882C437.792 198.807 433.267 196.928 429.746 197.334C427.035 195.925 428.124 191.292 430.941 190.117C433.758 188.943 437.002 190.117 439.649 191.719C447.545 196.373 453.734 204.892 453.35 214.072C453.391 214.99 453.243 215.907 452.916 216.766C452.59 217.625 452.091 218.409 451.451 219.068C450.122 219.967 448.552 220.443 446.948 220.434C443.319 220.776 438.411 220.285 437.728 216.72C437.6 215.542 437.905 214.359 438.584 213.389C439.263 212.419 440.27 211.729 441.42 211.446C443.752 210.94 446.188 211.281 448.292 212.407C457.192 216.485 462.485 225.793 465.665 235.059C468.452 243.155 470.055 251.612 470.424 260.167C474.458 264.8 483.998 277.716 483.848 283.865C483.96 286.214 483.242 288.526 481.821 290.398C480.423 291.69 478.822 292.743 477.083 293.515C474.379 295.08 472.047 297.213 470.249 299.767C468.45 302.322 467.229 305.237 466.668 308.311C466.008 311.143 466.475 314.122 467.97 316.616C468.745 317.828 469.937 318.715 471.321 319.108C472.705 319.501 474.185 319.374 475.482 318.751C477.936 317.278 477.979 312.837 475.29 311.834C474.336 311.581 473.325 311.654 472.416 312.041C471.508 312.427 470.754 313.106 470.275 313.969C469.495 315.854 469.134 317.885 469.215 319.924C469.296 321.962 469.818 323.958 470.744 325.775C472.401 327.572 474.425 328.991 476.677 329.939C480.038 331.905 482.823 334.723 484.75 338.108C486.677 341.493 487.679 345.326 487.655 349.221C487.631 353.117 486.582 356.937 484.614 360.298C482.646 363.659 479.827 366.443 476.442 368.368" stroke="#BF8E47" stroke-width="2.08542" stroke-linecap="round" stroke-linejoin="round"></path> <path d="M468.952 384.231C469.719 386.269 470.013 388.454 469.809 390.622C469.606 392.79 468.911 394.883 467.778 396.742C465.486 400.452 462.33 403.551 458.579 405.773C451.793 410.099 444.06 412.715 436.042 413.395" stroke="#BF8E47" stroke-width="2.08542" stroke-linecap="round" stroke-linejoin="round"></path> <path d="M389.856 326.672C391.356 327.204 392.733 328.034 393.903 329.113C395.073 330.192 396.012 331.497 396.665 332.949C397.897 335.62 398.556 338.52 398.6 341.461C398.644 344.403 398.072 347.321 396.921 350.029C394.553 355.457 390.707 360.11 385.823 363.458" stroke="#BF8E47" stroke-width="2.08542" stroke-linecap="round" stroke-linejoin="round"></path> <path d="M403.516 361.238C402.95 367.533 400.416 373.491 396.275 378.266C392.134 383.041 386.596 386.39 380.445 387.84" stroke="#BF8E47" stroke-width="2.08542" stroke-linecap="round" stroke-linejoin="round"></path> <path d="M217.326 88.1283C214.487 83.4099 208.276 81.7232 202.834 82.4705C197.473 83.6533 192.396 85.8805 187.895 89.025L180.041 93.7647C178.932 94.3365 177.946 95.1199 177.138 96.0705C176.408 97.19 176.08 98.5247 176.208 99.8554C176.336 101.186 176.912 102.434 177.842 103.394C178.8 104.33 179.961 105.033 181.234 105.448C182.507 105.862 183.859 105.978 185.184 105.785C186.925 105.666 188.56 104.905 189.773 103.65C190.357 103.022 190.728 102.225 190.832 101.374C190.935 100.522 190.766 99.6595 190.349 98.91C184.266 96.775 177.544 99.828 172.571 103.97C168.512 107.021 165.589 111.342 164.269 116.246C163.244 121.199 165.165 126.921 169.647 129.27" stroke="#BF8E47" stroke-width="2.08542" stroke-linecap="round" stroke-linejoin="round"></path> <path d="M158.016 124.295C156.543 128.903 156.394 133.832 157.587 138.521C158.779 143.209 161.265 147.468 164.76 150.812" stroke="#BF8E47" stroke-width="2.08542" stroke-linecap="round" stroke-linejoin="round"></path> <path d="M147.196 161.53C145.573 160.874 143.808 160.645 142.071 160.865C140.334 161.086 138.682 161.748 137.274 162.789C135.865 163.829 134.747 165.214 134.025 166.81C133.304 168.406 133.004 170.16 133.153 171.906" stroke="#BF8E47" stroke-width="2.08542" stroke-linecap="round" stroke-linejoin="round"></path> <path d="M151.208 181.599C148.65 182.877 146.544 184.909 145.174 187.42C143.804 189.932 143.236 192.803 143.546 195.647C144.024 198.457 145.544 200.984 147.804 202.722C150.063 204.46 152.895 205.28 155.733 205.019" stroke="#BF8E47" stroke-width="2.08542" stroke-linecap="round" stroke-linejoin="round"></path> <path d="M304.424 90.797V85.1392H315.416C316.562 85.0512 317.714 85.219 318.788 85.6303C319.676 86.181 320.439 86.9122 321.027 87.7764C321.615 88.6407 322.016 89.6188 322.202 90.6475C322.678 91.6708 322.924 92.7856 322.924 93.9141C322.924 95.0425 322.678 96.1573 322.202 97.1806C321.732 97.7202 321.147 98.1473 320.49 98.4306C319.833 98.7138 319.121 98.8459 318.406 98.8172C317.692 98.7886 316.992 98.5998 316.36 98.2648C315.728 97.9298 315.179 97.4571 314.754 96.8817C313.987 95.6397 313.631 94.1881 313.734 92.7322C313.838 91.2763 314.396 89.8898 315.33 88.7687C317.268 86.5329 319.911 85.0263 322.821 84.4987C328.13 83.4533 333.636 84.2291 338.45 86.7008C343.264 89.1724 347.104 93.1956 349.35 98.12C349.707 99.433 350.451 100.608 351.484 101.493" stroke="#BF8E47" stroke-width="2.08542" stroke-linecap="round" stroke-linejoin="round"></path> <path d="M392.631 124.744C397.35 125.383 401.628 127.852 404.543 131.618C407.458 135.385 408.775 140.147 408.211 144.877" stroke="#BF8E47" stroke-width="2.08542" stroke-linecap="round" stroke-linejoin="round"></path> <path d="M213.015 306.24L206.335 313.413C203.176 316.808 199.932 320.395 198.567 324.878C197.201 329.362 198.567 334.955 202.686 337.069C204.082 337.789 205.669 338.055 207.224 337.831C208.779 337.606 210.225 336.902 211.362 335.817C212.498 334.732 213.268 333.319 213.565 331.776C213.861 330.232 213.669 328.635 213.015 327.205C212.845 326.766 212.557 326.382 212.183 326.095C211.137 325.391 209.771 326.095 208.747 326.907C206.242 328.514 204.068 330.586 202.344 333.013C199.719 337.283 200.21 342.77 201.234 347.701C202.203 352.798 204.2 357.643 207.103 361.942C210.063 366.252 214.562 369.262 219.674 370.354" stroke="#BF8E47" stroke-width="2.08542" stroke-linecap="round" stroke-linejoin="round"></path> <path d="M178.356 331.923C176.244 340.117 175.715 348.639 176.798 357.031C178.228 365.336 182.582 373.471 189.774 377.869" stroke="#BF8E47" stroke-width="2.08542" stroke-linecap="round" stroke-linejoin="round"></path> <path d="M90.6812 397.575C92.5356 400.78 95.0725 403.537 98.1117 405.651C101.151 407.766 104.618 409.185 108.267 409.808C115.581 411.012 123.066 410.648 130.228 408.741" stroke="#BF8E47" stroke-width="2.08542" stroke-linecap="round" stroke-linejoin="round"></path> <path d="M393.827 248.36C393.082 250.284 392.037 252.078 390.733 253.676C388.32 256.859 385.264 259.497 381.763 261.417C378.261 263.337 374.395 264.497 370.415 264.821C370.18 252.267 366.467 228.206 378.034 220.626C391.202 212.001 397.754 237.493 393.827 248.36Z" fill="#EFDAD5"></path> <path d="M384.628 248.232C384.17 249.425 383.522 250.535 382.707 251.52C381.215 253.49 379.324 255.122 377.158 256.311C374.992 257.499 372.599 258.216 370.137 258.416C369.987 250.644 367.682 235.742 374.853 231.045C383.006 225.707 387.061 241.485 384.628 248.232Z" fill="#EACDC5"></path> <path d="M197.585 248.36C198.331 250.284 199.375 252.078 200.68 253.676C203.092 256.859 206.149 259.497 209.65 261.417C213.151 263.337 217.018 264.497 220.998 264.821C221.232 252.267 224.946 228.206 213.378 220.626C200.232 212.001 193.658 237.493 197.585 248.36Z" fill="#EFDAD5"></path> <path d="M206.783 248.232C207.249 249.421 207.897 250.53 208.704 251.52C210.195 253.49 212.086 255.122 214.253 256.311C216.419 257.499 218.812 258.216 221.274 258.416C221.424 250.644 223.729 235.742 216.579 231.045C208.426 225.707 204.35 241.485 206.783 248.232Z" fill="#EACDC5"></path> <path d="M267.267 388.523C284.539 389.624 301.881 388.403 318.83 384.893C317.122 364.098 317.442 343.197 317.762 322.316C304.637 323.298 275.974 309.506 267.011 322.316C262.934 328.166 267.8 388.565 267.267 388.523Z" fill="#EFDAD5"></path> <path d="M215.705 246.567C221.745 281.239 225.523 294.369 253.481 320.801C260.097 327.056 280.906 337.881 290.979 337.304C315.822 336.087 343.737 315.271 354.899 298.319C366.061 281.367 371.781 262.366 375.729 243.364C381.236 216.741 383.37 189.178 376.156 162.832C373.616 153.566 369.753 144.279 362.326 137.041C354.899 129.804 343.844 124.936 332.831 121.456C313.49 115.459 293.319 112.576 273.073 112.916C258.753 113.108 235.383 124.167 224.925 133.796C215.449 142.571 213.571 158.114 213.4 169.493C213.23 189.221 212.269 226.946 215.705 246.567Z" fill="#F7E5DF"></path> <path d="M333.086 229.828C333.086 230.93 332.759 232.008 332.147 232.924C331.535 233.84 330.665 234.555 329.647 234.976C328.629 235.398 327.509 235.508 326.429 235.293C325.348 235.078 324.356 234.548 323.577 233.768C322.798 232.989 322.267 231.996 322.052 230.915C321.837 229.834 321.948 228.714 322.369 227.696C322.791 226.677 323.505 225.807 324.421 225.195C325.337 224.583 326.414 224.256 327.516 224.256C328.993 224.256 330.41 224.843 331.454 225.888C332.499 226.933 333.086 228.35 333.086 229.828Z" fill="#66A6AD"></path> <path d="M259.05 229.828C259.05 230.93 258.724 232.008 258.112 232.924C257.499 233.84 256.629 234.555 255.612 234.976C254.594 235.398 253.474 235.508 252.393 235.293C251.313 235.078 250.32 234.548 249.541 233.768C248.762 232.989 248.232 231.996 248.017 230.915C247.802 229.834 247.912 228.714 248.334 227.696C248.755 226.677 249.469 225.807 250.385 225.195C251.301 224.583 252.378 224.256 253.48 224.256C254.957 224.256 256.374 224.843 257.419 225.888C258.463 226.933 259.05 228.35 259.05 229.828Z" fill="#66A6AD"></path> <path d="M276.785 268.429C276.273 271.823 276.038 275.794 278.557 278.1C280.691 280.107 284.127 279.936 287.094 279.659C286.368 272.037 285.578 241.421 284.191 234.418C280.264 245.221 278.471 257.199 276.785 268.429Z" fill="#EACDC5"></path> <path d="M263.191 290.185C283.85 312.922 310.933 290.334 312.129 286.769" stroke="#DDB3A8" stroke-width="1.87688" stroke-linecap="round" stroke-linejoin="round"></path> <path d="M340.94 273.403C351.43 273.403 359.934 264.896 359.934 254.402C359.934 243.908 351.43 235.4 340.94 235.4C330.449 235.4 321.945 243.908 321.945 254.402C321.945 264.896 330.449 273.403 340.94 273.403Z" fill="#EFD5CE"></path> <path d="M240.056 273.403C250.546 273.403 259.05 264.896 259.05 254.402C259.05 243.908 250.546 235.4 240.056 235.4C229.565 235.4 221.061 243.908 221.061 254.402C221.061 264.896 229.565 273.403 240.056 273.403Z" fill="#EFD5CE"></path> <path d="M315.799 205.745C319.253 204.149 323.07 203.505 326.857 203.88C330.643 204.255 334.26 205.637 337.333 207.88" stroke="#CCBBA3" stroke-width="1.87688" stroke-linecap="round" stroke-linejoin="round"></path> <path d="M264.236 205.745C260.782 204.149 256.964 203.505 253.178 203.88C249.392 204.255 245.775 205.637 242.702 207.88" stroke="#CCBBA3" stroke-width="1.87688" stroke-linecap="round" stroke-linejoin="round"></path> <path d="M200.167 378.445C222.79 372.553 228.467 374.538 251.837 374.837C288.119 375.307 324.4 373.471 360.682 375.67C369.037 375.935 377.335 377.146 385.418 379.278C400.635 383.762 413.589 393.839 424.773 405.069C431.367 411.709 437.77 419.437 438.816 428.725C394.723 443.392 347.578 445.655 301.137 446.979C251.538 448.409 205.631 447.128 146.171 434.809C145.36 434.66 147.708 392.152 200.167 378.445Z" fill="#BBBBEA"></path> <path d="M263.533 396.123C271.368 404.259 280.12 411.46 289.613 417.58C292.098 419.414 294.991 420.615 298.043 421.081C303.72 421.508 308.544 417.153 312.513 413.032C323.355 401.738 333.856 389.377 339.341 374.837C310.209 374.133 281.012 375.221 251.838 374.837H247.1C248.103 381.861 259.137 391.554 263.533 396.123Z" fill="#EFDAD5"></path> <path d="M280.67 164.625C279.732 166.84 278.016 168.636 275.846 169.674C273.677 170.712 271.203 170.921 268.89 170.262C269.447 172.363 269.573 174.556 269.26 176.707C268.947 178.859 268.202 180.925 267.069 182.78C265.936 184.636 264.439 186.242 262.669 187.503C260.898 188.764 258.891 189.653 256.767 190.117C255.956 195.028 251.816 198.657 247.932 201.71C237.815 209.866 227.443 218.128 215.278 222.697C214.614 226.695 212.615 230.35 209.607 233.064C206.599 235.779 202.76 237.393 198.716 237.642C199.571 241.493 199.402 245.5 198.226 249.265C197.051 253.029 194.909 256.42 192.015 259.099C187.576 263.07 181.344 265.504 178.825 270.884C176.969 274.898 177.673 279.595 176.883 283.929C176.094 288.263 172.337 292.917 168.09 291.743C170.598 300.464 169.595 309.821 165.295 317.811C161.026 325.54 153.684 333.29 156.352 341.659C158.337 347.958 165.529 351.566 167.301 357.928C169.221 364.867 163.95 371.571 159.063 376.865C162.826 378.204 165.962 380.887 167.869 384.398C169.775 387.909 170.318 392.001 169.392 395.888C173.889 397.377 177.713 400.412 180.186 404.453C182.659 408.494 183.621 413.281 182.902 417.964C186.103 421.081 188.045 425.244 190.649 428.874C193.253 432.503 197.052 435.855 201.448 435.962C205.845 436.069 210.348 431.18 208.384 427.166C208.927 430.229 208.501 433.386 207.165 436.195C205.829 439.005 203.65 441.327 200.932 442.839C198.213 444.35 195.091 444.975 192 444.626C188.91 444.278 186.005 442.973 183.691 440.894C181.856 439.271 180.405 437.222 178.441 435.77C168.603 428.511 152.212 439.57 143.227 431.286C134.242 423.003 143.568 403.766 133.281 396.742C130.806 395.405 128.165 394.4 125.427 393.753C114.436 389.932 107.35 378.445 106.219 366.852C105.088 355.259 108.802 343.688 114.073 333.311C115.674 330.152 117.467 326.736 116.784 323.277C115.973 319.156 112.024 316.573 108.866 313.797C95.7189 302.333 93.3499 281.773 99.9019 265.611C103.85 255.918 112.601 246.502 122.952 247.869C120.801 242.281 120.058 236.25 120.787 230.306C121.516 224.363 123.695 218.691 127.131 213.789C130.568 208.887 135.158 204.905 140.496 202.196C145.833 199.486 151.755 198.132 157.739 198.251C149.928 180.189 161.368 156.491 180.362 151.281C183.09 141.145 188.019 131.736 194.799 123.725C201.579 115.714 210.042 109.298 219.586 104.934C229.129 100.57 239.517 98.367 250.009 98.4808C260.502 98.5947 270.84 101.023 280.286 105.592C282.826 98.5256 292.985 96.3479 299.131 100.661C311.297 109.201 304.296 124.872 298.363 134.821C292.43 144.77 285.707 146.35 276.167 152.52C278.137 153.768 279.643 155.628 280.457 157.814C281.27 160 281.345 162.392 280.67 164.625Z" fill="#C49645"></path> <path d="M208.96 249.897C215.917 257.861 213.399 272.037 204.136 277.119C201.234 278.698 197.542 279.851 196.517 282.968C195.493 286.086 197.456 288.797 198.651 291.508C200.47 296.101 200.611 301.188 199.049 305.874C197.488 310.561 194.324 314.546 190.114 317.128C199.868 325.177 200.487 341.958 191.352 350.712C194.285 353.063 196.421 356.263 197.468 359.874C198.515 363.485 198.421 367.332 197.2 370.888C196.005 374.176 193.871 377.101 193.209 380.538C192.722 382.938 193.012 385.431 194.036 387.655C195.061 389.88 196.766 391.72 198.907 392.91C201.047 394.099 203.51 394.576 205.939 394.271C208.368 393.966 210.637 392.895 212.417 391.213C212.417 389.313 212.566 387.434 212.63 385.534C218.436 389.484 215.17 399.753 208.533 402.059C201.895 404.364 194.618 401.098 189.005 396.871C186.102 394.736 183.242 391.939 182.73 388.331C181.77 381.264 190.264 375.755 189.858 368.625C189.581 363.607 185.078 360.085 181.62 356.412C178.163 352.74 175.58 346.591 179.102 343.005C180.639 341.446 182.965 340.87 184.566 339.354C188.236 335.895 186.294 329.554 182.901 325.839C179.507 322.124 174.855 319.434 172.614 314.865C166.745 302.973 181.151 290.633 181.876 277.396C182.602 264.159 169.989 253.463 170.971 240.546C172.166 225.323 193.593 212.962 207.914 217.168C214.637 219.153 218.073 222.954 219.012 229.978C219.353 232.775 212.182 253.57 208.96 249.897Z" fill="#C49645"></path> <path d="M339.49 183.456C336.715 193.96 345.551 205.873 356.414 206.258C355.467 210.551 355.85 215.031 357.512 219.101C359.175 223.171 362.038 226.637 365.72 229.038C367.771 230.092 369.716 231.343 371.525 232.774C378.226 239.179 372.421 250.623 374.513 259.697C375.622 264.543 379.016 268.514 382.281 272.272L402.599 295.565C404.761 297.819 406.6 300.363 408.062 303.123C410.41 308.054 410.389 314.118 413.91 318.303C416.197 320.572 418.817 322.48 421.679 323.96C437.152 334.037 441.719 357.586 431.155 372.724C429.43 374.844 427.995 377.185 426.886 379.684C424.859 385.448 428.039 391.661 428.295 397.767C428.469 401.734 427.396 405.656 425.227 408.982C423.059 412.307 419.903 414.87 416.204 416.309C412.504 417.749 408.447 417.992 404.602 417.006C400.757 416.02 397.317 413.854 394.766 410.812C394.083 414.121 393.379 417.43 392.632 420.74C402.546 424.012 412.982 425.41 423.408 424.86C433.545 424.327 445.881 419.352 446.201 409.211C446.372 403.852 442.893 398.856 443.277 393.518C444.174 381.285 461.802 379.321 469.912 370.033C478.983 359.7 473.284 342.727 463.104 333.482C457.342 328.252 449.872 323.597 448.399 315.954C447.418 310.915 449.381 305.834 451.088 301.009C454.695 290.761 457.15 278.912 451.857 269.432C448.314 263.027 441.74 258.757 438.859 252.054C433.929 240.546 441.506 225.857 434.804 215.289C430.685 208.777 422.511 206.279 415.02 204.4C416.351 195.71 414.603 186.828 410.078 179.291C405.553 171.755 398.536 166.038 390.242 163.131C390.434 151.346 384.223 140.137 375.729 131.981C367.235 123.825 356.628 118.253 345.957 113.257C329.31 105.443 305.705 99.7214 295.013 119.662C285.772 136.934 298.662 157.622 317.593 159.138C315.672 171.628 325.938 185.655 339.49 183.456Z" fill="#C49645"></path> <path d="M383.519 256.089C379.782 258.872 377.256 262.985 376.462 267.577C375.667 272.169 376.665 276.892 379.25 280.769C381.384 283.737 384.607 286.128 385.781 289.608C387.915 295.672 383.092 302.418 384.884 308.546C387.403 317.299 401.489 319.925 401.659 329.042C401.659 332.415 399.525 335.745 400.422 339.033C401.083 341.659 403.409 343.431 405.224 345.438C407.601 348.05 409.288 351.215 410.131 354.646C410.973 358.077 410.944 361.664 410.047 365.08C404.092 366.02 400.635 372.574 400.272 378.573C399.909 384.573 401.638 390.529 401.595 396.529C399.225 397.347 396.65 397.362 394.27 396.571C391.89 395.78 389.837 394.227 388.427 392.152C385.461 395.141 387.68 400.692 391.5 402.528C395.321 404.364 399.803 403.51 403.943 402.678C403.196 391.469 403.431 378.082 412.736 371.806C414.614 370.546 416.727 369.671 418.477 368.261C423.834 363.991 424.133 355.985 424.005 349.046C424.142 347.358 423.722 345.67 422.81 344.243C421.874 343.381 420.859 342.608 419.779 341.937C415.51 338.371 417.645 331.518 419.544 326.223C428.273 301.073 416.962 270.5 393.933 257.092" fill="#C49645"></path> <path d="M357.203 204.4C354.215 214.072 351.419 225.259 356.947 233.714C360.276 238.795 366.444 242.617 366.679 248.659C366.978 255.961 358.291 260.935 357.608 268.194C356.712 277.802 369.859 284.292 369.176 293.814C368.514 303.08 355.581 307.521 354.492 316.723C359.38 321.697 365.548 325.263 370.286 330.429C375.024 335.596 378.204 343.239 375.365 349.516C372.527 355.793 361.685 357.608 358.868 351.224C357.886 354.469 361.002 357.629 364.31 358.547C367.002 359.165 369.813 359.008 372.42 358.094C375.026 357.18 377.32 355.545 379.036 353.381C380.693 351.172 381.863 348.637 382.47 345.944C383.077 343.25 383.107 340.458 382.557 337.752C381.907 333.726 379.914 330.039 376.902 327.291C373.914 324.75 369.773 323.298 368.002 319.797C365.868 315.527 368.322 310.211 371.374 306.411C374.426 302.61 378.161 298.895 378.737 294.049C379.612 286.512 372.335 280.321 371.417 272.699C370.499 265.077 376.005 258.266 379.591 251.349C384.015 242.336 385.366 232.121 383.439 222.267C381.512 212.412 376.413 203.46 368.92 196.778" fill="#C49645"></path> <path d="M223.686 206.792C227.506 216.143 231.262 227.053 226.46 235.956C223.6 241.293 217.774 245.649 218.051 251.691C218.414 258.992 227.463 263.177 228.722 270.372C230.43 279.851 217.902 287.452 219.417 296.974C220.868 306.133 234.143 309.442 236.021 318.537C231.582 323.918 225.756 328.038 221.466 333.482C217.176 338.927 214.679 346.826 218.051 352.932C221.423 359.038 232.372 359.807 234.634 353.21C235.893 356.37 233.012 359.786 229.832 360.981C227.204 361.83 224.389 361.915 221.715 361.227C219.04 360.539 216.615 359.107 214.722 357.095C212.88 355.039 211.495 352.615 210.66 349.984C209.825 347.352 209.558 344.573 209.877 341.83C210.168 337.766 211.84 333.924 214.615 330.942C217.368 328.145 221.359 326.33 222.832 322.679C224.646 318.174 221.658 313.179 218.307 309.656C214.957 306.133 210.88 302.738 209.899 297.977C208.383 290.526 215.063 283.737 215.383 276.158C215.704 268.578 209.557 262.173 205.395 255.619C200.208 247.038 197.97 236.995 199.022 227.022C200.074 217.05 204.358 207.695 211.222 200.387" fill="#C49645"></path> <path d="M213.996 100.042C210.517 101.301 206.27 104.034 207.444 107.535C195.108 106.212 181.834 111.805 175.431 122.48C169.028 133.155 171.291 148.613 181.364 155.872C180.139 149.542 179.566 143.103 179.657 136.657C179.494 133.993 180.016 131.333 181.172 128.928C184.267 123.484 191.843 123.057 198.075 123.292L211.755 123.825C207.487 123.655 217.838 106.19 219.503 104.909C222.693 102.44 226.589 101.056 230.622 100.96C233.332 100.96 240.482 104.546 242.232 103.82C246.01 102.262 269.977 103.82 266.669 102.326C233.738 87.2315 219.631 97.9065 213.996 100.042Z" fill="#C49645"></path> <path d="M389.195 112.852C394.402 124.637 389.194 140.863 376.88 144.877C389.451 142.742 403.6 147.204 410.622 157.836C417.644 168.468 415.147 185.015 404.091 191.356C403.835 186.039 407.207 181.257 408.36 176.048C408.811 173.493 408.746 170.874 408.171 168.344C407.596 165.815 406.521 163.426 405.01 161.318C403.499 159.209 401.582 157.424 399.372 156.068C397.162 154.711 394.703 153.81 392.14 153.417C385.737 152.691 377.435 154.783 373.657 149.403C370.371 144.706 373.657 138.45 374.618 132.814C376.752 120.922 367.212 108.475 355.111 107.834C346.574 107.407 320.451 132.387 318.829 118.979C317.207 105.571 348.281 92.3557 358.056 93.1457C370.691 94.0851 383.859 100.725 389.195 112.852Z" fill="#C49645"></path> <path d="M422.084 200.899C427.953 208.948 442.018 204.101 449.509 210.677C459.155 219.217 448.975 236.874 456.274 247.463C458.579 250.794 462.271 252.822 465.302 255.491C468.635 258.462 471.198 262.198 472.77 266.377C474.342 270.557 474.878 275.056 474.33 279.488C470.936 282.136 467.201 284.911 462.912 284.847C458.622 284.783 454.375 280.15 456.338 276.307C459.71 279.424 465.878 276.926 467.372 272.571C468.866 268.215 466.817 263.326 463.659 259.974C460.25 256.871 456.54 254.117 452.582 251.755C448.804 249.107 445.198 245.755 444.045 241.314C441.633 232.518 449.061 222.099 443.704 214.648C438.774 207.838 428.978 210.25 421.935 208.478C410.879 205.724 412.032 192.252 399.909 192.167C396.303 192.167 392.504 195.711 391.693 191.505C391.138 188.665 396.9 183.712 399.013 182.751C414.7 175.62 416.108 192.743 422.084 200.899Z" fill="#C49645"></path> <path d="M274.183 124.188C274.665 127.486 274.235 130.854 272.939 133.925C271.643 136.996 269.532 139.653 266.834 141.609C264.135 143.564 260.953 144.744 257.633 145.018C254.312 145.293 250.98 144.654 247.997 143.168C247.688 142.28 247.627 141.325 247.822 140.405C248.016 139.485 248.457 138.635 249.098 137.948C249.74 137.26 250.556 136.76 251.46 136.503C252.364 136.245 253.321 136.239 254.228 136.486C255.594 144.193 256.704 152.434 253.609 159.629C250.515 166.824 241.615 172.098 234.636 168.553C234.097 167.18 233.859 165.708 233.936 164.235C234.013 162.762 234.405 161.323 235.084 160.014C236.168 159.457 237.422 159.335 238.592 159.672C239.762 160.009 240.759 160.781 241.38 161.828C242.545 163.991 243.057 166.447 242.853 168.895C242.853 174.297 242.234 180.082 238.734 184.224C231.563 192.764 215.258 190.779 210.818 201.006C206.187 211.68 219.462 225.643 211.928 234.461C208.876 238.048 203.669 238.731 198.973 239.03C195.456 239.598 191.85 239.177 188.558 237.813C185.421 236.169 183.351 231.963 185.208 228.953L189.476 229.145C192.507 234.632 190.223 241.955 185.613 246.225C181.003 250.495 174.622 252.224 168.39 253.035C166.352 253.487 164.226 253.316 162.286 252.544C161.329 252.13 160.57 251.358 160.172 250.394C159.774 249.429 159.766 248.347 160.152 247.378C161.625 246.887 162.969 248.445 163.545 249.897C167.088 258.437 162.073 268.023 157.377 276.072C152.682 284.121 148.03 293.985 152.234 302.29C153.899 305.556 156.801 308.204 157.698 311.748C160.579 323.063 142.075 330.066 142.331 341.745C142.502 349.495 151.06 355.024 151.53 362.774C151.829 367.813 148.627 372.275 146.536 376.865C143.897 382.662 142.943 389.084 143.783 395.397C148.755 395.909 153.92 396.486 158.188 399.069C162.457 401.653 165.594 406.905 164.122 411.687" stroke="#CEA25B" stroke-width="2.08542" stroke-linecap="round" stroke-linejoin="round"></path> <path d="M308.457 134.735C308.204 137.812 308.759 140.901 310.066 143.698C311.374 146.494 313.389 148.9 315.912 150.677C318.435 152.455 321.378 153.542 324.45 153.832C327.523 154.121 330.617 153.603 333.428 152.328C336.394 150.983 339.062 146.82 336.48 144.813C334.293 145.378 332.341 146.624 330.907 148.369C329.473 150.115 328.629 152.271 328.498 154.527C328.343 159.079 329.861 163.53 332.766 167.038C336.8 172.354 343.629 176.432 350.032 174.532C350.552 174.421 351.044 174.205 351.477 173.897C351.91 173.588 352.275 173.194 352.55 172.738C353.532 170.603 350.416 168.468 348.282 169.429C347.291 170.044 346.488 170.918 345.958 171.957C345.427 172.995 345.19 174.159 345.272 175.322C344.974 185.143 353.809 192.765 362.346 197.44C364.715 198.976 367.509 199.724 370.328 199.575C373.103 199.212 375.728 196.458 374.917 193.768C370.371 194.9 368.173 200.557 369.282 205.105C370.392 209.653 373.892 213.239 377.499 216.228C381.106 219.217 385.054 221.993 387.637 225.921C389.402 228.523 390.396 231.571 390.506 234.714C390.615 237.856 389.835 240.966 388.256 243.684C386.122 247.143 382.237 250.26 382.835 254.359C383.239 256.237 384.234 257.935 385.673 259.206C394.21 267.917 409.15 270.479 414.165 281.645C417.025 288.05 415.83 295.522 418.434 301.949C422.275 311.428 432.925 315.805 440.587 322.551C451.407 332.116 456.209 349.431 448.313 361.515C445.922 365.166 442.486 368.368 441.803 372.66C440.928 378.125 444.77 383.078 448.398 387.242" stroke="#CEA25B" stroke-width="2.08542" stroke-linecap="round" stroke-linejoin="round"></path> <path d="M348.283 120.324C348.1 122.636 348.384 124.962 349.117 127.163C349.85 129.363 351.018 131.394 352.551 133.134C353.121 133.908 353.851 134.55 354.69 135.018C355.53 135.485 356.46 135.768 357.417 135.846C359.338 135.846 361.237 133.881 360.576 132.088C359.366 133.725 358.552 135.62 358.197 137.624C357.843 139.629 357.957 141.688 358.532 143.641C359.107 145.594 360.126 147.387 361.51 148.879C362.894 150.372 364.605 151.523 366.509 152.242C367.756 152.808 369.131 153.031 370.493 152.888C371.854 152.746 373.153 152.243 374.256 151.431C374.865 150.881 375.34 150.198 375.643 149.436C375.946 148.673 376.071 147.851 376.006 147.033C371.567 146.627 367.747 151.303 367.96 155.68C368.217 157.906 369.046 160.028 370.367 161.839C371.687 163.65 373.453 165.088 375.494 166.013" stroke="#CEA25B" stroke-width="2.08542" stroke-linecap="round" stroke-linejoin="round"></path> <path d="M397.902 187.577C400.612 189.452 402.753 192.038 404.09 195.051C405.426 198.065 405.907 201.388 405.478 204.657" stroke="#CEA25B" stroke-width="2.08542" stroke-linecap="round" stroke-linejoin="round"></path> <path d="M417.303 218.47C419.752 223.138 421.376 228.194 422.105 233.415" stroke="#CEA25B" stroke-width="2.08542" stroke-linecap="round" stroke-linejoin="round"></path> <path d="M387.573 194.601C386.822 197.721 386.844 200.978 387.636 204.088C388.428 207.199 389.967 210.069 392.119 212.449C396.686 217.424 404.092 220.434 405.799 226.989C406.76 230.661 405.586 234.525 404.967 238.283C404.348 242.04 404.561 246.438 407.485 248.958C410.409 251.477 415.382 250.73 419.458 251.477C421.441 251.936 423.309 252.795 424.948 254.001C426.587 255.208 427.962 256.737 428.989 258.494C430.016 260.251 430.674 262.2 430.921 264.22C431.169 266.241 431.001 268.29 430.428 270.244C428.806 274.962 424.751 280.129 427.611 284.228C430.471 288.327 437.386 286.491 441.249 289.715C442.417 290.845 443.238 292.285 443.616 293.866C443.994 295.447 443.913 297.103 443.383 298.639C442.243 301.675 440.534 304.465 438.346 306.859" stroke="#CEA25B" stroke-width="2.08542" stroke-linecap="round" stroke-linejoin="round"></path> <path d="M396.899 301.436C396.184 304.259 395.889 307.173 396.024 310.082C396.114 311.537 396.524 312.953 397.225 314.23C397.926 315.507 398.901 316.613 400.079 317.47C402.408 318.561 404.88 319.315 407.421 319.711C409.897 320.416 412.479 322.209 412.543 324.793C412.607 327.376 410.409 329.063 409.235 331.304C408.425 333.043 408.284 335.018 408.839 336.854C409.395 338.69 410.607 340.256 412.244 341.253C413.461 341.937 414.848 342.278 416.107 342.94C417.556 343.715 418.74 344.904 419.509 346.356C420.278 347.808 420.597 349.456 420.426 351.09C420.254 352.724 419.599 354.27 418.545 355.529C417.49 356.789 416.084 357.706 414.507 358.163" stroke="#CEA25B" stroke-width="2.08542" stroke-linecap="round" stroke-linejoin="round"></path> <path d="M228.297 115.136C229.023 116.92 229.388 118.83 229.373 120.756C229.358 122.681 228.962 124.585 228.208 126.357C227.454 128.129 226.357 129.734 224.981 131.081C223.604 132.427 221.975 133.488 220.187 134.202C218.915 134.719 217.539 134.928 216.171 134.813C214.802 134.698 213.48 134.262 212.312 133.54C211.755 133.155 211.282 132.662 210.921 132.09C210.56 131.517 210.318 130.878 210.211 130.21C210.103 129.542 210.131 128.858 210.295 128.202C210.458 127.545 210.752 126.928 211.16 126.388C212.363 125.595 213.818 125.278 215.242 125.499C216.666 125.72 217.957 126.463 218.864 127.583C220.611 129.919 221.377 132.846 220.998 135.739C220.273 145.282 211.458 154.164 201.983 152.819C200.776 152.708 199.613 152.313 198.589 151.666C197.903 151.089 197.36 150.361 197.003 149.539C196.645 148.716 196.483 147.823 196.528 146.927C196.574 146.032 196.826 145.159 197.265 144.377C197.704 143.595 198.318 142.926 199.059 142.422C199.861 142.005 200.739 141.754 201.641 141.684C202.542 141.615 203.448 141.728 204.305 142.017C205.162 142.306 205.952 142.765 206.627 143.367C207.302 143.968 207.85 144.699 208.236 145.517C208.879 147.233 208.91 149.118 208.322 150.853C207.735 152.589 206.566 154.068 205.013 155.039C202.345 156.683 199.037 156.747 195.985 157.366C192.572 158.059 189.363 159.522 186.601 161.644C183.839 163.766 181.597 166.49 180.047 169.61C178.497 172.729 177.68 176.162 177.657 179.645C177.634 183.129 178.406 186.572 179.915 189.712" stroke="#CEA25B" stroke-width="2.08542" stroke-linecap="round" stroke-linejoin="round"></path> <path d="M205.993 170.497C206.709 179.35 204.316 188.176 199.227 195.455C197.2 198.711 194.165 201.215 190.584 202.586C186.315 203.931 181.599 202.586 177.074 202.799C174.197 202.927 171.379 203.66 168.805 204.951C166.231 206.243 163.958 208.063 162.135 210.293C161.008 211.509 160.189 212.976 159.743 214.573C159.298 216.17 159.239 217.85 159.573 219.474C160.534 222.655 164.738 224.747 167.363 222.719C169.327 221.203 169.498 218.449 169.498 215.908C163.167 215.645 156.886 217.122 151.335 220.178C148.586 221.731 146.245 223.915 144.505 226.551C142.765 229.186 141.675 232.197 141.326 235.337C141.081 238.484 141.899 241.623 143.647 244.251C145.396 246.879 147.975 248.845 150.973 249.833C152.001 252.699 151.936 255.844 150.79 258.665C149.644 261.486 147.498 263.784 144.762 265.12C142.35 266.209 139.64 266.444 137.186 267.383C133.864 268.802 131.17 271.377 129.6 274.631C128.031 277.885 127.693 281.598 128.649 285.082C130.292 290.462 134.881 294.369 137.442 299.365C140.003 304.361 139.234 312.175 133.771 313.478" stroke="#CEA25B" stroke-width="2.08542" stroke-linecap="round" stroke-linejoin="round"></path> <path d="M111.597 273.126C108.717 277.684 106.752 282.76 105.813 288.071C105.374 293.425 106.573 298.786 109.249 303.443C111.896 308.078 115.163 312.331 118.96 316.082" stroke="#CEA25B" stroke-width="2.08542" stroke-linecap="round" stroke-linejoin="round"></path> <path d="M130.933 338.863C128.851 341.196 127.442 344.052 126.857 347.125C125.278 354.17 126.301 361.549 129.738 367.899" stroke="#CEA25B" stroke-width="2.08542" stroke-linecap="round" stroke-linejoin="round"></path> <path d="M202.175 265.547L192.805 273.766C190.763 275.29 189.117 277.281 188.003 279.574C186.339 283.844 188.708 288.647 190.885 292.747C193.062 296.846 195.153 301.842 192.891 305.941C190.629 310.04 185.058 311.556 183.479 315.911C182.348 319.092 183.884 322.637 185.912 325.348C188.197 327.85 190.175 330.617 191.802 333.589C193.126 336.706 192.677 340.976 189.668 342.62" stroke="#CEA25B" stroke-width="2.08542" stroke-linecap="round" stroke-linejoin="round"></path> <path d="M199.037 250.986C197.265 249.769 194.768 251.264 193.53 252.929C191.497 255.467 190.231 258.534 189.881 261.768" stroke="#CEA25B" stroke-width="2.08542" stroke-linecap="round" stroke-linejoin="round"></path> <path d="M368.792 216.484C367.364 219.735 367.021 223.359 367.813 226.82C368.605 230.28 370.49 233.394 373.189 235.699C375.814 237.834 379.485 239.799 379.591 243.193C379.544 244.11 379.28 245.003 378.82 245.797C378.359 246.592 377.717 247.265 376.945 247.762C375.403 248.732 373.718 249.453 371.951 249.897" stroke="#CEA25B" stroke-width="2.08542" stroke-linecap="round" stroke-linejoin="round"></path> <path d="M299.025 122.694C298.321 118.424 297.852 113.471 301.01 110.61C301.924 109.84 302.963 109.233 304.083 108.816C307.976 107.171 312.349 107.071 316.313 108.539C318.258 109.311 319.945 110.619 321.177 112.313C322.409 114.006 323.135 116.014 323.27 118.104C323.32 120.208 322.577 122.253 321.189 123.835C319.802 125.417 317.871 126.419 315.779 126.644C315.33 126.68 314.879 126.591 314.477 126.388C314.025 126.022 313.703 125.521 313.559 124.957C312.798 123.181 312.458 121.252 312.565 119.323C312.673 117.393 313.225 115.515 314.178 113.834C315.532 112.19 317.332 110.971 319.361 110.323C321.389 109.676 323.562 109.627 325.618 110.183C329.72 111.357 333.549 113.331 336.886 115.99" stroke="#CEA25B" stroke-width="2.08542" stroke-linecap="round" stroke-linejoin="round"></path> <path d="M353.468 102.497C359.858 101.626 366.363 102.36 372.399 104.632C375.777 105.763 378.831 107.697 381.299 110.268C382.525 111.556 383.453 113.097 384.017 114.783C384.581 116.469 384.768 118.259 384.564 120.025" stroke="#CEA25B" stroke-width="2.08542" stroke-linecap="round" stroke-linejoin="round"></path> <path d="M264.407 111.912C261.621 110.898 258.645 110.517 255.694 110.798C252.743 111.079 249.891 112.014 247.347 113.535C244.802 115.056 242.628 117.126 240.983 119.592C239.338 122.059 238.263 124.862 237.836 127.796" stroke="#CEA25B" stroke-width="2.08542" stroke-linecap="round" stroke-linejoin="round"></path> <path d="M247.504 103.799C238.862 101.529 229.676 102.716 221.894 107.108" stroke="#CEA25B" stroke-width="2.08542" stroke-linecap="round" stroke-linejoin="round"></path> </g> </svg> 