<?xml version="1.0" encoding="UTF-8"?> <svg xmlns="http://www.w3.org/2000/svg" width="56" height="68" viewBox="0 0 56 68" fill="none"> <path d="M28 0C22.9184 0 18.7639 4.0991 18.7639 9.12731C18.7639 12.0921 20.2312 14.7092 22.4583 16.3712C15.0419 18.7241 9.67361 25.655 9.67361 33.8532C9.6707 34.0579 9.70878 34.2612 9.78565 34.4513C9.86251 34.6413 9.97663 34.8143 10.1214 34.9601C10.2661 35.1059 10.4386 35.2217 10.6287 35.3008C10.8189 35.3798 11.023 35.4205 11.2292 35.4205C11.4353 35.4205 11.6394 35.3798 11.8296 35.3008C12.0198 35.2217 12.1922 35.1059 12.337 34.9601C12.4817 34.8143 12.5958 34.6413 12.6727 34.4513C12.7496 34.2612 12.7876 34.0579 12.7847 33.8532C12.7847 25.3664 19.5462 18.5927 28 18.5927C36.4538 18.5927 43.2153 25.3664 43.2153 33.8532C43.2124 34.0579 43.2504 34.2612 43.3273 34.4513C43.4042 34.6413 43.5183 34.8143 43.663 34.9601C43.8078 35.1059 43.9802 35.2217 44.1704 35.3008C44.3606 35.3798 44.5647 35.4205 44.7708 35.4205C44.977 35.4205 45.1811 35.3798 45.3713 35.3008C45.5614 35.2217 45.7339 35.1059 45.8786 34.9601C46.0234 34.8143 46.1375 34.6413 46.2143 34.4513C46.2912 34.2612 46.3293 34.0579 46.3264 33.8532C46.3264 25.6656 40.9675 18.7571 33.566 16.3954C35.8027 14.7335 37.2604 12.0942 37.2604 9.12731C37.2604 4.0991 33.0815 0 28 0ZM28 3.09073C31.4134 3.09073 34.1493 5.78273 34.1493 9.12731C34.1493 12.4719 31.4134 15.1397 28 15.1397C24.5866 15.1397 21.875 12.4719 21.875 9.12731C21.875 5.78273 24.5866 3.09073 28 3.09073ZM1.48264 36.2678C1.08286 36.2865 0.705709 36.4575 0.429582 36.7453C0.153456 37.0331 -0.000399023 37.4156 2.69685e-06 37.8132V58.3858C-0.000734657 58.7795 0.149755 59.1586 0.420762 59.4458C0.69177 59.7329 1.06287 59.9066 1.45834 59.9312C4.63828 60.1065 8.26056 60.6162 12.0556 61.5973C17.8064 63.0834 23.1031 65.332 27.2222 67.7788C27.4644 67.9235 27.7417 68 28.0243 68C28.3069 68 28.5842 67.9235 28.8264 67.7788C32.9456 65.332 38.2179 63.0834 43.9687 61.5973C47.7663 60.6156 51.3624 60.1065 54.5417 59.9312C54.9371 59.9066 55.3082 59.7329 55.5792 59.4458C55.8502 59.1586 56.0007 58.7795 56 58.3858V37.8132C56.0004 37.6018 55.9572 37.3927 55.873 37.1986C55.7888 37.0045 55.6654 36.8297 55.5105 36.6849C55.3556 36.54 55.1725 36.4283 54.9724 36.3565C54.7723 36.2848 54.5595 36.2546 54.3472 36.2678C50.9571 36.4549 47.1895 36.997 43.191 38.0305C37.483 39.5055 32.3062 41.7185 28.0243 44.1636C23.7421 41.718 18.5665 39.5058 12.8576 38.0305C8.85649 36.9964 5.04213 36.4549 1.65278 36.2678C1.59611 36.2647 1.53931 36.2647 1.48264 36.2678ZM3.11111 39.5275C5.88778 39.7712 8.87774 40.2033 12.0556 41.0246C17.4575 42.4206 22.4434 44.4976 26.4444 46.7714V63.867C22.4897 61.7735 17.8829 59.9018 12.8576 58.6031C9.39936 57.7092 6.13659 57.2342 3.11111 56.9853V39.5275ZM52.8889 39.5275V56.9853C49.8727 57.2345 46.6446 57.7104 43.191 58.6031C38.1459 59.9069 33.521 61.7873 29.5556 63.8912V46.7956C33.5619 44.5112 38.5455 42.4261 43.9687 41.0246C47.1458 40.2035 50.1245 39.7713 52.8889 39.5275Z" fill="#274E9D"></path> </svg> 