<?xml version="1.0" encoding="UTF-8"?> <svg xmlns="http://www.w3.org/2000/svg" width="66" height="66" viewBox="0 0 66 66" fill="none"> <path d="M59.1643 12.98C53.13 5.10714 43.6543 0 33 0C22.3457 0 12.87 5.10714 6.83571 12.98C6.64714 13.1371 6.50571 13.3257 6.41143 13.5457C2.40429 18.9986 0 25.7243 0 33C0 40.2757 2.40429 47.0014 6.41143 52.4543C6.50571 52.6743 6.66286 52.8629 6.83571 53.02C12.87 60.8929 22.3457 66 33 66C43.6543 66 53.13 60.8929 59.1643 53.02C59.3529 52.8629 59.4943 52.6743 59.5886 52.4543C63.5957 47.0014 66 40.2757 66 33C66 25.7243 63.5957 18.9986 59.5886 13.5457C59.4943 13.31 59.3529 13.1371 59.1643 12.98ZM24.2314 4.46286C22.3457 6.55286 20.68 9.30286 19.3443 12.5714H11.2829C14.7871 8.84714 19.2186 6.00286 24.2314 4.46286ZM8.70571 15.7143H18.2286C17.3171 18.59 16.6257 21.7486 16.2171 25.1429H4.22714C5.17 21.7171 6.69429 18.5271 8.70571 15.7143ZM3.14286 33C3.14286 31.3971 3.3 29.8257 3.55143 28.2857H15.9029C15.7929 29.8257 15.7143 31.3971 15.7143 33C15.7143 34.6029 15.7929 36.1743 15.9029 37.7143H3.55143C3.3 36.1743 3.14286 34.6029 3.14286 33ZM8.70571 50.2857C6.69429 47.4729 5.17 44.2829 4.22714 40.8571H16.2014C16.6257 44.2514 17.3014 47.41 18.2129 50.2857H8.70571ZM11.2829 53.4286H19.3443C20.68 56.6971 22.33 59.4471 24.2314 61.5371C19.2186 59.9971 14.7871 57.1529 11.2829 53.4286ZM31.4286 62.6529C28.0814 61.8357 25.0643 58.4257 22.8014 53.4286H31.4286V62.6529ZM31.4286 50.2857H21.5757C20.6014 47.4571 19.8629 44.2671 19.3914 40.8571H31.4286V50.2857ZM31.4286 37.7143H19.0614C18.9357 36.1743 18.8571 34.6029 18.8571 33C18.8571 31.3971 18.9357 29.8257 19.0614 28.2857H31.4286V37.7143ZM31.4286 25.1429H19.3914C19.8471 21.7329 20.6014 18.5429 21.5757 15.7143H31.4286V25.1429ZM31.4286 12.5714H22.8014C25.0486 7.59 28.0814 4.18 31.4286 3.34714V12.5714ZM54.7171 12.5714H46.6557C45.32 9.30286 43.67 6.55286 41.7686 4.46286C46.7814 6.00286 51.2129 8.84714 54.7171 12.5714ZM34.5714 3.34714C37.9186 4.16429 40.9357 7.57429 43.1986 12.5714H34.5714V3.34714ZM34.5714 15.7143H44.4243C45.3986 18.5429 46.1371 21.7329 46.6086 25.1429H34.5714V15.7143ZM34.5714 28.2857H46.9386C47.0643 29.8257 47.1429 31.3971 47.1429 33C47.1429 34.6029 47.0643 36.1743 46.9386 37.7143H34.5714V28.2857ZM34.5714 40.8571H46.6086C46.1529 44.2671 45.3986 47.4571 44.4243 50.2857H34.5714V40.8571ZM34.5714 62.6529V53.4286H43.1986C40.9357 58.41 37.9186 61.82 34.5714 62.6529ZM41.7686 61.5371C43.6543 59.4471 45.32 56.6971 46.6557 53.4286H54.7171C51.2129 57.1529 46.7814 59.9971 41.7686 61.5371ZM57.2943 50.2857H47.7714C48.6829 47.41 49.3743 44.2514 49.7829 40.8571H61.7571C60.83 44.2829 59.3057 47.4729 57.2943 50.2857ZM62.8571 33C62.8571 34.6029 62.7 36.1743 62.4486 37.7143H50.0971C50.2071 36.1743 50.2857 34.6029 50.2857 33C50.2857 31.3971 50.2071 29.8257 50.0971 28.2857H62.4486C62.7 29.8257 62.8571 31.3971 62.8571 33ZM49.7986 25.1429C49.3743 21.7486 48.6986 18.59 47.7871 15.7143H57.31C59.3214 18.5271 60.8457 21.7171 61.7886 25.1429H49.7986Z" fill="#274E9D"></path> </svg> 