<?xml version="1.0" encoding="UTF-8"?> <svg xmlns="http://www.w3.org/2000/svg" width="62" height="99" viewBox="0 0 62 99" fill="none"> <path d="M40.182 54.526C44.173 52.31 47.42 48.73 49.072 44.424C49.337 44.453 49.668 44.471 49.938 44.471C53.797 44.471 56.969 41.33 56.969 37.471C56.969 35.905 56.461 34.462 55.589 33.295C58.738 31.898 61.116 29.308 61.116 25.797C61.116 22.531 59.435 19.503 56.772 17.735C57.101 16.754 57.273 15.722 57.273 14.682C57.273 9.349 52.934 5.01 47.6 5.01C46.919 5.01 46.249 5.08 45.593 5.221C43.958 2.068 40.673 0 37.013 0C34.796 0 32.693 0.747 30.999 2.099C29.306 0.747 27.203 0 24.986 0C21.326 0 18.04 2.067 16.405 5.221C15.749 5.08 15.078 5.01 14.397 5.01C9.06302 5.01 4.72302 9.349 4.72302 14.682C4.72302 15.722 4.89302 16.753 5.22202 17.735C2.55902 19.504 0.874023 22.532 0.874023 25.797C0.874023 29.308 3.24402 31.898 6.39402 33.295C5.52302 34.463 5.00002 35.905 5.00002 37.471C5.00002 41.33 8.14102 44.471 12 44.471C12.271 44.471 12.539 44.453 12.804 44.424C14.455 48.73 17.327 52.31 21.319 54.526C9.66502 58.47 1.00002 69.503 1.00002 82.471V91.971C1.00002 92.784 1.74302 93.518 2.49702 93.824C3.01502 94.035 15.474 98.973 30.875 98.973C46.276 98.973 58.423 94.035 58.94 93.824C59.694 93.518 60 92.785 60 91.971V82.471C60 69.503 51.835 58.47 40.182 54.526ZM50.248 40.446C50.398 39.473 50.5 38.485 50.5 37.471C50.5 36.464 50.401 35.474 50.252 34.496C51.787 34.628 53 35.903 53 37.471C53 39.041 51.785 40.317 50.248 40.446ZM15.5 37.471C15.5 36.367 14.604 35.471 13.5 35.471C12.396 35.471 11.5 36.367 11.5 37.471C11.5 38.485 11.602 39.473 11.752 40.446C10.215 40.317 9.00002 39.041 9.00002 37.471C9.00002 35.817 10.346 34.471 12 34.471C13.104 34.471 14 33.575 14 32.471C14 31.367 13.104 30.471 12 30.471C9.01402 30.471 4.87602 28.847 4.87602 25.797C4.87602 23.462 6.34802 21.333 8.53802 20.5C9.09202 20.29 9.52402 19.844 9.71802 19.284C9.91102 18.723 9.84602 18.106 9.54002 17.598C9.00702 16.712 8.72502 15.703 8.72502 14.681C8.72502 11.553 11.27 9.009 14.399 9.009C15.211 9.009 16.001 9.182 16.747 9.524C17.284 9.768 17.9 9.765 18.434 9.513C18.968 9.261 19.362 8.786 19.513 8.217C20.171 5.734 22.423 3.999 24.989 3.999C26.727 3.999 28.347 4.785 29.434 6.157C30.192 7.114 31.811 7.114 32.569 6.157C33.656 4.785 35.276 3.999 37.015 3.999C39.58 3.999 41.831 5.733 42.49 8.217C42.641 8.786 43.036 9.261 43.569 9.513C44.102 9.765 44.718 9.768 45.256 9.524C46 9.183 46.79 9.01 47.602 9.01C50.731 9.01 53.276 11.554 53.276 14.682C53.276 15.704 52.994 16.713 52.461 17.599C52.155 18.107 52.09 18.724 52.283 19.285C52.476 19.845 52.909 20.291 53.463 20.501C55.653 21.334 57.125 23.463 57.125 25.798C57.125 28.848 52.987 30.472 50.001 30.472C49.734 30.472 49.471 30.489 49.209 30.518C48.243 27.986 46.763 25.658 44.789 23.685C44.09 22.985 42.984 22.902 42.187 23.49C38.929 25.895 32.902 27.021 27.864 26.165C24.82 25.648 22.547 24.488 21.46 22.897C20.966 22.173 20.056 21.858 19.219 22.114C18.38 22.373 17.809 23.148 17.809 24.025C17.809 25.875 15.757 26.455 15.541 26.51C14.466 26.764 13.801 27.842 14.055 28.916C14.309 29.991 15.389 30.653 16.461 30.402C17.634 30.125 19.471 29.26 20.656 27.633C22.364 28.822 24.571 29.661 27.195 30.107C32.598 31.024 38.815 30.035 43.026 27.69C45.277 30.446 46.501 33.865 46.501 37.471C46.501 46.018 39.548 52.971 31.001 52.971C22.454 52.971 15.5 46.018 15.5 37.471ZM38.555 58.114C37.459 61.288 34.476 63.471 31 63.471C27.525 63.471 24.541 61.286 23.445 58.114C25.833 57.372 28.371 56.971 31 56.971C33.629 56.971 36.166 57.372 38.555 58.114ZM56 90.581C53 91.793 42.398 94.974 30.5 94.974C18.631 94.974 9.00002 91.791 5.00002 90.579V82.472C5.00002 72.455 11.059 63.773 19.481 59.605C21.174 64.273 25.727 67.472 30.875 67.472C36.025 67.472 40.264 64.273 41.956 59.605C50.379 63.772 56 72.455 56 82.471V90.581Z" fill="#274E9D"></path> </svg> 